<svg width="160" height="105" viewBox="0 0 160 105" fill="none" xmlns="http://www.w3.org/2000/svg">
<path fill-rule="evenodd" clip-rule="evenodd" d="M149.98 68.4482C145.283 68.4482 141.439 72.292 141.439 76.9894C141.439 85.5608 134.426 92.574 125.854 92.574H124.995H39.2659H21.0746C9.93954 92.574 0.829102 83.4636 0.829102 72.3287C0.829102 61.1939 9.93981 52.0835 21.0746 52.0835H21.6066C23.8416 52.0835 25.6693 50.2548 25.6693 48.0205C25.6693 45.7862 23.8416 43.9572 21.6066 43.9572H19.372C13.9399 43.9572 9.49527 39.5133 9.49527 34.081C9.49527 28.6549 13.9296 24.2142 19.3532 24.2045C19.3592 24.2045 28.9839 24.2045 28.9902 24.2045C33.6881 24.2045 37.5319 20.3607 37.5319 15.6628C37.5319 7.09113 44.545 0.0782471 53.1162 0.0782471C68.3257 0.0782471 117.546 0.0782471 132.756 0.0782471C143.891 0.0782471 153.001 9.18886 153.001 20.3235C153.001 31.4584 143.891 40.569 132.756 40.569C130.521 40.569 128.693 42.3977 128.693 44.632C128.693 46.8665 130.521 48.6945 132.756 48.6945H149.98C162.904 48.6945 162.904 68.4482 149.98 68.4482Z" fill="#E6DAED"/>
<path fill-rule="evenodd" clip-rule="evenodd" d="M149.98 68.4482C145.283 68.4482 141.439 72.292 141.439 76.9894C141.439 85.5604 134.426 92.574 125.854 92.574H124.995H39.2659H21.0746C9.93954 92.574 0.829102 83.4636 0.829102 72.3287C0.829102 67.9508 2.23828 63.8866 4.62413 60.565H159.493C158.736 64.7566 155.567 68.4482 149.98 68.4482Z" fill="#A092CE"/>
<path fill-rule="evenodd" clip-rule="evenodd" d="M2.35596 64.6396C3.46161 61.9686 5.1236 59.5811 7.19576 57.6236H159.632C159.84 60.0903 159.235 62.6364 157.817 64.6396H2.35596Z" fill="#C3B3DC"/>
<path fill-rule="evenodd" clip-rule="evenodd" d="M107.953 33.7622C107.909 33.716 107.911 33.6428 107.957 33.599C108.003 33.5548 108.077 33.5568 108.121 33.6032C108.151 33.6351 118.923 44.7151 106.586 57.0523C106.541 57.0977 106.468 57.0977 106.423 57.0523C106.377 57.0071 106.377 56.9334 106.423 56.8879C118.599 44.7119 107.983 33.7941 107.953 33.7622Z" fill="#2B1535"/>
<path fill-rule="evenodd" clip-rule="evenodd" d="M106.963 16.8786C101.219 21.6708 104.017 30.4375 108.679 35.06C114.072 40.4077 116.033 48.9637 106.473 55.4995C96.9128 62.0356 111.744 67.501 117.504 60.2527C123.264 53.004 125.383 35.4029 124.981 31.0194C124.579 26.6364 124.735 24.7214 121.426 22.8202C118.117 20.9184 106.963 16.8786 106.963 16.8786Z" fill="#2B1535"/>
<path fill-rule="evenodd" clip-rule="evenodd" d="M92.6221 47.7793C92.6221 47.7793 91.7951 46.6761 91.6264 46.5076C91.458 46.3392 90.355 46.3085 89.6959 46.2626C89.0371 46.2164 88.9149 46.8141 88.8994 47.0591C88.8842 47.3042 88.8535 47.6109 88.8535 47.6109C88.8535 47.6109 85.0606 47.9246 84.7851 47.986C84.5094 48.0474 84.1418 49.1044 84.065 49.319C83.9883 49.5334 84.1338 50.0238 84.4173 50.0467C84.7008 50.0694 85.0606 49.901 85.1757 49.7171C85.2907 49.5334 85.3903 49.7864 85.3903 49.7864C85.3903 49.7864 85.0993 50.2765 85.0838 50.6289C85.0686 50.9813 85.1452 51.1652 85.4285 51.2875C85.712 51.4102 86.1564 51.4946 86.1564 51.4946C86.1564 51.4946 86.1716 52.0765 86.2712 52.2911C86.3708 52.5057 86.4015 52.5978 86.8382 52.7276C87.2749 52.8581 88.8146 53.2182 88.8146 53.2182L92.6221 47.7793Z" fill="#EA5153"/>
<path fill-rule="evenodd" clip-rule="evenodd" d="M86.1415 51.5853C86.091 51.5771 86.0564 51.5298 86.0649 51.4795C86.0726 51.429 86.1197 51.3951 86.17 51.4029L86.91 51.5208C86.9598 51.5288 86.9941 51.5759 86.9866 51.6264C86.9784 51.6767 86.9313 51.711 86.8808 51.7028L86.1415 51.5853Z" fill="#CC3C49"/>
<path fill-rule="evenodd" clip-rule="evenodd" d="M126.12 84.9542C126.12 84.9542 125.14 92.574 118.766 92.574C112.392 92.574 114.231 92.574 111.596 92.574C108.961 92.574 102.893 85.8124 98.2359 79.9291C93.5783 74.0458 91.367 69.8789 91.367 69.8789C90.2403 71.7958 78.2002 81.4065 75.3818 83.9122C74.8305 84.4025 72.4353 87.1912 72.0063 87.1912C72.0063 87.1912 68.8196 87.4051 66.4297 85.7506C66.4297 85.7506 67.1902 82.5172 67.3488 82.3195C74.5173 73.3701 82.5027 63.2986 86.462 59.2933C90.4211 55.2888 94.4817 57.4989 103.674 63.9953C112.867 70.4911 126.12 84.9542 126.12 84.9542Z" fill="#2B1535"/>
<path fill-rule="evenodd" clip-rule="evenodd" d="M83.3203 45.6754L83.5432 45.4354C83.7177 45.2484 84.0123 45.2375 84.1995 45.411L91.0836 51.8089C91.2707 51.9831 91.2816 52.2779 91.1073 52.4652L90.8845 52.7052C90.71 52.892 90.4154 52.9029 90.2281 52.7296L83.3448 46.3318C83.157 46.1573 83.1466 45.8625 83.3203 45.6754Z" fill="#2B1535"/>
<path fill-rule="evenodd" clip-rule="evenodd" d="M98.0128 51.4316C98.0128 51.4316 97.1735 51.0471 96.8823 50.8634C96.5913 50.6795 94.3544 47.8451 94.0634 47.7226C93.7722 47.6001 91.7499 47.3855 91.4589 47.3855C91.1679 47.3855 90.7387 47.6615 90.6009 47.9677C90.4629 48.2743 90.2334 49.1475 90.2334 49.1475C90.2334 49.1475 87.3089 49.2215 86.4758 49.242L85.6172 48.444C85.6172 48.444 85.3008 48.5532 85.178 48.7294C85.0555 48.9056 85.0478 49.4341 85.063 49.7021C85.0785 49.9702 85.5756 50.6292 85.7136 50.7745C85.8516 50.9202 86.1962 51.0045 86.449 51.0427C86.449 51.0427 86.4405 51.6786 86.9616 51.8929C87.4819 52.1075 88.1177 52.391 88.1177 52.391C88.1177 52.391 88.1484 52.9275 88.5315 53.1723C88.9145 53.4174 89.9409 54.199 89.9409 54.199C89.9409 54.199 90.3085 54.3445 90.5538 54.3292C90.5538 54.3292 90.8448 54.9491 91.3197 55.1483C91.7948 55.3474 93.5105 56.099 93.7558 56.1599C94.0011 56.2208 94.9552 56.0475 95.8878 56.5865C96.8199 57.1252 96.9422 57.1554 96.9422 57.1554L98.689 52.3444L98.0128 51.4316Z" fill="#F89B6F"/>
<path fill-rule="evenodd" clip-rule="evenodd" d="M67.3961 91.8877C67.3961 91.8877 53.213 92.2261 52.6632 91.2123C52.6632 91.2123 52.6632 90.4002 52.6632 89.8594C52.6632 89.319 53.3109 88.5415 55.0739 88.0345C56.8372 87.5272 60.5986 86.5463 61.7542 86.1913C62.9099 85.8365 66.2209 82.2198 66.6909 81.7802C67.1612 81.3413 69.3554 82.7607 69.8254 82.9971C70.2955 83.2341 69.982 83.8086 69.7469 84.4846C69.512 85.1605 67.3961 91.8877 67.3961 91.8877Z" fill="#D11E3F"/>
<path fill-rule="evenodd" clip-rule="evenodd" d="M52.663 92.574H75.3508C75.6196 92.574 75.8395 92.449 75.8395 92.2956V91.4908C75.8395 91.3373 75.6196 91.2119 75.3508 91.2119H52.663C52.3942 91.2119 52.1743 91.3373 52.1743 91.4908V92.2956C52.1743 92.449 52.3942 92.574 52.663 92.574Z" fill="#F2CBD2"/>
<path fill-rule="evenodd" clip-rule="evenodd" d="M52.6632 92.5746H60.3733C60.6421 92.5746 60.862 92.4491 60.862 92.2957V91.491C60.862 91.3374 60.6421 91.2121 60.3733 91.2121H52.6632C52.3942 91.2121 52.1743 91.3374 52.1743 91.491V92.2957C52.1743 92.4491 52.3942 92.5746 52.6632 92.5746Z" fill="#F6809D"/>
<path fill-rule="evenodd" clip-rule="evenodd" d="M62.6944 86.6315C62.7727 86.8678 63.4781 88.0513 62.9885 88.3387C62.4986 88.6257 60.9313 89.6566 60.0497 89.6566C59.1681 89.6566 57.307 89.6566 54.976 89.6566C52.6448 89.6566 53.1833 88.9551 53.1833 88.9551C52.8184 89.2736 52.6632 89.5946 52.6632 89.8595C52.6632 90.4004 52.6632 91.2124 52.6632 91.2124H75.3503C75.3503 91.2124 76.3105 90.2484 76.3105 87.9836C76.3105 85.7184 76.4376 84.417 76.0555 84.0538C75.6734 83.6908 75.409 83.8762 75.409 83.8762C73.646 85.1945 71.5104 84.2476 70.3934 83.7241C70.2747 83.6681 70.1621 83.6118 70.0543 83.5567C69.1485 83.0893 68.5934 82.6721 67.7881 83.0649C66.8869 83.5042 63.7133 85.448 63.2038 85.7525C62.6944 86.057 62.6163 86.3944 62.6944 86.6315Z" fill="#D11E3F"/>
<path fill-rule="evenodd" clip-rule="evenodd" d="M52.6632 90.1943V91.2124H75.3508C75.3508 91.2124 76.3105 90.2484 76.3105 87.9836C76.3105 85.7184 76.4376 84.417 76.0555 84.0538C76.1072 84.7795 75.6609 85.592 74.8766 85.592C74.0926 85.592 72.0145 85.592 70.3559 85.592C68.6973 85.592 68.3623 86.3581 68.3623 86.3581C68.3623 86.3581 67.5247 87.7889 66.9215 88.8008C66.3182 89.8124 65.3134 90.5038 64.576 90.5038C63.8387 90.5038 54.8728 90.5038 53.6669 90.5038C53.1519 90.5038 52.8452 90.3593 52.6632 90.1943Z" fill="#EE244D"/>
<path fill-rule="evenodd" clip-rule="evenodd" d="M64.7065 83.7958C64.8348 83.6694 64.9612 83.5428 65.0845 83.4198L66.3185 84.2151C66.4105 84.2746 66.4439 84.3845 66.3922 84.4594C66.3405 84.5351 66.2233 84.5481 66.1307 84.4882L65.107 83.8289L65.5263 84.8701C65.5642 84.9641 65.5144 85.0566 65.4158 85.0764C65.3165 85.0963 65.2053 85.0354 65.1674 84.9413L64.7065 83.7958ZM63.7217 84.7366L64.7193 85.3795C64.8116 85.439 64.9286 85.4261 64.9806 85.3507C65.032 85.2756 64.9992 85.1656 64.9066 85.1062L63.9721 84.5039C63.8882 84.5822 63.8046 84.66 63.7217 84.7366ZM63.4235 85.0061C63.517 84.9225 63.612 84.8372 63.7074 84.7492L64.1144 85.7613C64.1524 85.8554 64.103 85.9477 64.0037 85.9675C63.9046 85.9875 63.7937 85.9266 63.756 85.8326L63.4235 85.0061ZM67.5425 83.5972C67.6351 83.6571 67.7521 83.6438 67.8038 83.5684C67.8555 83.4932 67.8224 83.3833 67.7298 83.3238L66.3047 82.4047L66.238 82.2397L65.9299 82.5577L65.9958 82.6003L66.5792 84.0503C66.6172 84.1443 66.7279 84.2052 66.8272 84.1851C66.926 84.1653 66.9758 84.073 66.9379 83.979L66.5188 82.9376L67.5425 83.5972Z" fill="#F03562"/>
<path fill-rule="evenodd" clip-rule="evenodd" d="M100.103 52.2026L98.6312 51.3625C98.6312 51.3625 98.3245 51.2859 98.1101 51.3932C98.1101 51.3932 97.7425 55.1621 95.9805 56.587C95.9805 56.587 95.9346 56.8321 96.0649 56.9549C96.1951 57.0772 97.7737 58.1777 97.7737 58.1777C97.7737 58.1777 98.4318 58.2954 99.0447 57.8969C99.6576 57.4986 101.037 54.8482 101.006 54.5111C100.975 54.1742 100.103 52.2026 100.103 52.2026Z" fill="#E19824"/>
<path fill-rule="evenodd" clip-rule="evenodd" d="M130.156 84.9542C130.156 84.9542 129.176 92.574 122.802 92.574C116.429 92.574 118.268 92.574 115.632 92.574C112.997 92.574 106.93 85.8124 102.272 79.9291C97.6146 74.0458 95.403 69.8789 95.403 69.8789C94.2763 71.7958 82.2364 81.4065 79.418 83.9122C78.8665 84.4025 76.4713 87.1912 76.0423 87.1912C76.0423 87.1912 72.8556 87.4051 70.4657 85.7506C70.4657 85.7506 71.2265 82.5172 71.385 82.3195C78.5535 73.3701 86.5389 63.2986 90.498 59.2933C94.4578 55.2888 98.5177 57.4989 107.71 63.9953C116.903 70.4911 130.156 84.9542 130.156 84.9542Z" fill="#451E56"/>
<path fill-rule="evenodd" clip-rule="evenodd" d="M116.245 46.469L115.615 45.9346C115.615 45.9346 112.14 53.4553 111.404 57.745C110.669 62.0352 113.917 61.5448 113.917 61.5448C113.917 61.5448 116.245 60.1968 116.307 58.4804C116.368 56.7648 116.245 46.469 116.245 46.469Z" fill="#E19824"/>
<path fill-rule="evenodd" clip-rule="evenodd" d="M119.803 20.8792C119.803 20.8792 123.205 26.2596 128.331 28.4395C128.331 28.4395 128.918 32.1673 126.372 33.7539C123.827 35.34 119.909 34.0548 119.909 34.0548L117.325 30.2542L119.803 20.8792Z" fill="#F89B6F"/>
<path fill-rule="evenodd" clip-rule="evenodd" d="M117.936 31.1519L117.527 30.5518C117.877 29.1223 118.48 26.6277 118.48 26.454C118.48 26.2087 120.104 23.8799 120.104 23.8799L121.421 23.9106L121.391 29.0889L117.936 31.1519Z" fill="#EA5153"/>
<path fill-rule="evenodd" clip-rule="evenodd" d="M132.398 37.7083C132.398 37.7083 142.203 55.1397 133.379 81.3419C133.379 81.3419 132.459 83.671 132.582 85.6317C132.705 87.5928 125.963 88.6342 122.96 83.4249C119.957 78.2157 121.979 78.3998 118.67 75.152C115.361 71.9039 110.152 67.9206 110.152 67.9206C110.152 67.9206 111.56 65.3465 114.379 64.8562C114.379 64.8562 114.379 63.2017 115.329 62.8643C115.329 62.8643 113.766 57.2265 113.889 53.3658C114.011 49.5048 116.217 42.8861 119.955 37.9838C119.955 37.9838 120.415 36.5429 119.832 35.4397C119.25 34.3367 119.158 33.9077 119.434 33.3562C119.434 33.3562 120.537 33.3562 121.457 32.6819C122.376 32.0079 124.674 31.9465 124.674 31.9465L132.398 37.7083Z" fill="#FBC748"/>
<path fill-rule="evenodd" clip-rule="evenodd" d="M129.239 87.2309C127.137 87.1686 124.534 86.1567 122.96 83.4246C119.957 78.2153 121.979 78.3995 118.67 75.1516C115.361 71.9035 110.152 67.9202 110.152 67.9202C110.152 67.9202 111.56 65.3462 114.379 64.8558C114.379 64.8558 114.379 63.2013 115.329 62.8639L115.306 62.7798L122.712 65.3846L130.556 53.8631L131.847 57.399C131.847 57.399 126.511 73.719 125.408 77.1505C124.406 80.2678 124.214 84.6994 129.239 87.2309Z" fill="#E19824"/>
<path fill-rule="evenodd" clip-rule="evenodd" d="M120.649 46.9628C118.915 53.2674 119.362 60.0164 119.362 60.0164C119.362 60.0164 118.733 59.6638 118.688 60.5983C115.883 57.4674 109.62 58.0206 103.78 52.1414C102.64 50.9935 100.103 52.2026 100.103 52.2026C100.103 52.2026 100.715 55.6039 97.7734 58.1777C97.7734 58.1777 96.7927 61.732 102.492 64.9192C108.191 68.1057 114.198 69.0247 117.507 71.3537C120.816 73.6823 123.512 73.2535 125.473 71.1696C127.434 69.0861 134.114 54.4402 133.318 48.9238C131.995 39.7697 122.382 40.659 120.649 46.9628Z" fill="#FBC748"/>
<path fill-rule="evenodd" clip-rule="evenodd" d="M119.373 55.488C121.937 55.845 126.61 56.73 131.37 58.8101C131.167 59.3913 130.954 59.9723 130.734 60.5492C126.239 58.5667 121.815 57.7042 119.315 57.346C119.322 56.7904 119.339 56.1654 119.373 55.488ZM119.676 51.9785C119.597 52.6097 119.534 53.2257 119.484 53.8171C121.837 54.1127 126.848 54.966 131.895 57.2484C132.088 56.6447 132.269 56.0475 132.431 55.4627C127.233 53.1549 122.106 52.283 119.676 51.9785Z" fill="white"/>
<path fill-rule="evenodd" clip-rule="evenodd" d="M107.704 16.9263C107.704 16.9263 105.898 18.5091 107.146 21.8558C108.393 25.2025 109.298 26.5462 108.1 28.0776C108.1 28.0776 107.947 28.3522 108.161 28.5305C108.376 28.7094 109.155 29.0134 109.601 29.251C110.047 29.4881 111.649 31.8927 112.628 32.6407C113.607 33.3887 115.759 32.7968 117.562 30.701C119.366 28.6052 120.786 23.4532 120.16 21.4031C119.535 19.354 111.3 16.123 107.704 16.9263Z" fill="#F89B6F"/>
<path fill-rule="evenodd" clip-rule="evenodd" d="M115.257 21.7495C115.257 21.7495 111.808 23.0323 108.753 21.0626C105.699 19.093 104.556 16.1907 107.212 13.6116C109.868 11.0329 116.147 7.68406 121.502 11.4899C126.858 15.2961 124.285 21.0561 132.239 24.439C136.437 26.2243 139.717 27.4426 141.846 29.7247C153.309 42.0123 131.077 60.0417 123.299 43.6407C118.184 32.8546 124.026 23.9994 115.257 21.7495Z" fill="#451E56"/>
<path fill-rule="evenodd" clip-rule="evenodd" d="M71.4318 91.8877C71.4318 91.8877 57.2482 92.2261 56.6986 91.2123C56.6986 91.2123 56.6986 90.4002 56.6986 89.8594C56.6986 89.319 57.3463 88.5415 59.1093 88.0345C60.8726 87.5272 64.634 86.5463 65.7896 86.1913C66.9453 85.8365 70.2563 82.2198 70.7263 81.7802C71.1966 81.3413 73.3905 82.7607 73.8608 82.9971C74.3309 83.2341 74.0174 83.8086 73.7825 84.4846C73.5474 85.1605 71.4318 91.8877 71.4318 91.8877Z" fill="#F03562"/>
<path fill-rule="evenodd" clip-rule="evenodd" d="M56.6987 92.574H79.3868C79.6556 92.574 79.875 92.449 79.875 92.2956V91.4908C79.875 91.3373 79.6556 91.2119 79.3868 91.2119H56.6987C56.43 91.2119 56.2103 91.3373 56.2103 91.4908V92.2956C56.2103 92.449 56.43 92.574 56.6987 92.574Z" fill="#FBCDD8"/>
<path fill-rule="evenodd" clip-rule="evenodd" d="M56.699 92.5746H64.4093C64.6783 92.5746 64.898 92.4491 64.898 92.2957V91.491C64.898 91.3374 64.6783 91.2121 64.4093 91.2121H56.699C56.43 91.2121 56.2103 91.3374 56.2103 91.491V92.2957C56.2103 92.4491 56.43 92.5746 56.699 92.5746Z" fill="white"/>
<path fill-rule="evenodd" clip-rule="evenodd" d="M66.7302 86.6315C66.8083 86.8678 67.5135 88.0513 67.0239 88.3387C66.5342 88.6257 64.9667 89.6566 64.0851 89.6566C63.2035 89.6566 61.3428 89.6566 59.0114 89.6566C56.6802 89.6566 57.2187 88.9551 57.2187 88.9551C56.8538 89.2736 56.6986 89.5946 56.6986 89.8595C56.6986 90.4004 56.6986 91.2124 56.6986 91.2124H79.386C79.386 91.2124 80.3461 90.2484 80.3461 87.9836C80.3461 85.7184 80.4732 84.417 80.0914 84.0538C79.7091 83.6908 79.4447 83.8762 79.4447 83.8762C77.6814 85.1945 75.5458 84.2476 74.4292 83.7241C74.3106 83.6681 74.1975 83.6118 74.0897 83.5567C73.1839 83.0893 72.629 82.6721 71.8237 83.0649C70.9223 83.5042 67.7489 85.448 67.2394 85.7525C66.7302 86.057 66.6517 86.3944 66.7302 86.6315Z" fill="#EE244D"/>
<path fill-rule="evenodd" clip-rule="evenodd" d="M56.6986 90.1943V91.2124H79.386C79.386 91.2124 80.3461 90.2484 80.3461 87.9836C80.3461 85.7184 80.4732 84.417 80.0914 84.0538C80.1424 84.7795 79.6963 85.592 78.9123 85.592C78.1283 85.592 76.0501 85.592 74.3913 85.592C72.7329 85.592 72.3977 86.3581 72.3977 86.3581C72.3977 86.3581 71.5601 87.7889 70.9569 88.8008C70.3539 89.8124 69.3488 90.5038 68.6114 90.5038C67.8746 90.5038 58.9082 90.5038 57.7023 90.5038C57.1873 90.5038 56.8808 90.3593 56.6986 90.1943Z" fill="#E21E44"/>
<path fill-rule="evenodd" clip-rule="evenodd" d="M68.7418 83.7958C68.8706 83.6694 68.997 83.5428 69.1198 83.4198L70.3537 84.2151C70.4463 84.2746 70.4792 84.3845 70.4277 84.4594C70.3757 84.5351 70.259 84.5481 70.166 84.4882L69.1427 83.8289L69.5618 84.8701C69.5995 84.9641 69.5499 85.0566 69.4511 85.0764C69.3518 85.0963 69.2411 85.0354 69.2027 84.9413L68.7418 83.7958ZM67.757 84.7366L68.7546 85.3795C68.8472 85.439 68.9644 85.4261 69.0161 85.3507C69.0676 85.2756 69.0345 85.1656 68.9424 85.1062L68.0073 84.5039C67.9237 84.5822 67.8401 84.66 67.757 84.7366ZM67.4587 85.0061C67.5525 84.9225 67.6475 84.8372 67.7427 84.7492L68.1502 85.7613C68.1876 85.8554 68.1383 85.9477 68.0392 85.9675C67.9402 85.9875 67.829 85.9266 67.7913 85.8326L67.4587 85.0061ZM71.5778 83.5972C71.6704 83.6571 71.7874 83.6438 71.8391 83.5684C71.8908 83.4932 71.8577 83.3833 71.7654 83.3238L70.34 82.4047L70.2735 82.2397L69.9651 82.5577L70.0309 82.6003L70.6145 84.0503C70.6525 84.1443 70.7636 84.2052 70.8625 84.1851C70.9616 84.1653 71.0113 84.073 70.9732 83.979L70.5541 82.9376L71.5778 83.5972Z" fill="white"/>
<path fill-rule="evenodd" clip-rule="evenodd" d="M88.7612 47.5983C88.7682 47.5478 88.8144 47.5128 88.8649 47.5193C88.9159 47.5256 88.9509 47.572 88.9446 47.6225C88.9446 47.6237 88.8787 48.0892 88.8671 48.2378C88.8622 48.3057 88.8716 48.3971 88.9277 48.4696C88.9685 48.5213 89.0357 48.5662 89.1423 48.5885C89.1742 48.5948 89.2201 48.5962 89.2772 48.5909C89.45 48.5757 89.7011 48.5003 89.9309 48.3318C90.1586 48.1641 90.3642 47.9024 90.4447 47.514C90.4797 47.3429 90.4911 47.1476 90.4715 46.9255C90.4665 46.8745 90.5041 46.8298 90.5544 46.8255C90.6056 46.8209 90.6501 46.8576 90.6547 46.9081C90.6772 47.1508 90.6641 47.3646 90.6252 47.5517C90.5341 47.9923 90.3004 48.2895 90.0399 48.4805C89.7808 48.6714 89.4927 48.7569 89.2936 48.7748C89.2182 48.7818 89.1525 48.7794 89.1049 48.7697C88.949 48.7374 88.8468 48.667 88.7817 48.5834C88.6904 48.466 88.6744 48.3255 88.6829 48.2233C88.6938 48.0817 88.7612 47.6003 88.7612 47.5983Z" fill="#CC3C49"/>
<path fill-rule="evenodd" clip-rule="evenodd" d="M90.5028 47.8223C90.453 47.8349 90.4032 47.8042 90.3904 47.7551C90.3783 47.7053 90.4083 47.6548 90.458 47.6427C90.4585 47.6427 90.7824 47.5642 90.887 47.1512C90.8998 47.1014 90.9501 47.0721 90.9996 47.0842C91.0492 47.097 91.0794 47.1475 91.0666 47.1966C90.9344 47.7181 90.5042 47.8223 90.5028 47.8223Z" fill="#CC3C49"/>
<path fill-rule="evenodd" clip-rule="evenodd" d="M90.2337 49.2399C90.1827 49.2406 90.1411 49.1997 90.1406 49.1485C90.1399 49.0975 90.1815 49.0559 90.2317 49.0555L92.2816 49.0388C92.3326 49.0383 92.3742 49.0796 92.3742 49.1301C92.3747 49.1811 92.3338 49.2227 92.2828 49.2232L90.2337 49.2399Z" fill="#EA5153"/>
<path fill-rule="evenodd" clip-rule="evenodd" d="M91.5032 49.0515C91.5508 49.0693 91.5744 49.1228 91.5566 49.1701C91.538 49.218 91.485 49.2417 91.4372 49.2238C91.436 49.2231 90.9736 49.0558 90.8301 48.5585C90.8161 48.5101 90.8448 48.4584 90.8932 48.4451C90.9425 48.4308 90.9935 48.4589 91.0077 48.5082C91.1245 48.9149 91.5024 49.051 91.5032 49.0515Z" fill="#EA5153"/>
<path fill-rule="evenodd" clip-rule="evenodd" d="M86.4424 51.135C86.3914 51.1316 86.3532 51.0869 86.3571 51.0359C86.3607 50.9849 86.4049 50.9465 86.4559 50.9503L88.6653 51.1214C88.7156 51.1253 88.7542 51.17 88.7501 51.221C88.747 51.2715 88.7025 51.3097 88.6513 51.3061L86.4424 51.135Z" fill="#EA5153"/>
<path fill-rule="evenodd" clip-rule="evenodd" d="M88.0825 52.4763C88.0354 52.4572 88.0129 52.403 88.0327 52.3554C88.0518 52.3083 88.1062 52.2861 88.1533 52.3059L89.3984 52.8216C89.4455 52.8414 89.468 52.8958 89.4487 52.9429C89.4291 52.9901 89.3747 53.0118 89.3276 52.993L88.0825 52.4763Z" fill="#EA5153"/>
<path fill-rule="evenodd" clip-rule="evenodd" d="M90.5576 54.4214C90.5066 54.4233 90.4638 54.3842 90.4619 54.3327C90.4599 54.2827 90.4996 54.2392 90.5498 54.2375L91.0407 54.2167C91.0912 54.2147 91.1347 54.2544 91.1366 54.3054C91.1386 54.3564 91.0989 54.3991 91.0479 54.4011L90.5576 54.4214Z" fill="#EA5153"/>
<path fill-rule="evenodd" clip-rule="evenodd" d="M84.2995 46.4148L84.3519 46.3588C84.3927 46.3148 84.4623 46.3124 84.5063 46.3532L86.1214 47.8545C86.1657 47.8953 86.1678 47.9644 86.127 48.0084L86.0748 48.0647C86.0339 48.1085 85.9651 48.1111 85.9211 48.0703L84.3053 46.5688C84.2613 46.5279 84.2593 46.4591 84.2995 46.4148Z" fill="#451E56"/>
<path fill-rule="evenodd" clip-rule="evenodd" d="M121.555 80.362C121.616 80.3823 121.648 80.4486 121.627 80.5085C121.606 80.5689 121.54 80.6008 121.481 80.5805C121.168 80.472 120.843 80.3277 120.505 80.1397C120.188 79.9633 119.86 79.7479 119.522 79.4908C115.436 76.3812 98.9843 63.2566 98.7494 63.0696C98.5911 62.9809 96.5413 61.8769 94.6538 63.1928C92.6416 64.5953 76.4577 82.5499 76.4111 82.6014C76.3683 82.6485 76.2951 82.6529 76.2482 82.6098C76.2011 82.5668 76.1972 82.4941 76.24 82.447C76.2866 82.3955 92.4898 64.4191 94.5216 63.0026C96.5384 61.5975 98.7226 62.7892 98.8654 62.8704C98.8734 62.8743 98.8809 62.8784 98.8886 62.8842C98.9365 62.9229 115.559 76.1833 119.662 79.3071C119.992 79.5582 120.311 79.7673 120.618 79.9377C120.944 80.1194 121.257 80.2586 121.555 80.362Z" fill="#2B1535"/>
<path fill-rule="evenodd" clip-rule="evenodd" d="M73.0695 80.2328C73.0161 80.1975 73.0011 80.1262 73.0362 80.0723C73.071 80.0189 73.1425 80.0039 73.1964 80.0382C73.2075 80.0465 77.1586 82.6312 78.2234 84.4135C78.2561 84.4681 78.2384 84.5389 78.1836 84.5716C78.1289 84.6047 78.0581 84.5868 78.0253 84.5319C76.9885 82.7962 73.0809 80.2393 73.0695 80.2328Z" fill="#2B1535"/>
<path fill-rule="evenodd" clip-rule="evenodd" d="M95.456 70.1303C95.4311 70.1888 95.3627 70.2163 95.3047 70.1912C95.246 70.1668 95.2187 70.0986 95.2433 70.0401C95.2448 70.0365 95.8255 68.7341 95.8255 67.3336C95.8255 67.2689 95.8772 67.2176 95.9418 67.2176C96.0056 67.2176 96.0573 67.2689 96.0573 67.3336C96.0573 68.7817 95.4572 70.1267 95.456 70.1303Z" fill="#2B1535"/>
<path fill-rule="evenodd" clip-rule="evenodd" d="M119.475 59.9709C119.443 59.4221 119.105 53.0119 120.76 46.9935C120.777 46.9317 120.741 46.8683 120.679 46.8519C120.618 46.8352 120.555 46.871 120.538 46.9329C118.961 52.6661 119.181 58.7485 119.237 59.8476C119.029 59.7971 118.705 59.8128 118.602 60.3387C117.382 59.0963 115.604 58.4525 113.523 57.6992C110.644 56.6564 107.182 55.4023 103.862 52.0602C102.664 50.8545 100.062 52.0945 100.054 52.0979C99.9963 52.1252 99.9717 52.1939 99.9982 52.2519C100.026 52.3091 100.094 52.3343 100.152 52.3072C100.159 52.3041 102.616 51.1334 103.698 52.2231C107.054 55.6014 110.543 56.8652 113.444 57.9162C115.591 58.6937 117.412 59.3532 118.595 60.6672C118.623 60.7116 118.841 61.0509 118.944 61.5022C118.958 61.5645 119.019 61.6037 119.082 61.5899C119.144 61.5759 119.183 61.514 119.169 61.4521C119.069 61.0132 118.87 60.6715 118.805 60.5671C118.85 59.9388 119.213 60.0739 119.29 60.1091C119.356 60.1867 119.604 60.4859 119.657 60.68C119.674 60.7414 119.737 60.7776 119.799 60.7612C119.86 60.7445 119.896 60.6809 119.88 60.6196C119.815 60.3825 119.557 60.0659 119.475 59.9709ZM97.662 58.1499C97.6772 58.0875 97.7398 58.0503 97.8017 58.0658C97.8636 58.0815 97.9012 58.1439 97.886 58.206C97.8834 58.2159 96.9285 61.6754 102.549 64.8182C105.403 66.4139 108.338 67.441 110.97 68.3616C113.592 69.2792 115.914 70.0915 117.574 71.2592C119.139 72.361 120.561 72.8371 121.828 72.8079C123.197 72.7765 124.39 72.1527 125.39 71.0908C126.429 69.9863 128.812 65.3071 130.688 60.3443C132.069 56.6948 133.172 52.8974 133.262 50.2665C133.264 50.2032 133.318 50.1527 133.381 50.1546C133.445 50.1565 133.495 50.2102 133.493 50.274C133.402 52.9336 132.292 56.7569 130.905 60.4255C129.018 65.4129 126.613 70.128 125.558 71.2488C124.516 72.3557 123.269 73.0058 121.833 73.0382C120.518 73.0689 119.048 72.58 117.44 71.4485C115.806 70.2983 113.498 69.4912 110.895 68.58C108.253 67.6554 105.308 66.6254 102.437 65.0197C96.6586 61.7893 97.6586 58.1608 97.662 58.1499Z" fill="#E19824"/>
<path fill-rule="evenodd" clip-rule="evenodd" d="M112.564 25.3782C111.824 25.6233 111.423 26.4215 111.669 27.1603C111.913 27.8996 112.711 28.3 113.45 28.0555C114.19 27.8102 114.59 27.0122 114.345 26.2731C114.1 25.5341 113.302 25.1334 112.564 25.3782Z" fill="#EA5153"/>
<path fill-rule="evenodd" clip-rule="evenodd" d="M110.544 22.834C110.041 22.7801 109.49 22.9109 109.155 23.315C109.077 23.4085 108.937 23.4218 108.844 23.344C108.75 23.2664 108.737 23.1264 108.814 23.0324C109.231 22.5295 109.962 22.3077 110.598 22.3956C110.719 22.4104 110.805 22.5213 110.79 22.6421C110.775 22.7632 110.664 22.8493 110.544 22.834Z" fill="#2B1535"/>
<path fill-rule="evenodd" clip-rule="evenodd" d="M110.163 24.0448C110.282 24.0025 110.406 24.0069 110.516 24.0472C110.549 24.0253 110.602 23.9786 110.613 23.8993C110.62 23.8541 110.662 23.8222 110.707 23.8285C110.752 23.8351 110.784 23.8773 110.778 23.9225C110.765 24.0151 110.719 24.0833 110.672 24.1304L110.678 24.1338C110.738 24.0951 110.803 24.0332 110.838 23.9363C110.854 23.8931 110.901 23.8703 110.944 23.8863C110.987 23.9013 111.01 23.9491 110.994 23.9924C110.955 24.1009 110.889 24.179 110.82 24.2341L110.821 24.235C110.894 24.2043 110.968 24.1553 111.03 24.0765C111.058 24.0402 111.11 24.0339 111.147 24.0622C111.183 24.0905 111.189 24.1429 111.16 24.1792C111.097 24.2604 111.024 24.317 110.95 24.3568L110.846 24.411L111.056 25.0055C111.151 25.2766 111.008 25.5763 110.737 25.6715C110.466 25.767 110.166 25.6237 110.071 25.3528L109.845 24.7106C109.749 24.4397 109.893 24.14 110.163 24.0448Z" fill="#2B1535"/>
<path fill-rule="evenodd" clip-rule="evenodd" d="M106.089 17.5298C106.079 17.4665 106.122 17.4076 106.185 17.3977C106.248 17.3877 106.307 17.4305 106.317 17.4934C106.321 17.5134 107.365 24.5558 115.048 21.8449C115.109 21.8239 115.175 21.8556 115.196 21.9155C115.218 21.9759 115.186 22.0421 115.126 22.0632C107.178 24.8671 106.093 17.5504 106.089 17.5298Z" fill="#451E56"/>
<path fill-rule="evenodd" clip-rule="evenodd" d="M114.954 22.4038C115.148 18.5061 120.331 21.7169 117.397 24.8234C117.397 24.8234 115.3 24.6653 114.954 22.4038Z" fill="#F89B6F"/>
<path fill-rule="evenodd" clip-rule="evenodd" d="M115.07 22.4092C115.066 22.4728 115.012 22.5221 114.948 22.5189C114.885 22.5163 114.835 22.4619 114.839 22.3983C114.888 21.3937 115.263 20.8332 115.753 20.6082C116.18 20.413 116.688 20.4746 117.146 20.7216C117.594 20.9635 117.996 21.3845 118.22 21.9128C118.573 22.7408 118.493 23.831 117.481 24.9023C117.437 24.9487 117.364 24.9511 117.318 24.9071C117.271 24.8636 117.269 24.7904 117.313 24.744C118.249 23.7524 118.328 22.7558 118.008 22.0034C117.805 21.5249 117.442 21.1438 117.036 20.9253C116.64 20.7117 116.206 20.6549 115.849 20.818C115.433 21.0089 115.114 21.5053 115.07 22.4092Z" fill="#EA5153"/>
<path fill-rule="evenodd" clip-rule="evenodd" d="M124.232 15.1277C124.207 15.0687 124.235 15.0011 124.294 14.9767C124.353 14.9522 124.421 14.98 124.445 15.039C124.452 15.0545 126.668 20.3672 130.068 22.4925C131.17 23.181 132.48 23.7963 133.787 24.4109C136.57 25.7178 139.34 27.0188 140.104 29.0148C140.127 29.0744 140.097 29.1414 140.037 29.1641C139.977 29.1866 139.91 29.1566 139.888 29.0969C139.156 27.1877 136.43 25.9066 133.689 24.6194C132.374 24.0015 131.055 23.3816 129.946 22.6887C126.483 20.5245 124.239 15.1432 124.232 15.1277Z" fill="#451E56"/>
<path fill-rule="evenodd" clip-rule="evenodd" d="M106.408 14.5649C106.622 14.2437 106.889 13.9255 107.212 13.6115C107.742 13.0975 108.416 12.5525 109.198 12.0397C113.816 17.2388 120.605 16.5945 124.771 15.5154C124.9 15.7859 125.022 16.0585 125.14 16.332C113.475 20.6894 108.384 17.0563 106.408 14.5649Z" fill="#562168"/>
<path fill-rule="evenodd" clip-rule="evenodd" d="M82.9737 36.6335H89.9049C90.4463 36.6335 90.89 37.0765 90.89 37.6178V41.8713C90.89 42.4131 90.4463 42.8561 89.9049 42.8561H87.601L86.6938 44.3238C86.6549 44.3864 86.5918 44.4212 86.5179 44.4212C86.4444 44.4212 86.3811 44.3864 86.3422 44.3238L85.4344 42.8561H82.9737C82.4321 42.8561 81.9884 42.4131 81.9884 41.8713V37.6178C81.9884 37.0765 82.4321 36.6335 82.9737 36.6335Z" fill="#F03562"/>
<path fill-rule="evenodd" clip-rule="evenodd" d="M84.7793 38.5559C85.1447 38.1909 85.7417 38.1909 86.1066 38.5559L86.4384 38.8877L86.7707 38.5559C87.1349 38.1909 87.7326 38.1909 88.0977 38.5559C88.4627 38.921 88.4627 39.518 88.0977 39.8831L87.7659 40.215L86.4384 41.5422L85.1114 40.215L84.7793 39.8831C84.4144 39.518 84.4144 38.921 84.7793 38.5559Z" fill="white"/>
<path fill-rule="evenodd" clip-rule="evenodd" d="M89.8462 26.3763H98.7821C99.4795 26.3763 100.051 26.9476 100.051 27.6456V33.1289C100.051 33.8266 99.4795 34.3982 98.7821 34.3982H95.8116L94.6422 36.2897C94.5924 36.3707 94.5107 36.4164 94.4155 36.4164C94.3205 36.4164 94.2388 36.3707 94.1891 36.2897L93.0189 34.3982H89.8462C89.148 34.3982 88.5771 33.8266 88.5771 33.1289V27.6456C88.5771 26.9476 89.148 26.3763 89.8462 26.3763Z" fill="#F03562"/>
<path fill-rule="evenodd" clip-rule="evenodd" d="M92.1747 28.8551C92.6453 28.3843 93.4157 28.3843 93.8863 28.8551L94.3138 29.2828L94.7416 28.8551C95.2121 28.3843 95.9821 28.3843 96.4524 28.8551C96.9229 29.3254 96.9229 30.0953 96.4524 30.5659L96.0248 30.9936L94.3138 32.7047L92.6023 30.9936L92.1747 30.5659C91.7044 30.0953 91.7044 29.3254 92.1747 28.8551Z" fill="white"/>
<path fill-rule="evenodd" clip-rule="evenodd" d="M74.583 29.163H81.1208C81.6315 29.163 82.0488 29.5809 82.0488 30.0915V34.1031C82.0488 34.6137 81.6315 35.0316 81.1208 35.0316H78.9477L78.0919 36.4159C78.0557 36.4749 77.9955 36.5082 77.9259 36.5082C77.8568 36.5082 77.7971 36.4749 77.7603 36.4159L76.9046 35.0316H74.583C74.0724 35.0316 73.6543 34.6137 73.6543 34.1031V30.0915C73.6543 29.5809 74.0724 29.163 74.583 29.163Z" fill="#F03562"/>
<path fill-rule="evenodd" clip-rule="evenodd" d="M76.287 30.976C76.6314 30.6318 77.1949 30.6318 77.5388 30.976L77.8521 31.2887L78.1648 30.976C78.5092 30.6318 79.0725 30.6318 79.4164 30.976C79.7613 31.3201 79.7613 31.8834 79.4164 32.2276L79.1037 32.5408L77.8521 33.7927L76.6002 32.5408L76.287 32.2276C75.9431 31.8834 75.9431 31.3201 76.287 30.976Z" fill="white"/>
<path fill-rule="evenodd" clip-rule="evenodd" d="M76.6067 9.55263H92.089C93.2981 9.55263 94.2883 10.542 94.2883 11.7519V21.2521C94.2883 22.4616 93.2981 23.4515 92.089 23.4515H86.9431L84.9164 26.7289C84.8294 26.869 84.6885 26.9481 84.5239 26.9481C84.3591 26.9481 84.2172 26.869 84.1307 26.7289L82.1043 23.4515H76.6067C75.3969 23.4515 74.4072 22.4616 74.4072 21.2521V11.7519C74.4072 10.542 75.3969 9.55263 76.6067 9.55263Z" fill="#F03562"/>
<path fill-rule="evenodd" clip-rule="evenodd" d="M80.6423 13.8464C81.4574 13.0312 82.7917 13.0312 83.6069 13.8464L84.3478 14.5876L85.0893 13.8464C85.9045 13.0312 87.2385 13.0312 88.0537 13.8464C88.8696 14.6618 88.8696 15.9958 88.0537 16.811L87.3124 17.5524L84.3478 20.517L81.3835 17.5524L80.6423 16.811C79.8271 15.9958 79.8271 14.6618 80.6423 13.8464Z" fill="white"/>
<path fill-rule="evenodd" clip-rule="evenodd" d="M13.6645 59.126C8.52093 56.8673 7.70576 62.7095 9.99071 67.3187C11.5368 70.437 17.1086 78.4217 20.8608 85.2139H25.1433C23.679 74.9382 18.9811 61.461 13.6645 59.126Z" fill="#88BCD0"/>
<path fill-rule="evenodd" clip-rule="evenodd" d="M23.6138 85.2139C19.9622 72.7646 11.5519 61.0325 11.5184 60.9852C11.4458 60.8834 11.3047 60.8597 11.2031 60.9325C11.1016 61.005 11.0783 61.1476 11.1507 61.2495C11.184 61.2964 19.5054 72.9062 23.1489 85.2139H23.6138Z" fill="#6293AC"/>
<path fill-rule="evenodd" clip-rule="evenodd" d="M24.5342 40.6659C29.7205 35.4979 33.2627 42.0499 32.5406 48.6327C31.8555 54.8734 25.868 76.2917 26.5841 85.2984L24.5405 85.3013C19.8929 73.7561 17.8945 47.2824 24.5342 40.6659Z" fill="#6293AC"/>
<path fill-rule="evenodd" clip-rule="evenodd" d="M25.2917 85.2994C20.9795 67.0997 27.9035 41.9255 27.9267 41.8402C27.969 41.6836 28.1282 41.5879 28.2822 41.6256C28.4361 41.6633 28.5263 41.8204 28.4842 41.9767C28.461 42.0623 21.5286 67.265 25.8829 85.2989L25.2917 85.2994Z" fill="#88BCD0"/>
<path fill-rule="evenodd" clip-rule="evenodd" d="M37.3002 52.0941C42.7371 49.455 43.7804 55.6648 41.47 60.6904C39.5555 64.8559 31.3913 77.0887 28.1468 85.0182L25.4514 84.9242C25.7516 73.8191 30.8823 55.2088 37.3002 52.0941Z" fill="#88BCD0"/>
<path fill-rule="evenodd" clip-rule="evenodd" d="M26.4362 84.9587C28.9058 70.0112 39.612 54.0458 39.6506 53.9875C39.7251 53.8752 39.8756 53.8442 39.9863 53.9172C40.0972 53.9914 40.1262 54.142 40.0516 54.2539C40.0131 54.3119 29.3759 70.1741 26.9152 84.9752L26.4362 84.9587Z" fill="#6293AC"/>
<path fill-rule="evenodd" clip-rule="evenodd" d="M27.7756 85.8808H21.328L19.6448 87.3997L21.0201 92.6962H24.5517H28.0835L29.4589 87.3997L27.7756 85.8808Z" fill="#451E56"/>
<path fill-rule="evenodd" clip-rule="evenodd" d="M27.2631 85.8804H21.328L19.6448 87.3994L20.16 89.3847L29.3427 87.8474L29.4589 87.3994L27.8426 85.9409L27.2631 85.8804Z" fill="#2B1535"/>
<path fill-rule="evenodd" clip-rule="evenodd" d="M29.4589 83.9095H19.6448C19.3514 83.9095 19.111 84.1498 19.111 84.4434V86.8667C19.111 87.1598 19.3514 87.4 19.6448 87.4H29.4589C29.7526 87.4 29.9926 87.1598 29.9926 86.8667V84.4434C29.9926 84.1498 29.7526 83.9095 29.4589 83.9095Z" fill="#451E56"/>
<path fill-rule="evenodd" clip-rule="evenodd" d="M10.9325 104.48C11.9029 104.48 12.6966 103.687 12.6966 102.716V102.57C12.6966 101.599 11.9029 100.806 10.9325 100.806C9.96251 100.806 9.16866 101.599 9.16866 102.57V102.716C9.16866 103.687 9.96251 104.48 10.9325 104.48ZM9.55468 92.5747H150.947C152.402 92.5747 153.593 93.7652 153.593 95.2205C153.593 96.6751 152.402 97.8661 150.947 97.8661H142.021C141.212 97.8661 140.551 98.5273 140.551 99.3359V99.3364C140.551 100.144 141.212 100.806 142.021 100.806H145.286C146.296 100.806 147.124 101.633 147.124 102.643C147.124 103.653 146.297 104.48 145.286 104.48H15.5077C14.4972 104.48 13.6704 103.653 13.6704 102.643C13.6704 101.633 14.4972 100.806 15.5077 100.806H18.08C18.8884 100.806 19.5499 100.145 19.5499 99.3364V99.3359C19.5499 98.5273 18.8884 97.8661 18.08 97.8661H9.55468C8.09945 97.8661 6.9093 96.6756 6.9093 95.2205C6.9093 93.7652 8.10039 92.5747 9.55468 92.5747Z" fill="#2B1535"/>
<path fill-rule="evenodd" clip-rule="evenodd" d="M135.452 15.11C134.915 15.235 134.369 15.4162 133.877 15.671C133.98 15.793 134.088 15.9114 134.201 16.0245C134.843 16.6662 135.632 17.1362 136.497 17.3929C136.252 17.0869 136.054 16.7341 135.896 16.388C135.71 15.9786 135.565 15.5465 135.452 15.11ZM142.214 15.671C141.721 15.4167 141.176 15.2352 140.639 15.11C140.526 15.5465 140.382 15.9786 140.195 16.388C140.037 16.7346 139.839 17.0869 139.594 17.3929C140.459 17.1362 141.248 16.6662 141.89 16.0245C142.003 15.9114 142.111 15.793 142.214 15.671ZM140.71 9.5414C141.282 9.40147 141.873 9.19653 142.386 8.90458C142.234 8.70375 142.068 8.51331 141.89 8.3352C141.248 7.69307 140.459 7.22302 139.594 6.96612C139.839 7.2728 140.037 7.62492 140.195 7.971C140.422 8.47054 140.589 9.00512 140.71 9.5414ZM133.706 8.90458C134.219 9.19653 134.809 9.40147 135.38 9.5414C135.502 9.00512 135.668 8.47054 135.896 7.971C136.054 7.62492 136.252 7.2728 136.497 6.96612C135.632 7.22302 134.843 7.69307 134.201 8.3352C134.023 8.51331 133.857 8.70375 133.706 8.90458ZM137.721 9.84324V6.80154C137.143 7.01107 136.717 7.73295 136.486 8.23998C136.278 8.69578 136.127 9.18516 136.015 9.67552C136.577 9.77461 137.15 9.8285 137.721 9.84324ZM137.721 17.5577V14.8261C137.174 14.8403 136.627 14.8901 136.088 14.9812C136.19 15.3698 136.319 15.7546 136.486 16.1195C136.717 16.627 137.143 17.3479 137.721 17.5577ZM138.371 14.8261V17.5577C138.948 17.3479 139.374 16.6268 139.605 16.1195C139.771 15.7546 139.901 15.3698 140.003 14.9812C139.464 14.8901 138.916 14.8403 138.371 14.8261ZM138.371 6.80154V9.84324C138.941 9.8285 139.514 9.77461 140.076 9.67552C139.965 9.18516 139.813 8.69578 139.605 8.23998C139.374 7.73295 138.948 7.01107 138.371 6.80154ZM140.988 11.8547H143.473C143.423 11.0045 143.175 10.1821 142.747 9.44618C142.162 9.78621 141.489 10.0211 140.835 10.1794C140.925 10.7326 140.975 11.2942 140.988 11.8547ZM140.199 10.3123C139.596 10.4199 138.982 10.4774 138.371 10.4926V11.8547H140.339C140.326 11.339 140.281 10.822 140.199 10.3123ZM135.892 10.3123C135.81 10.822 135.765 11.3385 135.752 11.8547H137.721V10.4926C137.109 10.4774 136.495 10.4199 135.892 10.3123ZM132.618 11.8547H135.102C135.116 11.2942 135.166 10.7326 135.256 10.1794C134.6 10.0209 133.926 9.78549 133.345 9.44618C132.916 10.1821 132.668 11.0045 132.618 11.8547ZM135.102 12.5043H132.618C132.674 13.4464 132.971 14.3526 133.486 15.1434C134.052 14.8374 134.686 14.6228 135.309 14.4771C135.185 13.8282 135.119 13.1646 135.102 12.5043ZM137.721 12.5043H135.752C135.767 13.1208 135.829 13.7414 135.945 14.3476C136.531 14.2461 137.126 14.1907 137.721 14.1764V12.5043ZM140.339 12.5043H138.371V14.1764C138.965 14.1907 139.56 14.2461 140.147 14.3476C140.262 13.7412 140.323 13.1208 140.339 12.5043ZM143.473 12.5043H140.989C140.973 13.1646 140.907 13.8282 140.782 14.4771C141.405 14.6228 142.039 14.8374 142.604 15.1434C143.12 14.3526 143.417 13.4464 143.473 12.5043ZM138.046 6.09344C139.665 6.09344 141.204 6.73097 142.349 7.87602C143.494 9.02083 144.132 10.5603 144.132 12.1797C144.132 13.7992 143.494 15.3382 142.349 16.4832C141.204 17.6285 139.665 18.2663 138.046 18.2663C136.426 18.2663 134.887 17.6285 133.742 16.4832C132.597 15.3382 131.959 13.7992 131.959 12.1797C131.959 10.5603 132.597 9.02083 133.742 7.87602C134.887 6.73097 136.426 6.09344 138.046 6.09344Z" fill="white"/>
<path fill-rule="evenodd" clip-rule="evenodd" d="M19.0117 31.8805H17.5043C17.4802 31.8805 17.4596 31.8875 17.4466 31.8991L17.4369 31.9092C17.4195 31.9269 17.4089 31.9508 17.4089 31.9759V36.7359C17.4089 36.7615 17.4195 36.7852 17.4369 36.8034C17.4553 36.821 17.479 36.8314 17.5043 36.8314H19.0117C19.0356 36.8314 19.0556 36.8251 19.0685 36.8142L19.0786 36.8034C19.0965 36.7855 19.1071 36.7611 19.1071 36.7359V31.9759C19.1071 31.9505 19.0962 31.9264 19.0784 31.9085C19.0605 31.8909 19.0368 31.8805 19.0117 31.8805ZM19.9496 35.9012C20.3295 36.2842 20.9675 36.7872 21.5098 36.7872H24.8258C25.308 36.7872 25.7005 36.4582 25.7921 35.9826C25.8184 35.8562 25.9006 35.7492 26.0161 35.6912C26.3223 35.5382 26.3315 35.0348 26.2872 34.754C26.2524 34.5923 26.3165 34.427 26.4501 34.3284C26.8501 34.034 26.7145 33.3941 26.5434 33.0142C26.4917 32.9192 26.4799 32.8109 26.5079 32.7065C26.5485 32.5562 26.5792 32.3947 26.5792 32.2386C26.5792 32.1011 26.5545 31.9491 26.4603 31.8423C26.3813 31.7519 26.2616 31.6997 26.1476 31.669C26.0202 31.6344 25.8832 31.6221 25.7515 31.6221H23.9425C23.5389 31.6221 23.2119 31.4892 23.0476 31.0931C22.8586 30.6368 23.035 29.9509 23.175 29.5038C23.2419 29.2895 23.2777 29.0669 23.2782 28.8421C23.2786 28.5248 23.2045 28.1981 23.0469 27.9211C22.9983 27.8344 22.862 27.6289 22.7578 27.585H22.4765C22.4664 28.134 22.4284 28.7022 22.281 29.2288C22.0836 29.9321 21.707 30.4872 21.0524 30.8396C20.4283 31.1757 20.0562 31.9914 19.9496 32.6695V35.9012ZM19.5721 31.2253C19.8261 30.7598 20.1792 30.3538 20.6533 30.0986C21.0973 29.8596 21.3375 29.477 21.4704 29.0016C21.6307 28.4296 21.6374 27.7549 21.6374 27.1635C21.6374 26.931 21.8262 26.7422 22.0587 26.7422H22.7801C22.8535 26.7422 22.9268 26.7551 22.9969 26.7768C23.3301 26.8812 23.6126 27.2121 23.7792 27.5057C24.0073 27.9088 24.1194 28.3803 24.1202 28.8421C24.1204 29.1522 24.0709 29.4589 23.9788 29.7542C23.9145 29.9592 23.7373 30.5578 23.8195 30.7625C23.8405 30.777 23.9181 30.7796 23.9425 30.7796H25.7515C25.9576 30.7796 26.1666 30.8021 26.3658 30.8558C26.6454 30.9309 26.9001 31.0684 27.093 31.2879C27.3276 31.5552 27.4219 31.8872 27.4219 32.2386C27.4219 32.4208 27.3965 32.604 27.3566 32.7819C27.6174 33.4538 27.6696 34.2892 27.1401 34.839C27.1732 35.3944 27.0359 36.0003 26.5647 36.3389C26.3078 37.1224 25.6782 37.6299 24.8258 37.6299H21.5098C20.9436 37.6299 20.3774 37.33 19.9167 36.9822C19.8737 37.139 19.7894 37.2838 19.669 37.4042L19.6545 37.4177C19.4803 37.5823 19.2514 37.6741 19.0117 37.6741H17.5043C17.2552 37.6741 17.0176 37.5753 16.8412 37.3988C16.6653 37.2227 16.5664 36.9853 16.5664 36.7359V31.9759C16.5664 31.7268 16.6653 31.4892 16.8475 31.3072L16.8617 31.2949C17.0355 31.1301 17.2648 31.0377 17.5043 31.0377H19.0117C19.2156 31.0377 19.4111 31.1047 19.5721 31.2253Z" fill="white"/>
<path fill-rule="evenodd" clip-rule="evenodd" d="M44.536 13.4381H45.9048C46.2342 13.4381 46.5032 13.1691 46.5032 12.8392V11.4702C46.5032 11.141 46.2342 10.8715 45.9048 10.8715H44.536C44.2064 10.8715 43.9371 11.141 43.9371 11.4702V12.8392C43.9371 13.1691 44.2064 13.4381 44.536 13.4381Z" fill="white"/>
<path fill-rule="evenodd" clip-rule="evenodd" d="M49.2832 13.4381H50.652C50.9817 13.4381 51.2507 13.1691 51.2507 12.8392V11.4702C51.2507 11.141 50.9817 10.8715 50.652 10.8715H49.2832C48.9536 10.8715 48.6843 11.141 48.6843 11.4702V12.8392C48.6843 13.1691 48.9536 13.4381 49.2832 13.4381Z" fill="#C3B3DC"/>
<path fill-rule="evenodd" clip-rule="evenodd" d="M54.0306 13.4381H55.3997C55.7291 13.4381 55.9983 13.1691 55.9983 12.8392V11.4702C55.9983 11.141 55.7291 10.8715 55.3997 10.8715H54.0306C53.701 10.8715 53.432 11.141 53.432 11.4702V12.8392C53.432 13.1691 53.701 13.4381 54.0306 13.4381Z" fill="#C3B3DC"/>
<path fill-rule="evenodd" clip-rule="evenodd" d="M58.7787 13.4381H60.1475C60.4774 13.4381 60.7466 13.1691 60.7466 12.8392V11.4702C60.7466 11.141 60.4774 10.8715 60.1475 10.8715H58.7787C58.4495 10.8715 58.1798 11.141 58.1798 11.4702V12.8392C58.1798 13.1691 58.4495 13.4381 58.7787 13.4381Z" fill="#C3B3DC"/>
<path fill-rule="evenodd" clip-rule="evenodd" d="M63.5265 13.4381H64.8953C65.2247 13.4381 65.4942 13.1691 65.4942 12.8392V11.4702C65.4942 11.141 65.2247 10.8715 64.8953 10.8715H63.5265C63.1968 10.8715 62.9276 11.141 62.9276 11.4702V12.8392C62.9276 13.1691 63.1968 13.4381 63.5265 13.4381Z" fill="white"/>
<path fill-rule="evenodd" clip-rule="evenodd" d="M68.2743 13.4381H69.6431C69.9728 13.4381 70.242 13.1691 70.242 12.8392V11.4702C70.242 11.141 69.9728 10.8715 69.6431 10.8715H68.2743C67.9449 10.8715 67.6754 11.141 67.6754 11.4702V12.8392C67.6754 13.1691 67.9449 13.4381 68.2743 13.4381Z" fill="#C3B3DC"/>
<path fill-rule="evenodd" clip-rule="evenodd" d="M54.2029 8.2616H55.572C55.9016 8.2616 56.1706 7.99237 56.1706 7.66272V6.29364C56.1706 5.96424 55.9016 5.69527 55.572 5.69527H54.2029C53.8732 5.69527 53.6042 5.96424 53.6042 6.29364V7.66272C53.6042 7.99237 53.8732 8.2616 54.2029 8.2616Z" fill="#C3B3DC"/>
<path fill-rule="evenodd" clip-rule="evenodd" d="M58.9503 8.2616H60.3191C60.649 8.2616 60.918 7.99237 60.918 7.66272V6.29364C60.918 5.96424 60.649 5.69527 60.3191 5.69527H58.9503C58.6209 5.69527 58.3514 5.96424 58.3514 6.29364V7.66272C58.3514 7.99237 58.6209 8.2616 58.9503 8.2616Z" fill="white"/>
<path fill-rule="evenodd" clip-rule="evenodd" d="M63.6982 8.2616H65.0671C65.397 8.2616 65.6659 7.99237 65.6659 7.66272V6.29364C65.6659 5.96424 65.397 5.69527 65.0671 5.69527H63.6982C63.3688 5.69527 63.0999 5.96424 63.0999 6.29364V7.66272C63.0999 7.99237 63.3688 8.2616 63.6982 8.2616Z" fill="#C3B3DC"/>
<path fill-rule="evenodd" clip-rule="evenodd" d="M58.7787 18.9977H60.1475C60.4774 18.9977 60.7464 18.7288 60.7464 18.3994V17.03C60.7464 16.7004 60.4774 16.4314 60.1475 16.4314H58.7787C58.4493 16.4314 58.1798 16.7004 58.1798 17.03V18.3994C58.1798 18.7288 58.4493 18.9977 58.7787 18.9977Z" fill="white"/>
<path fill-rule="evenodd" clip-rule="evenodd" d="M63.5265 18.9977H64.8953C65.2247 18.9977 65.4942 18.7288 65.4942 18.3994V17.03C65.4942 16.7004 65.2247 16.4314 64.8953 16.4314H63.5265C63.1968 16.4314 62.9276 16.7004 62.9276 17.03V18.3994C62.9276 18.7288 63.1968 18.9977 63.5265 18.9977Z" fill="#C3B3DC"/>
<path fill-rule="evenodd" clip-rule="evenodd" d="M91.1729 82.8942C91.7462 82.3212 92.6834 82.3217 93.2566 82.8942L93.3978 83.0353L93.5394 82.8942C94.1119 82.3217 95.0491 82.3212 95.6224 82.8942C96.1951 83.4667 96.1951 84.4047 95.6224 84.9772L95.4808 85.1188L93.3978 87.2018L91.3148 85.1188L91.1729 84.9772C90.6004 84.4047 90.6004 83.4667 91.1729 82.8942Z" fill="#C3B3DC"/>
<path fill-rule="evenodd" clip-rule="evenodd" d="M55.5017 40.6493C56.6443 40.6493 57.5757 39.7172 57.5757 38.575C57.5757 37.4326 56.6443 36.5007 55.5017 36.5007C54.3593 36.5007 53.4276 37.4326 53.4276 38.575C53.4276 39.7172 54.3593 40.6493 55.5017 40.6493Z" fill="white"/>
<path fill-rule="evenodd" clip-rule="evenodd" d="M55.5016 41.3068C57.1194 41.3068 58.443 42.6299 58.443 44.2477V45.5121V46.2838V47.1164C58.443 47.2976 58.2949 47.4458 58.1138 47.4458H52.8896C52.7086 47.4458 52.5607 47.2976 52.5607 47.1164V46.2838V45.5121V44.2477C52.5607 42.6299 53.8841 41.3068 55.5016 41.3068Z" fill="white"/>
<path fill-rule="evenodd" clip-rule="evenodd" d="M143.542 51.549C144.115 50.9765 145.052 50.9765 145.625 51.549L145.767 51.6909L145.908 51.549C146.481 50.9765 147.418 50.9765 147.991 51.549C148.564 52.1225 148.564 53.0597 147.991 53.633L147.85 53.7741L145.767 55.8571L143.683 53.7741L143.542 53.633C142.969 53.0597 142.969 52.1225 143.542 51.549Z" fill="#C3B3DC"/>
<path fill-rule="evenodd" clip-rule="evenodd" d="M96.9668 16.3732C97.5393 15.8004 98.4773 15.8004 99.0498 16.3732L99.1917 16.5148L99.3325 16.3732C99.9058 15.8004 100.843 15.8004 101.416 16.3732C101.989 16.9462 101.989 17.8837 101.416 18.4562L101.274 18.5976L99.1917 20.681L97.1079 18.5976L96.9668 18.4562C96.3936 17.8837 96.3936 16.9462 96.9668 16.3732Z" fill="#C3B3DC"/>
<path fill-rule="evenodd" clip-rule="evenodd" d="M71.104 25.0917C71.4303 24.7657 71.9639 24.7657 72.2904 25.0917L72.3706 25.1722L72.4511 25.0917C72.7774 24.7657 73.3107 24.7657 73.6372 25.0917C73.963 25.4178 73.963 25.9516 73.6372 26.2779L73.5565 26.3584L72.3706 27.544L71.1845 26.3584L71.104 26.2779C70.778 25.9516 70.778 25.4178 71.104 25.0917Z" fill="#C3B3DC"/>
<path fill-rule="evenodd" clip-rule="evenodd" d="M95.2718 41.0301C95.9021 40.4003 96.9328 40.4003 97.5631 41.0301L97.718 41.1855L97.8739 41.0301C98.5037 40.4003 99.5342 40.4003 100.164 41.0301C100.794 41.6597 100.794 42.6906 100.164 43.3207L100.009 43.4758L97.718 45.7669L95.4277 43.4758L95.2718 43.3207C94.6425 42.6906 94.6425 41.6597 95.2718 41.0301Z" fill="#C3B3DC"/>
<path fill-rule="evenodd" clip-rule="evenodd" d="M36.5278 78.5891H37.8969C38.2265 78.5891 38.4955 78.3201 38.4955 77.9907V76.6213C38.4955 76.2917 38.2265 76.0232 37.8969 76.0232H36.5278C36.1984 76.0232 35.9292 76.2917 35.9292 76.6213V77.9907C35.9292 78.3201 36.1984 78.5891 36.5278 78.5891Z" fill="white"/>
<path fill-rule="evenodd" clip-rule="evenodd" d="M41.2759 78.5891H42.6445C42.9741 78.5891 43.2433 78.3201 43.2433 77.9907V76.6213C43.2433 76.2917 42.9741 76.0232 42.6445 76.0232H41.2759C40.946 76.0232 40.677 76.2917 40.677 76.6213V77.9907C40.677 78.3201 40.946 78.5891 41.2759 78.5891Z" fill="#C3B3DC"/>
<path fill-rule="evenodd" clip-rule="evenodd" d="M46.0229 78.5891H47.392C47.7212 78.5891 47.9904 78.3201 47.9904 77.9907V76.6213C47.9904 76.2917 47.7212 76.0232 47.392 76.0232H46.0229C45.6933 76.0232 45.4241 76.2917 45.4241 76.6213V77.9907C45.4241 78.3201 45.6933 78.5891 46.0229 78.5891Z" fill="#C3B3DC"/>
<path fill-rule="evenodd" clip-rule="evenodd" d="M50.7705 78.5891H52.1396C52.469 78.5891 52.7387 78.3201 52.7387 77.9907V76.6213C52.7387 76.2917 52.469 76.0232 52.1396 76.0232H50.7705C50.4416 76.0232 50.1719 76.2917 50.1719 76.6213V77.9907C50.1719 78.3201 50.4416 78.5891 50.7705 78.5891Z" fill="#C3B3DC"/>
<path fill-rule="evenodd" clip-rule="evenodd" d="M55.5181 78.5891H56.8874C57.2168 78.5891 57.4858 78.3201 57.4858 77.9907V76.6213C57.4858 76.2917 57.2168 76.0232 56.8874 76.0232H55.5181C55.1887 76.0232 54.9197 76.2917 54.9197 76.6213V77.9907C54.9197 78.3201 55.1887 78.5891 55.5181 78.5891Z" fill="white"/>
<path fill-rule="evenodd" clip-rule="evenodd" d="M60.2663 78.5891H61.6352C61.9646 78.5891 62.2336 78.3201 62.2336 77.9907V76.6213C62.2336 76.2917 61.9646 76.0232 61.6352 76.0232H60.2663C59.9365 76.0232 59.6675 76.2917 59.6675 76.6213V77.9907C59.6675 78.3201 59.9365 78.5891 60.2663 78.5891Z" fill="#C3B3DC"/>
<path fill-rule="evenodd" clip-rule="evenodd" d="M46.1952 73.4125H47.5643C47.8934 73.4125 48.1626 73.1436 48.1626 72.8146V71.4453C48.1626 71.1157 47.8934 70.8462 47.5643 70.8462H46.1952C45.8655 70.8462 45.5963 71.1157 45.5963 71.4453V72.8146C45.5963 73.1436 45.8655 73.4125 46.1952 73.4125Z" fill="#C3B3DC"/>
<path fill-rule="evenodd" clip-rule="evenodd" d="M50.9427 73.4125H52.3118C52.6412 73.4125 52.9104 73.1436 52.9104 72.8146V71.4453C52.9104 71.1157 52.6412 70.8462 52.3118 70.8462H50.9427C50.6131 70.8462 50.3441 71.1157 50.3441 71.4453V72.8146C50.3441 73.1436 50.6131 73.4125 50.9427 73.4125Z" fill="white"/>
<path fill-rule="evenodd" clip-rule="evenodd" d="M55.6902 73.4125H57.059C57.3887 73.4125 57.6579 73.1436 57.6579 72.8146V71.4453C57.6579 71.1157 57.3887 70.8462 57.059 70.8462H55.6902C55.3605 70.8462 55.0913 71.1157 55.0913 71.4453V72.8146C55.0913 73.1436 55.3605 73.4125 55.6902 73.4125Z" fill="#C3B3DC"/>
<path fill-rule="evenodd" clip-rule="evenodd" d="M50.7705 84.1494H52.1396C52.469 84.1494 52.7385 83.8799 52.7385 83.5505V82.1819C52.7385 81.852 52.469 81.583 52.1396 81.583H50.7705C50.4409 81.583 50.1719 81.852 50.1719 82.1819V83.5505C50.1719 83.8799 50.4409 84.1494 50.7705 84.1494Z" fill="white"/>
<path fill-rule="evenodd" clip-rule="evenodd" d="M55.5181 84.1494H56.8874C57.2168 84.1494 57.4858 83.8799 57.4858 83.5505V82.1819C57.4858 81.852 57.2168 81.583 56.8874 81.583H55.5181C55.1887 81.583 54.9197 81.852 54.9197 82.1819V83.5505C54.9197 83.8799 55.1887 84.1494 55.5181 84.1494Z" fill="#C3B3DC"/>
<path fill-rule="evenodd" clip-rule="evenodd" d="M44.2149 26.7335C44.3285 26.6199 44.5127 26.6199 44.626 26.7335C44.7399 26.8471 44.7399 27.031 44.626 27.1443L43.7019 28.0687C43.5883 28.1823 43.4044 28.1823 43.2905 28.0687C43.1772 27.9554 43.1772 27.7712 43.2905 27.6579L44.2149 26.7335ZM45.2761 28.7142C45.4368 28.7142 45.5669 28.8442 45.5669 29.0047C45.5669 29.1652 45.4368 29.2952 45.2761 29.2952H43.9692C43.8087 29.2952 43.6784 29.1652 43.6784 29.0047C43.6784 28.8442 43.8087 28.7142 43.9692 28.7142H45.2761ZM44.626 30.8651C44.7399 30.9785 44.7399 31.1629 44.626 31.2762C44.5127 31.3898 44.3285 31.3898 44.2149 31.2762L43.2905 30.3518C43.1772 30.2385 43.1772 30.0543 43.2905 29.941C43.4044 29.8274 43.5883 29.8274 43.7019 29.941L44.626 30.8651ZM42.6453 31.9263C42.6453 32.0868 42.515 32.217 42.3548 32.217C42.1943 32.217 42.0643 32.0868 42.0643 31.9263V30.6193C42.0643 30.4586 42.1943 30.3286 42.3548 30.3286C42.515 30.3286 42.6453 30.4586 42.6453 30.6193V31.9263ZM40.4944 31.2762C40.3808 31.3898 40.1969 31.3898 40.0835 31.2762C39.9699 31.1629 39.9699 30.9785 40.0835 30.8651L41.0079 29.941C41.121 29.8274 41.3054 29.8274 41.4185 29.941C41.5324 30.0543 41.5324 30.2385 41.4185 30.3518L40.4944 31.2762ZM39.4334 29.2952C39.2727 29.2952 39.1425 29.1652 39.1425 29.0047C39.1425 28.8442 39.2727 28.7142 39.4334 28.7142H40.7404C40.9006 28.7142 41.0306 28.8442 41.0306 29.0047C41.0306 29.1652 40.9006 29.2952 40.7404 29.2952H39.4334ZM40.0835 27.1443C39.9699 27.031 39.9699 26.8471 40.0835 26.7335C40.1969 26.6199 40.3808 26.6199 40.4944 26.7335L41.4185 27.6579C41.5324 27.7712 41.5324 27.9554 41.4185 28.0687C41.3054 28.1823 41.121 28.1823 41.0079 28.0687L40.0835 27.1443ZM42.0643 26.0834C42.0643 25.9227 42.1943 25.7924 42.3548 25.7924C42.515 25.7924 42.6453 25.9227 42.6453 26.0834V27.3906C42.6453 27.5508 42.515 27.6813 42.3548 27.6813C42.1943 27.6813 42.0643 27.5508 42.0643 27.3906V26.0834Z" fill="white"/>
<path fill-rule="evenodd" clip-rule="evenodd" d="M11.2969 77.864C11.4102 77.7512 11.5943 77.7512 11.7076 77.864C11.8213 77.9778 11.8213 78.1615 11.7076 78.2751L10.7833 79.1995C10.67 79.3131 10.4859 79.3131 10.3726 79.1995C10.2589 79.0866 10.2589 78.902 10.3726 78.7882L11.2969 77.864ZM12.3581 79.8453C12.5184 79.8453 12.6486 79.9755 12.6486 80.1355C12.6486 80.2965 12.5184 80.4267 12.3581 80.4267H11.0507C10.8903 80.4267 10.7603 80.2965 10.7603 80.1355C10.7603 79.9755 10.8903 79.8453 11.0507 79.8453H12.3581ZM11.7076 81.9962C11.8213 82.11 11.8213 82.2939 11.7076 82.4072C11.5943 82.5206 11.4102 82.5206 11.2969 82.4072L10.3726 81.4831C10.2589 81.3693 10.2589 81.1856 10.3726 81.072C10.4859 80.9582 10.67 80.9582 10.7833 81.072L11.7076 81.9962ZM9.72725 83.0573C9.72725 83.2173 9.59658 83.3476 9.4363 83.3476C9.27581 83.3476 9.14591 83.2173 9.14591 83.0573V81.7496C9.14591 81.5897 9.27581 81.4594 9.4363 81.4594C9.59658 81.4594 9.72725 81.5897 9.72725 81.7496V83.0573ZM7.57587 82.4072C7.4626 82.5206 7.27842 82.5206 7.16503 82.4072C7.05147 82.2939 7.05147 82.11 7.16503 81.9962L8.08943 81.072C8.20273 80.9582 8.38691 80.9582 8.50018 81.072C8.61384 81.1856 8.61384 81.3693 8.50018 81.4831L7.57587 82.4072ZM6.51488 80.4267C6.35438 80.4267 6.22412 80.2965 6.22412 80.1355C6.22412 79.9755 6.35438 79.8453 6.51488 79.8453H7.8219C7.98246 79.8453 8.11265 79.9755 8.11265 80.1355C8.11265 80.2965 7.98246 80.4267 7.8219 80.4267H6.51488ZM7.16503 78.2751C7.05147 78.1615 7.05147 77.9778 7.16503 77.864C7.27842 77.7512 7.4626 77.7512 7.57587 77.864L8.50018 78.7882C8.61384 78.902 8.61384 79.0866 8.50018 79.1995C8.38691 79.3131 8.20273 79.3131 8.08943 79.1995L7.16503 78.2751ZM9.14591 77.2142C9.14591 77.0542 9.27581 76.9239 9.4363 76.9239C9.59658 76.9239 9.72725 77.0542 9.72725 77.2142V78.5211C9.72725 78.6821 9.59658 78.8119 9.4363 78.8119C9.27581 78.8119 9.14591 78.6821 9.14591 78.5211V77.2142Z" fill="white"/>
<path fill-rule="evenodd" clip-rule="evenodd" d="M72.5794 45.2612C72.693 45.1481 72.8772 45.1481 72.9905 45.2612C73.1041 45.3748 73.1041 45.5585 72.9905 45.6723L72.0661 46.5965C71.9528 46.7103 71.7686 46.7103 71.655 46.5965C71.5417 46.4831 71.5417 46.2992 71.655 46.1854L72.5794 45.2612ZM73.6406 47.242C73.8013 47.242 73.9316 47.3723 73.9316 47.5325C73.9316 47.6932 73.8013 47.8235 73.6406 47.8235H72.3337C72.1732 47.8235 72.0429 47.6932 72.0429 47.5325C72.0429 47.3723 72.1732 47.242 72.3337 47.242H73.6406ZM72.9905 49.3934C73.1041 49.5062 73.1041 49.6909 72.9905 49.8045C72.8772 49.9176 72.693 49.9176 72.5794 49.8045L71.655 48.8801C71.5417 48.7665 71.5417 48.5818 71.655 48.469C71.7686 48.3554 71.9528 48.3554 72.0661 48.469L72.9905 49.3934ZM71.0098 50.4543C71.0098 50.6143 70.8795 50.7446 70.7193 50.7446C70.5588 50.7446 70.4288 50.6143 70.4288 50.4543V49.1469C70.4288 48.9866 70.5588 48.8564 70.7193 48.8564C70.8795 48.8564 71.0098 48.9866 71.0098 49.1469V50.4543ZM68.8586 49.8045C68.7455 49.9176 68.5611 49.9176 68.448 49.8045C68.3342 49.6909 68.3342 49.5062 68.448 49.3934L69.3722 48.469C69.4855 48.3554 69.6697 48.3554 69.783 48.469C69.8966 48.5818 69.8966 48.7665 69.783 48.8801L68.8586 49.8045ZM67.7977 47.8235C67.6372 47.8235 67.507 47.6932 67.507 47.5325C67.507 47.3723 67.6372 47.242 67.7977 47.242H69.1047C69.2651 47.242 69.3954 47.3723 69.3954 47.5325C69.3954 47.6932 69.2651 47.8235 69.1047 47.8235H67.7977ZM68.448 45.6723C68.3342 45.5585 68.3342 45.3748 68.448 45.2612C68.5611 45.1481 68.7455 45.1481 68.8586 45.2612L69.783 46.1854C69.8966 46.2992 69.8966 46.4831 69.783 46.5965C69.6697 46.7103 69.4855 46.7103 69.3722 46.5965L68.448 45.6723ZM70.4288 44.6111C70.4288 44.4511 70.5588 44.3202 70.7193 44.3202C70.8795 44.3202 71.0098 44.4511 71.0098 44.6111V45.9181C71.0098 46.0791 70.8795 46.2091 70.7193 46.2091C70.5588 46.2091 70.4288 46.0791 70.4288 45.9181V44.6111Z" fill="white"/>
<path fill-rule="evenodd" clip-rule="evenodd" d="M106.408 5.05952C106.521 4.94617 106.705 4.94617 106.819 5.05952C106.932 5.17334 106.932 5.35702 106.819 5.47061L105.894 6.39501C105.781 6.5086 105.597 6.5086 105.483 6.39501C105.37 6.28142 105.37 6.09726 105.483 5.98392L106.408 5.05952ZM107.469 7.04052C107.63 7.04052 107.759 7.17054 107.759 7.33101C107.759 7.49148 107.63 7.62174 107.469 7.62174H106.162C106.001 7.62174 105.871 7.49148 105.871 7.33101C105.871 7.17054 106.001 7.04052 106.162 7.04052H107.469ZM106.819 9.19141C106.932 9.305 106.932 9.48891 106.819 9.60226C106.705 9.71585 106.521 9.71585 106.408 9.60226L105.483 8.67834C105.37 8.56451 105.37 8.38036 105.483 8.26701C105.597 8.15391 105.781 8.15391 105.894 8.26701L106.819 9.19141ZM104.838 10.2528C104.838 10.4128 104.708 10.5433 104.548 10.5433C104.387 10.5433 104.257 10.4128 104.257 10.2528V8.94539C104.257 8.78516 104.387 8.65489 104.548 8.65489C104.708 8.65489 104.838 8.78516 104.838 8.94539V10.2528ZM102.687 9.60226C102.574 9.71585 102.39 9.71585 102.276 9.60226C102.163 9.48891 102.163 9.305 102.276 9.19141L103.2 8.26701C103.314 8.15391 103.498 8.15391 103.611 8.26701C103.725 8.38036 103.725 8.56451 103.611 8.67834L102.687 9.60226ZM101.626 7.62174C101.466 7.62174 101.335 7.49148 101.335 7.33101C101.335 7.17054 101.466 7.04052 101.626 7.04052H102.933C103.094 7.04052 103.224 7.17054 103.224 7.33101C103.224 7.49148 103.094 7.62174 102.933 7.62174H101.626ZM102.276 5.47061C102.163 5.35702 102.163 5.17334 102.276 5.05952C102.39 4.94617 102.574 4.94617 102.687 5.05952L103.611 5.98392C103.725 6.09726 103.725 6.28142 103.611 6.39501C103.498 6.5086 103.314 6.5086 103.2 6.39501L102.276 5.47061ZM104.257 4.40965C104.257 4.24918 104.387 4.11892 104.548 4.11892C104.708 4.11892 104.838 4.24918 104.838 4.40965V5.71663C104.838 5.8771 104.708 6.00737 104.548 6.00737C104.387 6.00737 104.257 5.8771 104.257 5.71663V4.40965Z" fill="white"/>
<path fill-rule="evenodd" clip-rule="evenodd" d="M70.8631 67.8137C70.9767 67.7006 71.1609 67.7006 71.2742 67.8137C71.3878 67.9271 71.3878 68.1117 71.2742 68.2248L70.3498 69.1492C70.2365 69.2628 70.0523 69.2628 69.9387 69.1492C69.8254 69.0364 69.8254 68.8517 69.9387 68.7381L70.8631 67.8137ZM71.9243 69.7945C72.0848 69.7945 72.2151 69.9247 72.2151 70.0852C72.2151 70.2457 72.0848 70.376 71.9243 70.376H70.6174C70.4569 70.376 70.3266 70.2457 70.3266 70.0852C70.3266 69.9247 70.4569 69.7945 70.6174 69.7945H71.9243ZM71.2742 71.9459C71.3878 72.0597 71.3878 72.2431 71.2742 72.357C71.1609 72.4698 70.9767 72.4698 70.8631 72.357L69.9387 71.4328C69.8254 71.319 69.8254 71.1348 69.9387 71.0217C70.0523 70.9079 70.2365 70.9079 70.3498 71.0217L71.2742 71.9459ZM69.2935 73.0071C69.2935 73.1675 69.1632 73.2973 69.0027 73.2973C68.8423 73.2973 68.7125 73.1675 68.7125 73.0071V71.6994C68.7125 71.5389 68.8423 71.4091 69.0027 71.4091C69.1632 71.4091 69.2935 71.5389 69.2935 71.6994V73.0071ZM67.1423 72.357C67.029 72.4698 66.8448 72.4698 66.7317 72.357C66.6179 72.2431 66.6179 72.0597 66.7317 71.9459L67.6559 71.0217C67.7692 70.9079 67.9534 70.9079 68.0667 71.0217C68.1803 71.1348 68.1803 71.319 68.0667 71.4328L67.1423 72.357ZM66.0814 70.376C65.9209 70.376 65.7906 70.2457 65.7906 70.0852C65.7906 69.9247 65.9209 69.7945 66.0814 69.7945H67.3884C67.5486 69.7945 67.6788 69.9247 67.6788 70.0852C67.6788 70.2457 67.5486 70.376 67.3884 70.376H66.0814ZM66.7317 68.2248C66.6179 68.1117 66.6179 67.9271 66.7317 67.8137C66.8448 67.7006 67.029 67.7006 67.1423 67.8137L68.0667 68.7381C68.1803 68.8517 68.1803 69.0364 68.0667 69.1492C67.9534 69.2628 67.7692 69.2628 67.6559 69.1492L66.7317 68.2248ZM68.7125 67.1639C68.7125 67.0039 68.8423 66.8736 69.0027 66.8736C69.1632 66.8736 69.2935 67.0039 69.2935 67.1639V68.4704C69.2935 68.6313 69.1632 68.7616 69.0027 68.7616C68.8423 68.7616 68.7125 68.6313 68.7125 68.4704V67.1639Z" fill="#E6DAED"/>
</svg>
