<svg width="182" height="24" viewBox="0 0 182 24" fill="none" xmlns="http://www.w3.org/2000/svg">
<path d="M6.12695 1.41113L14.0371 1.10352C17.416 0.986328 19.6035 1.85547 20.5996 3.71094C20.9121 4.55078 21.0684 5.41992 21.0684 6.31836V7.13867C21.0684 8.01758 20.873 9.04297 20.4824 10.2148C20.5996 10.4004 20.6582 10.5518 20.6582 10.6689C20.3359 11.6357 20.082 12.2949 19.8965 12.6465V12.8223C20.0527 13.0176 20.2285 13.418 20.4238 14.0234C20.8926 14.7461 21.6152 15.0879 22.5918 15.0488H22.6504L22.9434 14.9756C23.0605 15.1221 23.1191 15.2979 23.1191 15.5029V16.0303C23.041 16.4111 23.002 16.626 23.002 16.6748V17.1436C23.002 17.3682 23.0801 17.793 23.2363 18.418C23.1973 18.4961 23.1777 18.5791 23.1777 18.667V18.7256C23.2559 18.9893 23.2949 19.1406 23.2949 19.1797V19.5312C23.2949 19.6777 22.9824 20.1807 22.3574 21.04C21.7129 21.665 21.2051 22.2119 20.834 22.6807H20.7168C19.916 22.6025 19.1543 22.5781 18.4316 22.6074L18.0215 22.5049L14.0371 22.666C13.3242 22.6953 12.4258 22.71 11.3418 22.71C11.2148 22.6611 10.6875 22.6025 9.75977 22.5342C7.79688 22.2998 6.13672 22.2119 4.7793 22.2705C4.05664 22.2998 3.19727 22.4121 2.20117 22.6074C2.12305 22.4512 2.08398 22.2363 2.08398 21.9629V20.3809C1.88867 18.7305 1.75195 17.7246 1.67383 17.3633C1.86914 16.9629 2.14258 16.7529 2.49414 16.7334C2.68945 16.6162 2.78711 16.5381 2.78711 16.499V15.0928C2.78711 15.0537 2.74805 14.8975 2.66992 14.624V13.4521C2.78711 12.6611 2.8457 12.1094 2.8457 11.7969C2.8457 11.2793 2.57227 10.9033 2.02539 10.6689L1.49805 10.6836C1.39062 10.6934 1.3125 10.5029 1.26367 10.1123V9.05762C1.26367 8.66699 1.22461 8.47168 1.14648 8.47168L1.20508 8.17871V7.76855L0.970703 6.49414C1.00977 6.41602 1.0293 6.33301 1.0293 6.24512C0.873047 6.00098 0.794922 5.83008 0.794922 5.73242C1 5.13672 1.29297 4.83398 1.67383 4.82422C2.54297 3.92578 3.14844 3.13965 3.49023 2.46582C3.56836 2.45605 3.80273 2.23145 4.19336 1.79199C4.96484 1.55762 5.60938 1.43066 6.12695 1.41113ZM6.06836 7.40234C6.06836 7.50977 6.14648 7.81738 6.30273 8.3252H6.36133C7.28906 7.16309 8.30469 6.18164 9.4082 5.38086C10.3945 4.61914 11.1562 3.80859 11.6934 2.94922C11.8105 2.69531 12.0254 2.37305 12.3379 1.98242C12.3379 1.9043 12.2988 1.87012 12.2207 1.87988L11.5176 1.90918C10.7754 3.03223 9.81836 4.08203 8.64648 5.05859C7.2793 6.15234 6.41992 6.93359 6.06836 7.40234ZM4.7793 5.62988C4.85742 5.90332 4.89648 6.11816 4.89648 6.27441H4.95508C6.5957 4.64355 7.57227 3.37402 7.88477 2.46582C7.94336 2.45605 8.00195 2.39258 8.06055 2.27539V2.2168C8.06055 2.13867 8.02148 2.09961 7.94336 2.09961C7.5625 2.11914 7.17188 2.54883 6.77148 3.38867C6.77148 3.52539 6.10742 4.2334 4.7793 5.5127V5.62988ZM5.18945 6.55273C5.31641 6.62109 5.41406 6.65527 5.48242 6.65527C5.49219 6.59668 6.9375 5.09277 9.81836 2.14355C9.81836 2.06543 9.7793 2.03125 9.70117 2.04102L8.88086 2.07031C8.56836 2.08008 8.33398 2.28516 8.17773 2.68555C7.71875 3.59375 6.91797 4.6582 5.77539 5.87891C5.38477 6.2207 5.18945 6.44531 5.18945 6.55273ZM5.7168 6.93359L5.83398 6.99219H5.95117C6.51758 6.44531 7.70898 5.41992 9.52539 3.91602C10.0625 3.32031 10.5508 2.71484 10.9902 2.09961C10.9902 2.02148 10.9512 1.98242 10.873 1.98242L10.4629 1.99707C10.2285 2.08496 8.64648 3.69141 5.7168 6.81641V6.93359ZM6.18555 9.55566C6.22461 9.63379 6.24414 9.69238 6.24414 9.73145L6.18555 10.0244C6.38086 10.0146 6.69336 9.69238 7.12305 9.05762C8.54883 7.2998 10.1699 5.64941 11.9863 4.10645C12.6016 3.47168 13.1875 2.7832 13.7441 2.04102V1.92383L13.4512 1.87988L13.2754 1.89453C12.7578 1.91406 12.1328 2.58301 11.4004 3.90137C10.8926 4.53613 9.7793 5.53711 8.06055 6.9043C6.84961 8.03711 6.24414 8.90137 6.24414 9.49707C6.20508 9.49707 6.18555 9.5166 6.18555 9.55566ZM6.18555 10.7275C6.26367 10.8545 6.30273 10.9717 6.30273 11.0791V11.3721L6.47852 11.3574C7.44531 9.94141 8.96875 8.35938 11.0488 6.61133C11.0488 6.55273 11.4785 6.18164 12.3379 5.49805C14.6035 3.32031 15.7363 2.12402 15.7363 1.90918L14.623 1.95312C14.4277 1.96289 14.3301 1.92871 14.3301 1.85059C14.1934 1.89941 13.9785 2.16309 13.6855 2.6416C12.1328 4.37988 11.0195 5.49805 10.3457 5.99609C8.65625 7.69531 7.26953 9.27246 6.18555 10.7275ZM4.60352 3.24219V3.94531C4.61328 4.02344 4.65234 4.05762 4.7207 4.04785H4.7793C5.29688 3.5791 5.72656 3.05664 6.06836 2.48047V2.30469L5.59961 2.31934C5.35547 2.3291 5.02344 2.63672 4.60352 3.24219ZM4.7207 4.63379V4.98535H4.7793C5.67773 4.30176 6.3418 3.57422 6.77148 2.80273C6.88867 2.59766 6.94727 2.43652 6.94727 2.31934V2.26074H6.88867C6.54688 2.28027 6.23438 2.58789 5.95117 3.18359C5.64844 3.61328 5.23828 4.09668 4.7207 4.63379ZM11.9277 6.27441V6.3916H12.0449C12.3574 6.38184 12.7285 6.38672 13.1582 6.40625C13.7441 6.04492 15.0527 4.70215 17.084 2.37793C17.084 2.25098 16.791 2.12891 16.2051 2.01172H16.0879C15.502 2.82227 14.1152 4.24316 11.9277 6.27441ZM13.5684 6.4502V6.56738C13.5977 6.68457 13.7539 6.73828 14.0371 6.72852C14.2324 6.47461 14.9941 5.7959 16.3223 4.69238C16.3223 4.52637 16.8887 3.88184 18.0215 2.75879V2.6416C17.875 2.6416 17.7188 2.58789 17.5527 2.48047H17.4355C15.7656 4.39453 14.4766 5.71777 13.5684 6.4502ZM14.2129 7.00684L14.5059 7.46094L14.4473 7.59277L14.5645 7.63672H14.6816L17.6699 5.11719C18.6465 4.07227 19.1348 3.48633 19.1348 3.35938V3.30078C19.1348 3.18359 18.8809 3.05664 18.373 2.91992C18.0996 2.98828 17.377 3.75977 16.2051 5.23438C15.043 6.11328 14.3789 6.7041 14.2129 7.00684ZM14.5059 8.51562H14.5645C15.5996 7.63672 16.9277 6.58691 18.5488 5.36621C19.0859 4.8877 19.4766 4.42383 19.7207 3.97461V3.85742C19.5742 3.63281 19.4766 3.52051 19.4277 3.52051C18.5293 4.76074 17.5918 5.71777 16.6152 6.3916C15.209 7.53418 14.5059 8.18359 14.5059 8.33984V8.51562ZM8.06055 14.7559V14.8145H8.17773C9.38867 13.9746 11.2637 12.4707 13.8027 10.3027C15.6484 8.94531 17.1914 7.67578 18.4316 6.49414C19.0566 5.53711 19.584 4.92676 20.0137 4.66309V4.37012L19.8965 4.38477C18.9492 5.42969 17.7969 6.41113 16.4395 7.3291C16.2832 7.53418 15.4434 8.23242 13.9199 9.42383C13.9102 9.47266 13.0703 10.2295 11.4004 11.6943C10.1309 12.8174 9.01758 13.8379 8.06055 14.7559ZM10.7559 13.2471L10.873 13.291H10.9316C11.7617 12.7441 12.9336 11.9189 14.4473 10.8154C14.8672 10.7959 16 9.92676 17.8457 8.20801C18.5781 7.24121 19.2617 6.45508 19.8965 5.84961L20.1895 5.83496L20.1309 5.01465H19.9551C19.7207 5.20996 19.291 5.75684 18.666 6.65527C18.4902 6.91895 17.416 7.86133 15.4434 9.48242C14.3594 10.2148 12.7969 11.4697 10.7559 13.2471ZM14.3887 11.4014V11.5771H14.4473C14.5938 11.4502 15.1406 11.1523 16.0879 10.6836C16.7031 10.2441 17.9141 9.12109 19.7207 7.31445C19.7793 7.31445 19.9355 7.23145 20.1895 7.06543V6.4209L20.248 6.12793L20.1309 6.06934H20.0723C19.7207 6.38184 19.0371 7.17285 18.0215 8.44238C16.8398 9.59473 15.6289 10.5811 14.3887 11.4014ZM6.36133 12.1338V12.3682L6.47852 12.8809H6.6543C6.6543 12.8027 8.09961 11.377 10.9902 8.60352L10.9316 8.31055V7.60742L10.9902 7.19727H10.9316C10.1211 7.67578 8.94922 8.81836 7.41602 10.625C6.71289 11.4258 6.36133 11.9287 6.36133 12.1338ZM14.916 11.665L14.7988 11.6211C14.7793 11.6211 14.0371 12.1973 12.5723 13.3496L12.6895 13.3936L13.9199 13.3496C15.9219 12.3438 17.0547 11.6357 17.3184 11.2256C17.3184 10.9521 17.5723 10.7666 18.0801 10.6689C18.7637 9.93652 19.1543 9.56543 19.252 9.55566L19.1934 9.45312V9.33594C19.1934 9.18945 19.4668 9.07715 20.0137 8.99902C20.0137 8.90137 20.0918 8.43262 20.248 7.59277C20.209 7.51465 20.1895 7.45605 20.1895 7.41699H20.1309C19.3789 8.05176 18.6758 8.72559 18.0215 9.43848C16.3516 10.9131 15.3164 11.6553 14.916 11.665ZM7.47461 12.5L7.5918 12.5439C8.8125 11.7432 9.88672 10.9229 10.8145 10.083C10.8145 10.0049 10.8926 9.96094 11.0488 9.95117V9.83398L10.873 9.59961V9.18945L10.8145 9.2041C9.52539 10.415 8.41211 11.5137 7.47461 12.5ZM6.47852 13.6426V14.2871C6.48828 14.3652 6.52734 14.4043 6.5957 14.4043C6.5957 14.3359 6.79102 14.1504 7.18164 13.8477C7.50391 13.5059 8.98828 12.2949 11.6348 10.2148L12.3379 9.59961L12.2207 9.55566C11.8105 9.56543 11.1855 10.0195 10.3457 10.918C9.75977 11.4062 8.4707 12.3145 6.47852 13.6426ZM6.5957 14.8145C6.6543 15.2441 6.75195 15.4541 6.88867 15.4443C9.33008 13.1006 11.498 11.1377 13.3926 9.55566V9.49707L12.9238 9.52637L7.29883 14.082C6.83008 14.541 6.5957 14.7852 6.5957 14.8145ZM14.6816 13.3203V13.4375L14.7988 13.3789C14.8574 13.3691 15.0527 13.5352 15.3848 13.877C16.1562 13.5254 16.9375 12.9688 17.7285 12.207C17.7285 11.7383 17.9824 11.4893 18.4902 11.46C19.0273 10.9814 19.4766 10.3613 19.8379 9.59961V9.42383H19.7793C17.7285 11.4453 16.2441 12.6172 15.3262 12.9395C14.8965 13.1055 14.6816 13.2324 14.6816 13.3203ZM11.459 13.5693L11.5762 13.6133H11.752L14.2129 11.6357V11.5771L13.9199 11.5918C13.7441 11.6602 13.5684 11.8408 13.3926 12.1338C13.1582 12.1436 12.8066 12.334 12.3379 12.7051C12.1621 12.9883 11.8691 13.2764 11.459 13.5693ZM7.18164 12.6758V12.7344H7.29883C7.37695 12.7344 7.41602 12.6953 7.41602 12.6172V12.5586H7.29883C7.2207 12.5684 7.18164 12.6074 7.18164 12.6758ZM17.9043 12.4268C17.1914 13.1299 16.4492 13.6865 15.6777 14.0967L15.6191 14.2139V14.2725C15.8047 14.5459 15.9219 14.6777 15.9707 14.668H16.0293C16.3027 14.541 17.0059 14.043 18.1387 13.1738C18.4121 13.0078 18.5488 12.9053 18.5488 12.8662C18.5488 12.6709 18.334 12.5244 17.9043 12.4268ZM10.5215 13.4229V13.4814H10.6973V13.3057H10.6387C10.5605 13.3154 10.5215 13.3545 10.5215 13.4229ZM16.0879 15.0195C16.1562 15.4883 16.2539 15.7178 16.3809 15.708H16.4395C17.7383 14.9072 18.6953 14.2822 19.3105 13.833L19.4277 13.7744C19.3496 13.3057 19.1738 13.0762 18.9004 13.0859C18.5781 13.2129 17.8359 13.7305 16.6738 14.6387C16.5371 14.6484 16.3418 14.7754 16.0879 15.0195ZM5.42383 17.2607V17.9053C5.42383 17.9639 5.48242 18.0225 5.59961 18.0811C8.72461 15.376 10.3457 14.0186 10.4629 14.0088V13.9502L10.4043 13.6719C10.4434 13.6621 10.4629 13.6377 10.4629 13.5986L10.2871 13.6133C9.61328 14.1992 8.61719 14.9023 7.29883 15.7227C6.9375 15.9375 6.625 16.2451 6.36133 16.6455C5.89258 17.0557 5.58008 17.2607 5.42383 17.2607ZM5.59961 18.4326V18.96C5.67773 19.0479 5.7168 19.1211 5.7168 19.1797C5.93164 19.1797 7.25977 18.0762 9.70117 15.8691C10.4336 15.2148 10.8633 14.8828 10.9902 14.873L10.9316 14.3457L10.9902 14.1113L10.873 14.0527C9.98438 14.7168 8.46094 15.9912 6.30273 17.876C5.93164 18.2373 5.69727 18.4229 5.59961 18.4326ZM16.3809 16.2354C16.4199 16.3135 16.4395 16.3721 16.4395 16.4111C16.3613 16.5283 15.8926 16.7041 15.0332 16.9385L14.3887 17.4951C14.3887 17.7881 14.3496 17.9834 14.2715 18.0811C14.3105 18.1592 14.3301 18.2178 14.3301 18.2568C14.252 18.5107 14.2129 18.6865 14.2129 18.7842V19.1357H14.3301L17.8457 16.5869C19.0078 15.6299 19.7305 15.0928 20.0137 14.9756C19.6621 14.4873 19.4863 14.1846 19.4863 14.0674H19.4277C19.0859 14.3896 18.4219 14.8438 17.4355 15.4297C16.7422 15.8008 16.3906 16.0693 16.3809 16.2354ZM6.06836 19.4141V19.4727L7.5332 19.4141C8.62695 18.4473 9.66211 17.5049 10.6387 16.5869L11.1074 16.2207L11.0488 15.5176V15.2246H10.9316C8.57812 17.2852 6.97656 18.6572 6.12695 19.3408C6.08789 19.3506 6.06836 19.375 6.06836 19.4141ZM14.2715 19.6045V19.6631L14.9746 19.5752L15.5605 19.5459C15.668 19.5459 16.0977 19.2578 16.8496 18.6816C17.7969 18.125 19.1055 17.1338 20.7754 15.708V15.6494C20.7656 15.5713 20.5898 15.4248 20.248 15.21H20.1309C19.4375 15.6982 18.4219 16.4795 17.084 17.5537C16.3027 18.0225 15.3652 18.7061 14.2715 19.6045ZM21.0684 15.752C20.834 16.0352 20.1309 16.6504 18.959 17.5977C18.6465 17.8418 17.8262 18.4033 16.498 19.2822L16.4395 19.3994V19.5166L17.3184 19.4873C17.4844 19.4775 18.0117 19.0625 18.9004 18.2422C19.1348 18.2324 20.0723 17.4561 21.7129 15.9131C21.5566 15.7959 21.3418 15.7422 21.0684 15.752ZM8.06055 19.3848C8.07031 19.4629 8.10938 19.502 8.17773 19.502L8.99805 19.458C9.95508 18.7939 11.0098 17.915 12.1621 16.8213C11.7812 16.6748 11.5273 16.5479 11.4004 16.4404H11.2832C10.1113 17.4658 9.03711 18.4473 8.06055 19.3848ZM17.9629 19.458V19.5166L18.4316 19.502C18.5879 19.4922 18.8418 19.5215 19.1934 19.5898C19.3887 19.5801 20.1895 18.8623 21.5957 17.4365L22.1816 16.9971L22.123 16.5869C22.123 16.5479 22.1621 16.3916 22.2402 16.1182L22.1816 16.001C22.0059 16.0107 21.3027 16.626 20.0723 17.8467C19.9551 17.8564 19.252 18.3936 17.9629 19.458ZM9.52539 19.4434L9.64258 19.502L10.7559 19.458C11.8887 18.6475 12.4551 18.0371 12.4551 17.627V17.0996H12.3379C11.5566 17.8418 10.6191 18.623 9.52539 19.4434ZM19.8965 19.5605V19.6191L20.3066 19.5898C20.3848 19.5898 20.5801 19.624 20.8926 19.6924C21.625 18.8428 22.1133 18.4131 22.3574 18.4033V18.2275C22.2598 17.7197 22.1621 17.4707 22.0645 17.4805H22.0059C21.293 18.0762 20.5898 18.7695 19.8965 19.5605ZM11.4004 19.2529V19.3701C11.4395 19.4873 11.5566 19.541 11.752 19.5312L12.3379 19.502C12.416 19.502 12.4551 19.4629 12.4551 19.3848V18.5059H12.3379C11.8984 18.9941 11.5859 19.2432 11.4004 19.2529ZM21.4199 19.6631L21.5371 19.7217L22.2402 19.6924C22.4746 19.6826 22.5918 19.5996 22.5918 19.4434C22.5137 19.3262 22.4746 19.2139 22.4746 19.1064L22.5332 18.9746C22.4941 18.916 22.4746 18.8428 22.4746 18.7549C22.1035 18.7646 21.752 19.0674 21.4199 19.6631ZM29.7402 0.0195312L30.1504 0.136719H32.1426C32.4062 0.136719 33.4805 0.214844 35.3652 0.371094C35.5801 0.449219 36.2246 0.527344 37.2988 0.605469C38.5 0.693359 39.4961 0.810547 40.2871 0.957031C40.4824 1.13281 40.5801 1.25 40.5801 1.30859C40.6191 2.27539 40.6387 3.01758 40.6387 3.53516L40.873 4.88281C40.9512 5.38086 41.0879 5.84961 41.2832 6.28906C41.459 6.28906 41.5957 6.38672 41.6934 6.58203V6.69922C41.3125 7.77344 40.5898 8.65234 39.5254 9.33594C39.252 9.64844 38.6074 9.80469 37.5918 9.80469L37.416 10.0391V10.8594C37.6895 11.0059 37.8262 11.1035 37.8262 11.1523V11.5625C37.8262 11.6113 37.7285 11.6895 37.5332 11.7969C37.4941 11.7969 37.4746 11.7773 37.4746 11.7383C37.377 11.7383 36.8887 12.168 36.0098 13.0273C35.502 13.2715 35.0723 13.5254 34.7207 13.7891C34.4863 13.7891 34.3691 13.8477 34.3691 13.9648C34.5156 14.2773 34.75 14.4336 35.0723 14.4336C35.2188 14.4238 35.4141 14.1504 35.6582 13.6133C35.9316 13.3789 36.3223 13.1445 36.8301 12.9102H37.5332C37.8066 12.9102 37.9434 12.8711 37.9434 12.793L38.2363 12.8516H39.291L39.7012 12.793C39.9453 12.9688 40.375 13.125 40.9902 13.2617C40.9902 13.3398 41.0098 13.3789 41.0488 13.3789L40.9902 13.6719V18.3008C41.1855 18.75 41.2832 19.0039 41.2832 19.0625C41.0879 19.1992 40.7949 19.9609 40.4043 21.3477L40.1699 21.5234H38.8223L38.1191 21.6406C36.7129 21.6406 34.4082 21.8164 31.2051 22.168H29.8574C29.6816 22.168 28.5879 21.9922 26.5762 21.6406C25.0527 21.5039 24.291 21.3477 24.291 21.1719C24.3301 20.5859 24.3496 20.1562 24.3496 19.8828V17.7148C24.3496 16.875 24.2715 15.9961 24.1152 15.0781C24.1836 14.9805 24.5352 14.7266 25.1699 14.3164C25.7559 13.6328 26.0488 13.1055 26.0488 12.7344V10.5078L25.9316 10.332V10.1562C26.0195 9.6875 26.0977 9.375 26.166 9.21875C25.9316 8.125 25.6387 7.57812 25.2871 7.57812C25.2871 7.5 25.209 7.46094 25.0527 7.46094C25.0527 7.51953 24.9941 7.57812 24.877 7.63672H24.4668C24.252 7.63672 24.1348 6.69922 24.1152 4.82422C24.0371 4.82422 23.998 4.76562 23.998 4.64844C23.998 3.62305 23.9199 3.05664 23.7637 2.94922V2.89062C23.7637 2.69531 24.1738 2.16797 24.9941 1.30859C25.5508 0.527344 26.1562 0.136719 26.8105 0.136719L27.2207 0.371094H27.3965C27.6211 0.371094 28.4023 0.253906 29.7402 0.0195312ZM26.8105 2.71484V3.125C27.0449 2.99805 27.6699 2.56836 28.6855 1.83594C29.2715 1.47461 29.7598 1.2207 30.1504 1.07422V1.01562C30.1504 0.9375 30.1113 0.898438 30.0332 0.898438H29.916C28.3535 1.5918 27.416 2.08008 27.1035 2.36328C26.9082 2.36328 26.8105 2.48047 26.8105 2.71484ZM26.752 4.35547H26.8691C27.8945 3.63281 29.3789 2.69531 31.3223 1.54297L31.9082 1.01562C31.9082 0.9375 31.8691 0.898438 31.791 0.898438H31.3809C30.4531 1.04492 28.9102 1.96289 26.752 3.65234V4.35547ZM27.8652 1.42578H28.1582C28.5098 1.2793 28.7051 1.14258 28.7441 1.01562V0.957031H28.6855C28.2754 1.07422 28.002 1.23047 27.8652 1.42578ZM26.9277 4.70703C26.9375 4.78516 26.9766 4.82422 27.0449 4.82422H27.6309C28.1777 4.48242 29.5645 3.7207 31.791 2.53906C32.4941 2.04102 33.0605 1.5918 33.4902 1.19141C33.4707 1.07422 33.3145 1.01562 33.0215 1.01562H32.7871C32.5039 1.01562 31.957 1.34766 31.1465 2.01172C29.5156 2.97852 28.1094 3.87695 26.9277 4.70703ZM26.8691 1.36719V1.48438H26.9277C27.1426 1.48438 27.2793 1.40625 27.3379 1.25V1.13281C27.2598 1.13281 27.2207 1.11328 27.2207 1.07422C27.0645 1.12305 26.9473 1.2207 26.8691 1.36719ZM27.8652 5.11719C28.041 5.11719 28.2168 5.19531 28.3926 5.35156H28.6855C29.457 4.81445 30.9609 3.89648 33.1973 2.59766C34.0469 2.08008 34.6523 1.65039 35.0137 1.30859V1.19141H34.5449C34.3789 1.19141 34.2227 1.15234 34.0762 1.07422C32.6699 2.36328 31.4199 3.22266 30.3262 3.65234C29.9844 3.86719 29.2227 4.27734 28.041 4.88281L27.8652 5.11719ZM28.6855 5.76172V6.75781H28.8613C30.873 5.44922 33.1191 3.90625 35.5996 2.12891C36.1562 1.77734 36.4688 1.54297 36.5371 1.42578V1.36719C36.2344 1.36719 35.9609 1.32812 35.7168 1.25C34.3594 2.22656 32.1523 3.61328 29.0957 5.41016C28.8223 5.60547 28.6855 5.72266 28.6855 5.76172ZM28.5684 7.92969L28.6855 7.98828H28.7441C29.7305 7.35352 31.5469 6.06445 34.1934 4.12109C35.4629 3.36914 36.5957 2.50977 37.5918 1.54297V1.48438C37.5039 1.48438 37.4258 1.46484 37.3574 1.42578C37.0938 1.42578 36.0977 2.08984 34.3691 3.41797C34.2227 3.44727 33.4609 3.97461 32.084 5L28.7441 7.22656C28.627 7.55859 28.5684 7.79297 28.5684 7.92969ZM27.6309 1.48438V1.60156H27.8066V1.48438H27.6309ZM34.4277 4.41406V4.53125H35.4824L37.2988 3.24219C38.2754 2.36328 38.9199 1.91406 39.2324 1.89453L39.291 2.01172V2.07031C37.5918 3.37891 36.6738 4.0625 36.5371 4.12109L36.1855 4.47266V4.58984C36.3516 4.58984 36.5469 4.66797 36.7715 4.82422H36.8301C37.0156 4.82422 38.0117 4.08203 39.8184 2.59766C39.8184 1.93359 39.5254 1.60156 38.9395 1.60156C38.9395 1.5625 38.7246 1.54297 38.2949 1.54297H38.1191C37.5332 2.12891 36.3027 3.08594 34.4277 4.41406ZM27.1621 1.77734H27.3379V1.66016H27.2793C27.2012 1.66992 27.1621 1.70898 27.1621 1.77734ZM26.9277 1.83594V1.95312H27.1035V1.83594H26.9277ZM37.1816 5V5.23438C37.3574 5.39062 37.4746 5.80078 37.5332 6.46484C37.7969 6.46484 38.3828 5.99609 39.291 5.05859C39.5059 4.77539 39.7012 4.54102 39.877 4.35547V3.76953C39.877 3.57422 39.8379 3.33984 39.7598 3.06641H39.7012C38.627 3.97461 37.7871 4.61914 37.1816 5ZM34.252 4.47266V4.58984H34.3691C34.3691 4.51172 34.3301 4.47266 34.252 4.47266ZM38.4707 6.34766L38.7637 6.28906H39.5254C39.9551 6.02539 40.1699 5.77148 40.1699 5.52734C40.082 5.05859 40.0039 4.82422 39.9355 4.82422H39.877C39.3887 5.44922 38.9199 5.91797 38.4707 6.23047V6.34766ZM28.5098 8.57422V8.75C28.6172 8.75 29.3008 8.37891 30.5605 7.63672C30.6387 7.63672 31.0684 7.40234 31.8496 6.93359C32.9824 6.29883 33.5488 5.84961 33.5488 5.58594L33.6074 5H33.4902C31.625 6.39648 30.1211 7.45117 28.9785 8.16406C28.666 8.37891 28.5098 8.51562 28.5098 8.57422ZM40.1699 6.05469C40.1699 6.09375 40.1504 6.15234 40.1113 6.23047L40.2285 6.28906H40.2871V6.05469H40.1699ZM28.5098 9.27734V10.7422L28.5684 10.8594C29.584 10.1172 30.3262 9.55078 30.7949 9.16016C31.1855 8.84766 32.084 8.22266 33.4902 7.28516C33.5293 7.2168 33.5488 7.13867 33.5488 7.05078V6.28906H33.4902C33.4219 6.28906 32.6992 6.73828 31.3223 7.63672C29.7793 8.37891 28.8418 8.92578 28.5098 9.27734ZM28.5098 11.2695V12.6758C28.5195 12.7539 28.5586 12.793 28.627 12.793C30.4922 11.1621 32.1328 9.93164 33.5488 9.10156C33.4707 8.97461 33.4316 8.85742 33.4316 8.75V8.69141C33.4316 8.64258 33.4707 8.42773 33.5488 8.04688L33.4902 7.75391H33.373C31.8984 8.73047 30.2773 9.90234 28.5098 11.2695ZM28.5098 14.1992C28.5195 14.2773 28.5586 14.3164 28.627 14.3164C29.5938 13.5059 30.3945 12.8809 31.0293 12.4414C32.2793 11.3477 33.7246 10.293 35.3652 9.27734L35.248 9.21875H34.7207L34.3105 9.10156C32.9824 9.6875 31.0488 11.0742 28.5098 13.2617V14.1992ZM26.6348 16.3086C26.7129 16.4355 26.752 16.5527 26.752 16.6602V16.9531H26.8691C29.9941 14.6973 32.2402 12.959 33.6074 11.7383V11.1523C33.6074 11.0938 33.666 11.0352 33.7832 10.9766H34.0762L34.4277 11.0352C34.5352 11.0352 35.2188 10.4492 36.4785 9.27734L36.3613 9.21875H36.0098C34.4277 10.2051 32.9238 11.2793 31.498 12.4414C29.9844 13.6426 28.3828 14.834 26.6934 16.0156L26.6348 16.3086ZM36.4199 9.62891C36.4199 9.74609 35.9902 10.1758 35.1309 10.918V11.0938H35.4238C35.5703 11.0547 35.9609 10.6836 36.5957 9.98047V9.62891H36.4199ZM36.4199 10.5078C36.4199 10.5566 36.3027 10.7324 36.0684 11.0352H36.1855L36.5957 10.9766V10.5078H36.4199ZM33.4316 12.207C33.3145 12.4316 32.4355 13.1934 30.7949 14.4922C30.1309 14.9219 29.1152 15.6445 27.748 16.6602C27.084 17.1387 26.752 17.4121 26.752 17.4805V18.418C26.7617 18.4961 26.8008 18.5352 26.8691 18.5352C28.2656 17.2559 30.1406 15.752 32.4941 14.0234C33.2363 13.4277 33.6074 13.0566 33.6074 12.9102C33.6855 12.7637 33.7246 12.6074 33.7246 12.4414V12.3242C33.7246 12.2461 33.6855 12.207 33.6074 12.207H33.4316ZM33.4316 13.4961C33.1484 13.9062 32.3867 14.5508 31.1465 15.4297C29.3203 16.8262 27.9141 17.959 26.9277 18.8281V18.8867H26.9863C27.7969 18.8867 28.3047 18.7109 28.5098 18.3594C28.5684 18.3594 29.0957 17.8906 30.0918 16.9531C31.3711 16.1328 32.543 15.2148 33.6074 14.1992V13.4961H33.4316ZM33.8418 18.6523V18.7109H34.4277C35.7852 17.2461 36.8203 15.9766 37.5332 14.9023C38.1582 14.3066 38.4707 13.8965 38.4707 13.6719H38.4121C37.8652 13.6719 37.5918 13.8281 37.5918 14.1406C37.5527 14.4141 36.752 15.3711 35.1895 17.0117C34.8574 17.3828 34.4082 17.9297 33.8418 18.6523ZM35.0723 18.4766V18.6523H35.9512C36.7129 17.6172 37.748 16.3281 39.0566 14.7852C39.4082 14.1602 39.584 13.8086 39.584 13.7305C39.5449 13.7305 39.5254 13.7109 39.5254 13.6719C39.0762 13.6719 38.666 13.9648 38.2949 14.5508C38.2559 14.5508 37.5332 15.4492 36.127 17.2461C35.9707 17.4707 35.6191 17.8809 35.0723 18.4766ZM36.4785 18.4766V18.6523H36.9473C37.1816 18.6328 37.5723 18.2227 38.1191 17.4219C39.2031 16.0742 39.9062 14.9219 40.2285 13.9648V13.9062C40.2285 13.8281 40.1895 13.7891 40.1113 13.7891H39.9941C39.9258 13.7988 39.6914 14.1895 39.291 14.9609L36.7715 18.0664L36.4785 18.4766ZM28.5684 18.8281H29.9746C30.6387 17.8027 31.6934 16.7676 33.1387 15.7227C33.7148 15.2441 34.0078 14.9707 34.0176 14.9023L33.7246 14.668H33.6074C32.582 15.5371 31.3906 16.4551 30.0332 17.4219C29.0664 18.252 28.5781 18.7207 28.5684 18.8281ZM37.709 18.4766V18.5352H38.1777C39.5449 17.0898 40.2285 16.1133 40.2285 15.6055V14.9609C40.1113 14.9609 39.7793 15.4883 39.2324 16.543L37.709 18.4766ZM27.2207 15.1367V15.1953H27.3965V15.0195H27.3379C27.2598 15.0293 27.2207 15.0684 27.2207 15.1367ZM36.4785 15.0195C36.4785 15.1465 36.127 15.2832 35.4238 15.4297C35.2871 15.7129 34.6816 16.3965 33.6074 17.4805C33.6074 17.5098 33.3145 17.8613 32.7285 18.5352V18.7109H33.4316C33.666 18.3301 34.0762 17.8223 34.6621 17.1875C34.7207 16.9922 35.3457 16.3281 36.5371 15.1953H36.5957V15.1367C36.5957 15.0586 36.5566 15.0195 36.4785 15.0195ZM26.6348 15.2539V15.4297C26.6445 15.5078 26.6836 15.5469 26.752 15.5469H26.8105C27.0449 15.4102 27.1621 15.2734 27.1621 15.1367H27.0449L26.6348 15.2539ZM30.4434 18.7695L30.5605 18.8281H31.6152C32.0938 18.8281 32.543 18.457 32.9629 17.7148C33.8711 16.8066 34.5742 16.0449 35.0723 15.4297C35.0723 15.3223 34.8379 15.2246 34.3691 15.1367C33.4902 15.7227 32.3574 16.6797 30.9707 18.0078C30.6191 18.4473 30.4434 18.7012 30.4434 18.7695ZM38.7051 18.4766V18.5352H39.1738C39.3203 18.418 39.457 18.3594 39.584 18.3594H39.877L40.0527 18.4766C40.1113 18.4766 40.1699 18.418 40.2285 18.3008V16.7188H40.1699C40.043 16.8066 39.5547 17.3926 38.7051 18.4766ZM48.0068 0.751953H49.8232C55.3115 1.29883 58.1436 1.57227 58.3193 1.57227C58.749 1.73828 58.9639 1.95312 58.9639 2.2168V2.80273C58.9639 3.26172 58.9834 3.98438 59.0225 4.9707C59.0811 4.9707 59.1787 5.40039 59.3154 6.25977C59.4424 6.76758 59.5986 7.02148 59.7842 7.02148C59.9404 7.07031 60.0186 7.24609 60.0186 7.54883C59.5303 8.38867 59.1787 8.93555 58.9639 9.18945C58.0068 9.9707 57.4209 10.3613 57.2061 10.3613C56.1904 10.4199 55.6826 10.5371 55.6826 10.7129V11.2988C55.6826 11.4551 55.8389 11.6504 56.1514 11.8848V12.0605C56.1514 12.2754 56.0146 12.4316 55.7412 12.5293C55.7021 12.5293 55.6826 12.5098 55.6826 12.4707C55.6338 12.4707 55.3604 12.7441 54.8623 13.291C53.7588 14.082 53.1338 14.4922 52.9873 14.5215C52.8311 14.541 52.7529 14.5996 52.7529 14.6973C52.7627 14.7852 52.8799 14.9219 53.1045 15.1074L53.3975 15.0488H53.8662L54.042 15.166H55.2139C55.3701 15.2148 55.4482 15.3906 55.4482 15.6934C55.3311 16.2305 55.2725 16.9336 55.2725 17.8027C55.2725 18.3496 55.3311 18.8574 55.4482 19.3262C55.3701 19.7168 55.1748 20.3223 54.8623 21.1426C54.4717 22.0801 54.1396 22.5488 53.8662 22.5488C53.5537 22.5488 52.8506 22.5684 51.7568 22.6074C51.6494 22.7246 50.9072 22.7832 49.5303 22.7832L49.1201 22.9004H48.6514C47.2744 22.7832 46.1221 22.6074 45.1943 22.373C43.4365 22.2852 42.5576 22.0703 42.5576 21.7285V21.6699C42.6357 21.416 42.6748 21.2402 42.6748 21.1426C42.6748 20.4492 42.6943 19.7266 42.7334 18.9746C42.6943 18.3691 42.6748 17.7441 42.6748 17.0996C42.5576 16.9336 42.499 16.4453 42.499 15.6348C42.958 15.4785 43.4072 15.127 43.8467 14.5801C44.1592 14.248 44.3154 13.877 44.3154 13.4668V10.5371C44.3154 10.4883 44.3545 10.2734 44.4326 9.89258V9.6582L44.0811 8.66211C43.7295 8.34961 43.5342 8.19336 43.4951 8.19336L43.2021 8.36914H42.8506C42.6553 8.25195 42.5576 8.13477 42.5576 8.01758C42.4014 5.76172 42.3232 4.51172 42.3232 4.26758V4.20898C42.2061 4.0625 42.1475 3.88672 42.1475 3.68164V3.50586C42.1475 3.35938 42.499 2.91016 43.2021 2.1582C43.7881 1.29883 44.4521 0.869141 45.1943 0.869141C45.4287 1.02539 45.6045 1.10352 45.7217 1.10352C45.917 1.10352 46.6787 0.986328 48.0068 0.751953ZM45.1357 3.0957V3.85742H45.1943C47.04 2.49023 48.1338 1.80664 48.4756 1.80664V1.68945L48.1826 1.63086C46.6104 2.34375 45.6729 2.83203 45.3701 3.0957H45.1357ZM45.0186 4.67773V5.08789C45.2041 5.04883 46.1611 4.44336 47.8896 3.27148C48.4658 3.04688 49.2471 2.53906 50.2334 1.74805C50.2334 1.66992 50.1943 1.63086 50.1162 1.63086H49.5889C48.6709 1.95312 47.6553 2.48047 46.542 3.21289C45.5264 3.93555 45.0186 4.42383 45.0186 4.67773ZM46.1318 2.1582H46.3662C46.7471 2.01172 46.9424 1.89453 46.9521 1.80664V1.74805H46.8936C46.6104 1.74805 46.3564 1.88477 46.1318 2.1582ZM45.3115 5.43945V5.49805L45.6045 5.55664H45.8975L50.1162 3.21289C50.9365 2.68555 51.5029 2.23633 51.8154 1.86523C51.8154 1.78711 51.7764 1.74805 51.6982 1.74805H51.0537C50.7803 1.74805 50.1943 2.11914 49.2959 2.86133C47.626 3.79883 46.2979 4.6582 45.3115 5.43945ZM45.1357 2.1582L45.1943 2.27539C45.6143 2.09961 45.8291 1.98242 45.8389 1.92383C45.8389 1.8457 45.7998 1.80664 45.7217 1.80664H45.4287C45.3701 1.80664 45.2725 1.92383 45.1357 2.1582ZM46.3076 5.84961C46.4932 5.89844 46.6494 5.97656 46.7764 6.08398H46.9521L52.5771 2.62695C53.085 2.28516 53.3389 2.05078 53.3389 1.92383C53.085 1.92383 52.792 1.88477 52.46 1.80664C52.3721 1.80664 51.9229 2.17773 51.1123 2.91992C50.0283 3.66211 48.5439 4.50195 46.6592 5.43945C46.3857 5.58594 46.249 5.72266 46.249 5.84961H46.3076ZM46.9521 6.55273C47.0303 6.67969 47.0693 6.79688 47.0693 6.9043V7.49023H47.1865L50.585 5.20508L54.8037 2.2168L54.8623 2.09961C54.6963 2.09961 54.4814 2.06055 54.2178 1.98242C53.9639 1.98242 53.5146 2.25586 52.8701 2.80273C52.0986 3.33008 50.8291 4.0918 49.0615 5.08789C47.7432 5.89844 47.04 6.38672 46.9521 6.55273ZM46.8936 8.31055V8.7207H47.0693C48.5537 7.70508 49.96 6.70898 51.2881 5.73242C53.1533 4.49219 54.7158 3.33984 55.9756 2.27539V2.2168L55.6826 2.1582H55.624C55.4482 2.1582 54.1592 3.01758 51.7568 4.73633C50.5459 5.63477 49.042 6.65039 47.2451 7.7832C47.1572 7.85156 47.04 8.02734 46.8936 8.31055ZM45.8389 2.2168V2.33398H46.0732V2.2168H45.8389ZM52.6357 5.26367H53.6318C53.8369 5.26367 55.0088 4.42383 57.1475 2.74414L57.5576 2.62695L57.6162 2.74414V2.80273C56.835 3.34961 56.0146 3.97461 55.1553 4.67773C54.7256 4.90234 54.5107 5.09766 54.5107 5.26367C54.833 5.38086 55.0479 5.47852 55.1553 5.55664H55.2725C56.3467 4.75586 57.2842 4.01367 58.085 3.33008V2.97852C58.085 2.50977 57.7334 2.27539 57.0303 2.27539H56.4443C55.2627 3.32031 54.0127 4.27734 52.6943 5.14648L52.6357 5.26367ZM45.6045 2.39258V2.50977H45.7217V2.39258H45.6045ZM45.1357 2.62695V2.74414H45.2529C45.3311 2.74414 45.3701 2.70508 45.3701 2.62695C45.3701 2.54883 45.3311 2.50977 45.2529 2.50977C45.1748 2.51953 45.1357 2.55859 45.1357 2.62695ZM55.5068 5.73242V5.9082C55.6533 6.21094 55.751 6.38672 55.7998 6.43555C57.2061 4.91211 57.9873 4.11133 58.1436 4.0332C58.1826 4.0332 58.2021 3.99414 58.2021 3.91602C58.1631 3.83789 58.1436 3.7793 58.1436 3.74023H58.085L56.0342 5.38086C55.7412 5.61523 55.5654 5.73242 55.5068 5.73242ZM55.7998 7.08008C55.8096 7.1582 55.8486 7.19727 55.917 7.19727H55.9756C57.2061 6.28906 57.9678 5.48828 58.2607 4.79492C58.2314 4.59961 58.1729 4.50195 58.085 4.50195H58.0264C56.542 6.06445 55.7998 6.9043 55.7998 7.02148V7.08008ZM56.8545 7.08008L56.9717 7.02148H57.6748C57.8994 7.02148 58.1729 6.80664 58.4951 6.37695C58.4951 6.31836 58.4365 6.08398 58.3193 5.67383H58.3779C58.3389 5.60547 58.3193 5.52734 58.3193 5.43945H58.2607C57.8213 6.05469 57.3525 6.54297 56.8545 6.9043V7.08008ZM46.8936 9.18945V9.42383H47.0693C47.5186 9.13086 48.6514 8.48633 50.4678 7.49023C51.2393 7.00195 51.6885 6.66992 51.8154 6.49414C51.8154 6.14258 51.874 5.92773 51.9912 5.84961V5.67383H51.874C50.1846 6.93359 48.5244 8.10547 46.8936 9.18945ZM51.6982 6.96289C51.0439 7.5 50.2432 8.00781 49.2959 8.48633C47.6162 9.375 46.7764 9.90234 46.7764 10.0684V10.3613C46.7861 10.4395 46.8252 10.4785 46.8936 10.4785H47.0693C48.71 9.20898 49.96 8.4668 50.8193 8.25195C51.083 8.10547 51.415 7.83203 51.8154 7.43164V7.08008C51.8154 7.00195 51.7764 6.96289 51.6982 6.96289ZM51.6982 7.90039C51.6982 7.93945 51.6787 7.99805 51.6396 8.07617H51.7568V7.90039H51.6982ZM51.0537 8.42773V8.48633H51.1709V8.42773H51.0537ZM51.6982 8.42773L49.6475 9.89258V9.95117H49.8232C51.1514 9.26758 51.8154 8.89648 51.8154 8.83789V8.54492C51.8154 8.4668 51.7764 8.42773 51.6982 8.42773ZM46.7764 11.2402V11.416C46.7861 11.4941 46.8252 11.5332 46.8936 11.5332H46.9521C49.0811 9.87305 50.4092 8.89648 50.9365 8.60352V8.54492H50.7607C49.8525 8.90625 48.8174 9.53125 47.6553 10.4199C47.0693 10.7422 46.7764 11.0156 46.7764 11.2402ZM46.7764 13.4082L46.8936 13.4668C49.1592 11.6016 50.7998 10.4102 51.8154 9.89258C51.8154 9.58984 51.7373 9.41406 51.5811 9.36523C50.2334 10.0488 49.4326 10.4785 49.1787 10.6543C47.5771 11.9824 46.7764 12.9004 46.7764 13.4082ZM46.7764 14.2285V14.9902C47.499 14.6094 48.749 13.6523 50.5264 12.1191L53.6318 10.0098L53.5146 9.95117H52.9287L52.7529 9.83398H52.46C51.4248 10.3906 50.0771 11.3281 48.417 12.6465C47.3232 13.4766 46.7764 14.0039 46.7764 14.2285ZM49.3545 10.0684L49.4717 10.127C49.5498 10.127 49.5889 10.0879 49.5889 10.0098V9.95117H49.4717C49.3936 9.96094 49.3545 10 49.3545 10.0684ZM45.0186 17.0996V17.5684C45.0283 17.6465 45.0674 17.6855 45.1357 17.6855H45.1943C45.9951 17.041 47.499 15.9277 49.7061 14.3457C51.1318 13.1543 51.8936 12.4902 51.9912 12.3535L51.874 12.0605C52.001 11.7871 52.1572 11.6504 52.3428 11.6504C52.5967 11.7285 52.7529 11.7676 52.8115 11.7676L54.8037 10.0098L54.6865 9.95117H54.2764C52.2451 11.2793 50.6631 12.4121 49.5303 13.3496C49.1104 13.7305 48.3486 14.3164 47.2451 15.1074C46.9619 15.3516 46.2588 15.8594 45.1357 16.6309C45.0576 16.7773 45.0186 16.9336 45.0186 17.0996ZM53.3389 11.8262H53.3975C53.4756 11.7871 53.5342 11.7676 53.5732 11.7676V11.8262C54.042 11.6602 54.4912 11.2695 54.9209 10.6543V10.4785L54.8037 10.4199H54.7451C54.4521 10.752 53.9834 11.1816 53.3389 11.709V11.8262ZM46.7764 12.4707H46.835C46.9131 12.4707 47.2256 12.1387 47.7725 11.4746V11.3574H47.7139C47.0889 11.7285 46.7764 12.0215 46.7764 12.2363V12.4707ZM54.4521 11.5332V11.709H54.8037C54.8818 11.709 54.9209 11.6699 54.9209 11.5918V11.4746C54.9209 11.3965 54.8818 11.3574 54.8037 11.3574C54.6572 11.4746 54.54 11.5332 54.4521 11.5332ZM45.0186 18.5059V19.209H45.0771C45.1357 19.209 45.4873 18.9355 46.1318 18.3887C47.4502 17.3047 49.0518 16.0547 50.9365 14.6387L51.9912 13.7012V12.998L51.9326 12.8809C50.3213 14.248 49.4619 14.9316 49.3545 14.9316C48.7197 15.4883 47.7236 16.2109 46.3662 17.0996C45.5068 17.7734 45.0771 18.1445 45.0771 18.2129C45.0381 18.2812 45.0186 18.3789 45.0186 18.5059ZM45.3701 19.5605H46.249L49.2959 16.9824C49.4424 16.9824 50.165 16.4551 51.4639 15.4004C51.7764 15.1172 51.9326 14.8438 51.9326 14.5801V14.4629L51.8154 14.2871C51.0537 14.9316 49.8232 15.8887 48.124 17.1582C46.2881 18.6426 45.3701 19.4238 45.3701 19.502V19.5605ZM46.9521 19.4434V19.5605H48.417C48.417 19.0723 49.5107 17.959 51.6982 16.2207C52.0791 15.9082 52.2939 15.752 52.3428 15.752V15.5762C52.2256 15.5762 52.1084 15.498 51.9912 15.3418C51.3955 15.8691 50.0283 16.9238 47.8896 18.5059C47.8896 18.5547 47.5771 18.8672 46.9521 19.4434ZM44.96 16.0449V16.2207C44.9697 16.2988 45.0088 16.3379 45.0771 16.3379C45.0771 16.25 45.2725 16.1133 45.6631 15.9277V15.752H45.4873C45.1357 15.8887 44.96 15.9863 44.96 16.0449ZM48.71 19.5605H49.2959C49.3447 19.5605 49.5596 19.5215 49.9404 19.4434H50.4678C51.5908 18.125 52.5088 17.1094 53.2217 16.3965C53.2217 16.3379 53.2607 16.2598 53.3389 16.1621V16.1035C53.3389 16.0059 53.124 15.9277 52.6943 15.8691C52.6064 15.8691 52.2744 16.123 51.6982 16.6309C50.2041 17.7441 49.208 18.7207 48.71 19.5605ZM50.9951 19.3262V19.4434H51.6396C52.1182 18.8086 52.8799 17.9102 53.9248 16.748L54.3936 15.9863L54.2764 15.9277H53.9248C53.3389 16.6992 52.5186 17.6367 51.4639 18.7402C51.4639 18.8184 51.3076 19.0137 50.9951 19.3262ZM52.167 19.2676V19.4434H52.5186C52.6748 19.4434 53.2217 18.8379 54.1592 17.627L54.4521 17.2168V16.6895L54.5107 16.5723H54.4521C53.0068 18.3691 52.2451 19.2676 52.167 19.2676ZM54.2764 17.8613C54.2764 17.9395 54.042 18.2715 53.5732 18.8574C53.5732 18.9648 53.5146 19.082 53.3975 19.209V19.3848H53.4561C53.5049 19.3848 53.8369 19.0332 54.4521 18.3301V17.8613H54.2764ZM54.2764 18.916C54.2764 19.0332 54.1982 19.1309 54.042 19.209C54.0811 19.3262 54.1201 19.3848 54.1592 19.3848C54.335 19.3066 54.4326 19.2285 54.4521 19.1504V18.916H54.2764ZM61.0146 2.37793C61.1416 2.37793 61.2783 2.43652 61.4248 2.55371H63.124C63.251 2.55371 63.5244 2.59277 63.9443 2.6709C66.1709 2.70996 67.5186 2.72949 67.9873 2.72949C68.1143 2.80762 68.2314 2.84668 68.3389 2.84668H68.6904C69.2666 2.65137 69.5791 2.55371 69.6279 2.55371H70.1553C70.7217 2.63184 71.0342 2.6709 71.0928 2.6709H74.1982C74.999 2.6709 76.21 2.69043 77.8311 2.72949C77.8701 2.6123 77.9873 2.55371 78.1826 2.55371H78.3584C78.5928 2.6709 78.71 2.96387 78.71 3.43262C78.6318 3.44238 78.5928 3.48145 78.5928 3.5498V3.95996C78.6709 4.52637 78.71 4.83887 78.71 4.89746V6.47949C78.71 6.54785 78.7686 6.7041 78.8857 6.94824C78.8857 7.19238 78.6123 7.36816 78.0654 7.47559C77.7139 7.83691 77.5381 8.11035 77.5381 8.2959V9.40918C77.5381 9.50684 77.5771 9.68262 77.6553 9.93652C77.6943 11.3037 77.7139 12.2412 77.7139 12.749C77.7139 14.9854 77.0889 16.7432 75.8389 18.0225C75.7412 18.5889 75.2139 19.3701 74.2568 20.3662C72.0205 22.1631 70.2432 23.0615 68.9248 23.0615C68.9248 23.1006 68.8662 23.1201 68.749 23.1201H67.9287C67.0303 23.1201 65.7607 22.7881 64.1201 22.124C62.7236 21.1768 61.7666 19.9463 61.249 18.4326C61.249 18.335 61.21 18.1592 61.1318 17.9053H61.1904C61.1318 17.7686 61.0537 17.3779 60.9561 16.7334C60.9561 16.6943 60.9756 16.6748 61.0146 16.6748C60.9365 16.5479 60.8975 16.4307 60.8975 16.3232V15.8545L60.7803 15.6787C60.7412 14.5459 60.6826 13.8428 60.6045 13.5693V12.3389C60.6045 12.2998 60.624 12.2803 60.6631 12.2803L60.3701 10.9912C60.2529 10.21 59.8623 9.81934 59.1982 9.81934C59.0811 9.67285 59.0225 9.53613 59.0225 9.40918V5.54199C59.0225 5.34668 59.0029 5.05371 58.9639 4.66309L60.3701 2.78809C60.3701 2.56348 60.585 2.42676 61.0146 2.37793ZM61.3076 3.72559V3.90137H61.3662C61.7568 3.68652 61.9521 3.5498 61.9521 3.49121C61.9521 3.41309 61.9131 3.37402 61.835 3.37402H61.4834C61.3662 3.41309 61.3076 3.53027 61.3076 3.72559ZM61.4248 4.42871V5.19043H61.4834C61.835 4.73145 62.4209 4.18457 63.2412 3.5498C63.2412 3.47168 63.0264 3.41309 62.5967 3.37402C62.3818 3.45215 61.9912 3.80371 61.4248 4.42871ZM61.4248 5.71777V6.24512H61.4834C62.0986 5.69824 62.9971 4.81934 64.1787 3.6084H64.2373V3.49121L64.0029 3.43262C63.3389 3.75488 62.4795 4.5166 61.4248 5.71777ZM61.4248 6.88965V7.24121C61.4346 7.31934 61.4736 7.3584 61.542 7.3584H61.7764L65.1748 3.78418C65.2627 3.78418 65.3408 3.70605 65.4092 3.5498C65.1748 3.5498 64.96 3.51074 64.7646 3.43262C64.7061 3.43262 64.4717 3.66699 64.0615 4.13574C63.583 4.65332 62.7627 5.47363 61.6006 6.59668C61.6006 6.66504 61.542 6.7627 61.4248 6.88965ZM70.3896 3.6084V4.37012C70.3994 4.44824 70.4385 4.4873 70.5068 4.4873H70.5654C70.5654 4.31152 70.8193 3.99902 71.3271 3.5498V3.49121L71.0342 3.43262H70.5654C70.5068 3.43262 70.4482 3.49121 70.3896 3.6084ZM70.3896 5.30762L70.4482 5.60059C71.542 4.24316 72.1084 3.55957 72.1475 3.5498V3.49121C72.1084 3.49121 72.0498 3.47168 71.9717 3.43262C70.917 4.31152 70.3896 4.93652 70.3896 5.30762ZM70.3896 6.4209V6.94824C70.3994 7.02637 70.4385 7.06543 70.5068 7.06543L72.9092 4.07715C72.958 4.07715 73.1338 3.90137 73.4365 3.5498C73.4365 3.47168 73.3975 3.43262 73.3193 3.43262H72.792C72.5967 3.43262 72.2842 3.74512 71.8545 4.37012C70.8779 5.5127 70.3896 6.19629 70.3896 6.4209ZM71.5029 8.12012V8.17871C71.6104 8.45215 71.6885 8.58887 71.7373 8.58887H71.7959C71.9229 7.97363 73.251 6.3916 75.7803 3.84277C75.8584 3.71582 75.8975 3.61816 75.8975 3.5498C75.7412 3.47168 75.5264 3.43262 75.2529 3.43262C74.9014 3.43262 74.4326 3.97949 73.8467 5.07324L71.5029 8.12012ZM62.1279 7.47559C62.3623 7.63184 62.4795 7.76855 62.4795 7.88574H62.5967C63.6807 6.89941 65.0283 5.4541 66.6396 3.5498H66.1709C65.7607 3.5498 64.4131 4.8584 62.1279 7.47559ZM70.7412 7.47559C70.7412 7.56348 70.917 7.68066 71.2686 7.82715C71.3467 7.82715 71.7568 7.33887 72.499 6.3623C73.749 4.64355 74.374 3.70605 74.374 3.5498H73.8467C73.583 3.72559 72.626 4.8584 70.9756 6.94824C70.8193 7.21191 70.7412 7.3877 70.7412 7.47559ZM71.8545 8.99902V9.29199C72.0498 9.29199 72.46 8.90137 73.085 8.12012C74.0908 7.11426 75.0674 6.05957 76.0146 4.95605C76.7178 4.29199 77.0693 3.84277 77.0693 3.6084V3.5498H76.4834C73.9736 6.05957 72.4893 7.77832 72.0303 8.70605C72.001 8.70605 71.9424 8.80371 71.8545 8.99902ZM71.9717 9.81934V11.0498C71.9814 11.1279 72.0205 11.167 72.0889 11.167C73.9248 9.25293 75.1748 7.76855 75.8389 6.71387C76.21 5.93262 76.835 5.1709 77.7139 4.42871C77.792 4.42871 77.8311 4.33105 77.8311 4.13574V3.84277L77.7725 3.5498H77.7139C76.2979 5.16113 74.3838 7.25098 71.9717 9.81934ZM62.7139 8.2373C62.792 8.36426 62.8311 8.46191 62.8311 8.53027H63.0068C63.0068 8.46191 63.7881 7.6416 65.3506 6.06934C66.6494 4.5459 67.4111 3.78418 67.6357 3.78418V3.66699L67.3428 3.6084H67.2256C66.9717 3.6084 66.6592 3.90137 66.2881 4.4873C64.3838 6.55762 63.1924 7.80762 62.7139 8.2373ZM62.8896 9.11621C62.9678 9.2334 63.0068 9.38965 63.0068 9.58496H63.1826C63.1826 9.5166 63.71 8.98926 64.7646 8.00293L68.2803 4.25293C68.2803 4.04785 68.4951 3.8916 68.9248 3.78418V3.66699C68.8857 3.66699 68.8271 3.64746 68.749 3.6084C68.1533 3.6084 67.4697 4.07715 66.6982 5.01465L64.4131 7.47559C63.5049 8.2959 62.9971 8.84277 62.8896 9.11621ZM63.0068 10.1123V10.9326C63.0068 11.0205 62.9873 11.0986 62.9482 11.167C62.9873 11.2354 63.0068 11.3135 63.0068 11.4014H63.124L66.8154 7.2998C67.1963 6.54785 67.8604 5.64941 68.8076 4.60449V4.19434H68.6904C66.874 6.28418 64.9795 8.25684 63.0068 10.1123ZM71.9717 11.8701V11.9287C71.9814 12.0068 72.0205 12.0459 72.0889 12.0459C73.1143 11.0498 74.4424 9.91699 76.0732 8.64746C76.6494 7.82715 77.1572 7.18262 77.5967 6.71387C77.792 6.68457 77.8896 6.62598 77.8896 6.53809C77.8506 5.69824 77.8311 5.1123 77.8311 4.78027L77.7139 4.72168C77.0791 5.38574 76.2783 6.47949 75.3115 8.00293C74.1689 9.37988 73.1143 10.5713 72.1475 11.5771C72.1475 11.6455 72.0889 11.7432 71.9717 11.8701ZM63.0068 12.2217L63.124 12.4561C63.085 12.5244 63.0654 12.6025 63.0654 12.6904H63.124C63.2217 12.6904 63.4365 12.3779 63.7686 11.7529C63.8076 11.7529 64.1787 11.3623 64.8818 10.5811C66.4443 9.16504 67.3623 8.16895 67.6357 7.59277C68.0068 7.06543 68.3975 6.57715 68.8076 6.12793V5.19043H68.749C68.5049 5.38574 67.8213 6.28418 66.6982 7.88574C64.9014 9.83887 63.71 11.1865 63.124 11.9287C63.0459 12.0557 63.0068 12.1533 63.0068 12.2217ZM68.2217 7.47559H68.2803C68.4072 7.39746 68.6221 7.33887 68.9248 7.2998V6.77246C68.9248 6.69434 68.8857 6.65527 68.8076 6.65527H68.749C68.3975 7.03613 68.2217 7.30957 68.2217 7.47559ZM76.4248 8.58887C75.9951 9.09668 75.3115 9.72168 74.374 10.4639C72.6943 11.6553 71.8545 12.5928 71.8545 13.2764C71.8154 13.2764 71.7959 13.335 71.7959 13.4521C71.8057 13.5303 71.8447 13.5693 71.9131 13.5693L76.0146 9.40918C76.2881 9.27246 76.4834 9.13574 76.6006 8.99902V8.88184L76.542 8.58887H76.4248ZM66.7568 9.1748C66.7568 9.25293 66.3467 9.64355 65.5264 10.3467C64.2959 11.5674 63.5342 12.5439 63.2412 13.2764V13.5693L63.3584 13.7451V14.2139H63.5342C63.5342 14.1064 64.2764 13.1299 65.7607 11.2842C66.21 10.835 66.5811 10.3662 66.874 9.87793V9.29199C66.874 9.21387 66.835 9.1748 66.7568 9.1748ZM66.5225 19.3115V19.3701C66.5225 19.4482 66.7959 19.5459 67.3428 19.6631H67.46C67.6553 19.2725 68.3779 18.4521 69.6279 17.2021C69.7744 17.2021 70.6729 16.3428 72.3232 14.624C72.3232 14.5654 72.8701 13.96 73.9639 12.8076C73.9639 12.749 74.6084 12.0264 75.8975 10.6396C76.4834 10.0635 76.7764 9.73145 76.7764 9.64355L76.7178 9.35059H76.6592C76.4541 9.35059 75.0674 10.7178 72.499 13.4521C72.0303 13.9209 70.0967 15.7959 66.6982 19.0771L66.5225 19.3115ZM67.8701 19.8389H68.1045C68.6709 19.917 68.9834 19.9561 69.042 19.9561H69.2764C69.5107 19.9561 69.8623 19.5459 70.3311 18.7256C72.2549 16.7236 73.7393 14.9658 74.7842 13.4521C75.7217 12.2803 76.4053 11.4795 76.835 11.0498V10.2295C76.1123 10.835 74.999 12.0068 73.4951 13.7451C73.4951 13.8623 71.6787 15.7178 68.0459 19.3115C67.9287 19.458 67.8701 19.6338 67.8701 19.8389ZM66.7568 10.5225C66.7568 10.5811 66.249 11.2256 65.2334 12.4561C64.1006 13.833 63.5342 14.6143 63.5342 14.7998V14.8584L63.5928 15.5615C63.6514 15.5615 64.1787 14.9756 65.1748 13.8037C65.3018 13.8037 65.6533 13.374 66.2295 12.5146C66.6299 11.8506 66.8643 11.5186 66.9326 11.5186L66.874 10.9326V10.6396C66.874 10.5615 66.835 10.5225 66.7568 10.5225ZM70.0381 19.6631V19.8389C70.0479 19.917 70.0869 19.9561 70.1553 19.9561C70.8584 19.8389 71.21 19.6631 71.21 19.4287L73.9639 16.6162C74.2275 16.3135 75.0088 15.2197 76.3076 13.335C76.7373 13.0322 76.9521 12.7197 76.9521 12.3975V11.9873C76.9521 11.8799 76.9131 11.7627 76.835 11.6357C76.0732 12.3096 74.96 13.6572 73.4951 15.6787C71.7471 17.6221 70.5947 18.9502 70.0381 19.6631ZM66.9326 11.9287C66.5811 12.7588 65.7803 13.7549 64.5303 14.917L63.8271 16.0303L63.8857 16.1475V16.3232L63.71 16.5576L63.7686 16.9678H63.9443C64.7939 15.8447 65.5361 14.9072 66.1709 14.1553C66.7959 13.1592 67.1279 12.5928 67.167 12.4561C67.0986 12.1045 67.0205 11.9287 66.9326 11.9287ZM64.0615 17.3779C64.0615 17.5928 64.1592 17.749 64.3545 17.8467C65.3115 16.8213 66.3271 15.415 67.4014 13.6279C67.4014 13.5889 67.4209 13.5303 67.46 13.4521C67.46 13.374 67.4209 13.2373 67.3428 13.042C67.2354 13.042 66.8057 13.6279 66.0537 14.7998C65.292 15.6787 64.6279 16.5381 64.0615 17.3779ZM71.5615 19.6045H71.6787C72.001 19.6045 72.4307 19.2139 72.9678 18.4326C75.585 15.8154 76.8936 14.1553 76.8936 13.4521C76.8545 13.4521 76.835 13.4326 76.835 13.3936C76.1709 13.9697 75.5068 14.8486 74.8428 16.0303C74.3838 16.5869 73.29 17.7588 71.5615 19.5459V19.6045ZM67.6357 13.8623C66.8936 15.1221 65.8584 16.5674 64.5303 18.1982L65.2334 18.7842C66.0635 17.8369 66.8447 16.8408 67.5771 15.7959C67.7236 15.5127 67.958 15.1416 68.2803 14.6826V14.624L67.6357 13.8623ZM65.6436 18.7842V18.96C65.6436 19.0088 65.7803 19.1064 66.0537 19.2529C66.1123 19.2529 66.5029 18.8428 67.2256 18.0225C67.9385 17.5146 68.9736 16.5186 70.3311 15.0342L69.7451 15.0928H69.5107C69.4033 15.0928 69.0908 15.0146 68.5732 14.8584C67.6846 16.2158 66.708 17.5244 65.6436 18.7842ZM72.8506 19.0771V19.1357H73.0264C74.5303 18.3154 75.585 17.2607 76.1904 15.9717L76.542 15.0928V15.0342H76.4834C75.5264 16.1865 74.6475 17.1631 73.8467 17.9639L72.8506 19.0771ZM84.9355 0.0195312L85.3457 0.136719H87.3379C87.6016 0.136719 88.6758 0.214844 90.5605 0.371094C90.7754 0.449219 91.4199 0.527344 92.4941 0.605469C93.6953 0.693359 94.6914 0.810547 95.4824 0.957031C95.6777 1.13281 95.7754 1.25 95.7754 1.30859C95.8145 2.27539 95.834 3.01758 95.834 3.53516L96.0684 4.88281C96.1465 5.38086 96.2832 5.84961 96.4785 6.28906C96.6543 6.28906 96.791 6.38672 96.8887 6.58203V6.69922C96.5078 7.77344 95.7852 8.65234 94.7207 9.33594C94.4473 9.64844 93.8027 9.80469 92.7871 9.80469L92.6113 10.0391V10.8594C92.8848 11.0059 93.0215 11.1035 93.0215 11.1523V11.5625C93.0215 11.6113 92.9238 11.6895 92.7285 11.7969C92.6895 11.7969 92.6699 11.7773 92.6699 11.7383C92.5723 11.7383 92.084 12.168 91.2051 13.0273C90.6973 13.2715 90.2676 13.5254 89.916 13.7891C89.6816 13.7891 89.5645 13.8477 89.5645 13.9648C89.7109 14.2773 89.9453 14.4336 90.2676 14.4336C90.4141 14.4238 90.6094 14.1504 90.8535 13.6133C91.127 13.3789 91.5176 13.1445 92.0254 12.9102H92.7285C93.002 12.9102 93.1387 12.8711 93.1387 12.793L93.4316 12.8516H94.4863L94.8965 12.793C95.1406 12.9688 95.5703 13.125 96.1855 13.2617C96.1855 13.3398 96.2051 13.3789 96.2441 13.3789L96.1855 13.6719V18.3008C96.3809 18.75 96.4785 19.0039 96.4785 19.0625C96.2832 19.1992 95.9902 19.9609 95.5996 21.3477L95.3652 21.5234H94.0176L93.3145 21.6406C91.9082 21.6406 89.6035 21.8164 86.4004 22.168H85.0527C84.877 22.168 83.7832 21.9922 81.7715 21.6406C80.248 21.5039 79.4863 21.3477 79.4863 21.1719C79.5254 20.5859 79.5449 20.1562 79.5449 19.8828V17.7148C79.5449 16.875 79.4668 15.9961 79.3105 15.0781C79.3789 14.9805 79.7305 14.7266 80.3652 14.3164C80.9512 13.6328 81.2441 13.1055 81.2441 12.7344V10.5078L81.127 10.332V10.1562C81.2148 9.6875 81.293 9.375 81.3613 9.21875C81.127 8.125 80.834 7.57812 80.4824 7.57812C80.4824 7.5 80.4043 7.46094 80.248 7.46094C80.248 7.51953 80.1895 7.57812 80.0723 7.63672H79.6621C79.4473 7.63672 79.3301 6.69922 79.3105 4.82422C79.2324 4.82422 79.1934 4.76562 79.1934 4.64844C79.1934 3.62305 79.1152 3.05664 78.959 2.94922V2.89062C78.959 2.69531 79.3691 2.16797 80.1895 1.30859C80.7461 0.527344 81.3516 0.136719 82.0059 0.136719L82.416 0.371094H82.5918C82.8164 0.371094 83.5977 0.253906 84.9355 0.0195312ZM82.0059 2.71484V3.125C82.2402 2.99805 82.8652 2.56836 83.8809 1.83594C84.4668 1.47461 84.9551 1.2207 85.3457 1.07422V1.01562C85.3457 0.9375 85.3066 0.898438 85.2285 0.898438H85.1113C83.5488 1.5918 82.6113 2.08008 82.2988 2.36328C82.1035 2.36328 82.0059 2.48047 82.0059 2.71484ZM81.9473 4.35547H82.0645C83.0898 3.63281 84.5742 2.69531 86.5176 1.54297L87.1035 1.01562C87.1035 0.9375 87.0645 0.898438 86.9863 0.898438H86.5762C85.6484 1.04492 84.1055 1.96289 81.9473 3.65234V4.35547ZM83.0605 1.42578H83.3535C83.7051 1.2793 83.9004 1.14258 83.9395 1.01562V0.957031H83.8809C83.4707 1.07422 83.1973 1.23047 83.0605 1.42578ZM82.123 4.70703C82.1328 4.78516 82.1719 4.82422 82.2402 4.82422H82.8262C83.373 4.48242 84.7598 3.7207 86.9863 2.53906C87.6895 2.04102 88.2559 1.5918 88.6855 1.19141C88.666 1.07422 88.5098 1.01562 88.2168 1.01562H87.9824C87.6992 1.01562 87.1523 1.34766 86.3418 2.01172C84.7109 2.97852 83.3047 3.87695 82.123 4.70703ZM82.0645 1.36719V1.48438H82.123C82.3379 1.48438 82.4746 1.40625 82.5332 1.25V1.13281C82.4551 1.13281 82.416 1.11328 82.416 1.07422C82.2598 1.12305 82.1426 1.2207 82.0645 1.36719ZM83.0605 5.11719C83.2363 5.11719 83.4121 5.19531 83.5879 5.35156H83.8809C84.6523 4.81445 86.1562 3.89648 88.3926 2.59766C89.2422 2.08008 89.8477 1.65039 90.209 1.30859V1.19141H89.7402C89.5742 1.19141 89.418 1.15234 89.2715 1.07422C87.8652 2.36328 86.6152 3.22266 85.5215 3.65234C85.1797 3.86719 84.418 4.27734 83.2363 4.88281L83.0605 5.11719ZM83.8809 5.76172V6.75781H84.0566C86.0684 5.44922 88.3145 3.90625 90.7949 2.12891C91.3516 1.77734 91.6641 1.54297 91.7324 1.42578V1.36719C91.4297 1.36719 91.1562 1.32812 90.9121 1.25C89.5547 2.22656 87.3477 3.61328 84.291 5.41016C84.0176 5.60547 83.8809 5.72266 83.8809 5.76172ZM83.7637 7.92969L83.8809 7.98828H83.9395C84.9258 7.35352 86.7422 6.06445 89.3887 4.12109C90.6582 3.36914 91.791 2.50977 92.7871 1.54297V1.48438C92.6992 1.48438 92.6211 1.46484 92.5527 1.42578C92.2891 1.42578 91.293 2.08984 89.5645 3.41797C89.418 3.44727 88.6562 3.97461 87.2793 5L83.9395 7.22656C83.8223 7.55859 83.7637 7.79297 83.7637 7.92969ZM82.8262 1.48438V1.60156H83.002V1.48438H82.8262ZM89.623 4.41406V4.53125H90.6777L92.4941 3.24219C93.4707 2.36328 94.1152 1.91406 94.4277 1.89453L94.4863 2.01172V2.07031C92.7871 3.37891 91.8691 4.0625 91.7324 4.12109L91.3809 4.47266V4.58984C91.5469 4.58984 91.7422 4.66797 91.9668 4.82422H92.0254C92.2109 4.82422 93.207 4.08203 95.0137 2.59766C95.0137 1.93359 94.7207 1.60156 94.1348 1.60156C94.1348 1.5625 93.9199 1.54297 93.4902 1.54297H93.3145C92.7285 2.12891 91.498 3.08594 89.623 4.41406ZM82.3574 1.77734H82.5332V1.66016H82.4746C82.3965 1.66992 82.3574 1.70898 82.3574 1.77734ZM82.123 1.83594V1.95312H82.2988V1.83594H82.123ZM92.377 5V5.23438C92.5527 5.39062 92.6699 5.80078 92.7285 6.46484C92.9922 6.46484 93.5781 5.99609 94.4863 5.05859C94.7012 4.77539 94.8965 4.54102 95.0723 4.35547V3.76953C95.0723 3.57422 95.0332 3.33984 94.9551 3.06641H94.8965C93.8223 3.97461 92.9824 4.61914 92.377 5ZM89.4473 4.47266V4.58984H89.5645C89.5645 4.51172 89.5254 4.47266 89.4473 4.47266ZM93.666 6.34766L93.959 6.28906H94.7207C95.1504 6.02539 95.3652 5.77148 95.3652 5.52734C95.2773 5.05859 95.1992 4.82422 95.1309 4.82422H95.0723C94.584 5.44922 94.1152 5.91797 93.666 6.23047V6.34766ZM83.7051 8.57422V8.75C83.8125 8.75 84.4961 8.37891 85.7559 7.63672C85.834 7.63672 86.2637 7.40234 87.0449 6.93359C88.1777 6.29883 88.7441 5.84961 88.7441 5.58594L88.8027 5H88.6855C86.8203 6.39648 85.3164 7.45117 84.1738 8.16406C83.8613 8.37891 83.7051 8.51562 83.7051 8.57422ZM95.3652 6.05469C95.3652 6.09375 95.3457 6.15234 95.3066 6.23047L95.4238 6.28906H95.4824V6.05469H95.3652ZM83.7051 9.27734V10.7422L83.7637 10.8594C84.7793 10.1172 85.5215 9.55078 85.9902 9.16016C86.3809 8.84766 87.2793 8.22266 88.6855 7.28516C88.7246 7.2168 88.7441 7.13867 88.7441 7.05078V6.28906H88.6855C88.6172 6.28906 87.8945 6.73828 86.5176 7.63672C84.9746 8.37891 84.0371 8.92578 83.7051 9.27734ZM83.7051 11.2695V12.6758C83.7148 12.7539 83.7539 12.793 83.8223 12.793C85.6875 11.1621 87.3281 9.93164 88.7441 9.10156C88.666 8.97461 88.627 8.85742 88.627 8.75V8.69141C88.627 8.64258 88.666 8.42773 88.7441 8.04688L88.6855 7.75391H88.5684C87.0938 8.73047 85.4727 9.90234 83.7051 11.2695ZM83.7051 14.1992C83.7148 14.2773 83.7539 14.3164 83.8223 14.3164C84.7891 13.5059 85.5898 12.8809 86.2246 12.4414C87.4746 11.3477 88.9199 10.293 90.5605 9.27734L90.4434 9.21875H89.916L89.5059 9.10156C88.1777 9.6875 86.2441 11.0742 83.7051 13.2617V14.1992ZM81.8301 16.3086C81.9082 16.4355 81.9473 16.5527 81.9473 16.6602V16.9531H82.0645C85.1895 14.6973 87.4355 12.959 88.8027 11.7383V11.1523C88.8027 11.0938 88.8613 11.0352 88.9785 10.9766H89.2715L89.623 11.0352C89.7305 11.0352 90.4141 10.4492 91.6738 9.27734L91.5566 9.21875H91.2051C89.623 10.2051 88.1191 11.2793 86.6934 12.4414C85.1797 13.6426 83.5781 14.834 81.8887 16.0156L81.8301 16.3086ZM91.6152 9.62891C91.6152 9.74609 91.1855 10.1758 90.3262 10.918V11.0938H90.6191C90.7656 11.0547 91.1562 10.6836 91.791 9.98047V9.62891H91.6152ZM91.6152 10.5078C91.6152 10.5566 91.498 10.7324 91.2637 11.0352H91.3809L91.791 10.9766V10.5078H91.6152ZM88.627 12.207C88.5098 12.4316 87.6309 13.1934 85.9902 14.4922C85.3262 14.9219 84.3105 15.6445 82.9434 16.6602C82.2793 17.1387 81.9473 17.4121 81.9473 17.4805V18.418C81.957 18.4961 81.9961 18.5352 82.0645 18.5352C83.4609 17.2559 85.3359 15.752 87.6895 14.0234C88.4316 13.4277 88.8027 13.0566 88.8027 12.9102C88.8809 12.7637 88.9199 12.6074 88.9199 12.4414V12.3242C88.9199 12.2461 88.8809 12.207 88.8027 12.207H88.627ZM88.627 13.4961C88.3438 13.9062 87.582 14.5508 86.3418 15.4297C84.5156 16.8262 83.1094 17.959 82.123 18.8281V18.8867H82.1816C82.9922 18.8867 83.5 18.7109 83.7051 18.3594C83.7637 18.3594 84.291 17.8906 85.2871 16.9531C86.5664 16.1328 87.7383 15.2148 88.8027 14.1992V13.4961H88.627ZM89.0371 18.6523V18.7109H89.623C90.9805 17.2461 92.0156 15.9766 92.7285 14.9023C93.3535 14.3066 93.666 13.8965 93.666 13.6719H93.6074C93.0605 13.6719 92.7871 13.8281 92.7871 14.1406C92.748 14.4141 91.9473 15.3711 90.3848 17.0117C90.0527 17.3828 89.6035 17.9297 89.0371 18.6523ZM90.2676 18.4766V18.6523H91.1465C91.9082 17.6172 92.9434 16.3281 94.252 14.7852C94.6035 14.1602 94.7793 13.8086 94.7793 13.7305C94.7402 13.7305 94.7207 13.7109 94.7207 13.6719C94.2715 13.6719 93.8613 13.9648 93.4902 14.5508C93.4512 14.5508 92.7285 15.4492 91.3223 17.2461C91.166 17.4707 90.8145 17.8809 90.2676 18.4766ZM91.6738 18.4766V18.6523H92.1426C92.377 18.6328 92.7676 18.2227 93.3145 17.4219C94.3984 16.0742 95.1016 14.9219 95.4238 13.9648V13.9062C95.4238 13.8281 95.3848 13.7891 95.3066 13.7891H95.1895C95.1211 13.7988 94.8867 14.1895 94.4863 14.9609L91.9668 18.0664L91.6738 18.4766ZM83.7637 18.8281H85.1699C85.834 17.8027 86.8887 16.7676 88.334 15.7227C88.9102 15.2441 89.2031 14.9707 89.2129 14.9023L88.9199 14.668H88.8027C87.7773 15.5371 86.5859 16.4551 85.2285 17.4219C84.2617 18.252 83.7734 18.7207 83.7637 18.8281ZM92.9043 18.4766V18.5352H93.373C94.7402 17.0898 95.4238 16.1133 95.4238 15.6055V14.9609C95.3066 14.9609 94.9746 15.4883 94.4277 16.543L92.9043 18.4766ZM82.416 15.1367V15.1953H82.5918V15.0195H82.5332C82.4551 15.0293 82.416 15.0684 82.416 15.1367ZM91.6738 15.0195C91.6738 15.1465 91.3223 15.2832 90.6191 15.4297C90.4824 15.7129 89.877 16.3965 88.8027 17.4805C88.8027 17.5098 88.5098 17.8613 87.9238 18.5352V18.7109H88.627C88.8613 18.3301 89.2715 17.8223 89.8574 17.1875C89.916 16.9922 90.541 16.3281 91.7324 15.1953H91.791V15.1367C91.791 15.0586 91.752 15.0195 91.6738 15.0195ZM81.8301 15.2539V15.4297C81.8398 15.5078 81.8789 15.5469 81.9473 15.5469H82.0059C82.2402 15.4102 82.3574 15.2734 82.3574 15.1367H82.2402L81.8301 15.2539ZM85.6387 18.7695L85.7559 18.8281H86.8105C87.2891 18.8281 87.7383 18.457 88.1582 17.7148C89.0664 16.8066 89.7695 16.0449 90.2676 15.4297C90.2676 15.3223 90.0332 15.2246 89.5645 15.1367C88.6855 15.7227 87.5527 16.6797 86.166 18.0078C85.8145 18.4473 85.6387 18.7012 85.6387 18.7695ZM93.9004 18.4766V18.5352H94.3691C94.5156 18.418 94.6523 18.3594 94.7793 18.3594H95.0723L95.248 18.4766C95.3066 18.4766 95.3652 18.418 95.4238 18.3008V16.7188H95.3652C95.2383 16.8066 94.75 17.3926 93.9004 18.4766ZM102.338 1.41113L110.248 1.10352C113.627 0.986328 115.814 1.85547 116.811 3.71094C117.123 4.55078 117.279 5.41992 117.279 6.31836V7.13867C117.279 8.01758 117.084 9.04297 116.693 10.2148C116.811 10.4004 116.869 10.5518 116.869 10.6689C116.547 11.6357 116.293 12.2949 116.107 12.6465V12.8223C116.264 13.0176 116.439 13.418 116.635 14.0234C117.104 14.7461 117.826 15.0879 118.803 15.0488H118.861L119.154 14.9756C119.271 15.1221 119.33 15.2979 119.33 15.5029V16.0303C119.252 16.4111 119.213 16.626 119.213 16.6748V17.1436C119.213 17.3682 119.291 17.793 119.447 18.418C119.408 18.4961 119.389 18.5791 119.389 18.667V18.7256C119.467 18.9893 119.506 19.1406 119.506 19.1797V19.5312C119.506 19.6777 119.193 20.1807 118.568 21.04C117.924 21.665 117.416 22.2119 117.045 22.6807H116.928C116.127 22.6025 115.365 22.5781 114.643 22.6074L114.232 22.5049L110.248 22.666C109.535 22.6953 108.637 22.71 107.553 22.71C107.426 22.6611 106.898 22.6025 105.971 22.5342C104.008 22.2998 102.348 22.2119 100.99 22.2705C100.268 22.2998 99.4082 22.4121 98.4121 22.6074C98.334 22.4512 98.2949 22.2363 98.2949 21.9629V20.3809C98.0996 18.7305 97.9629 17.7246 97.8848 17.3633C98.0801 16.9629 98.3535 16.7529 98.7051 16.7334C98.9004 16.6162 98.998 16.5381 98.998 16.499V15.0928C98.998 15.0537 98.959 14.8975 98.8809 14.624V13.4521C98.998 12.6611 99.0566 12.1094 99.0566 11.7969C99.0566 11.2793 98.7832 10.9033 98.2363 10.6689L97.709 10.6836C97.6016 10.6934 97.5234 10.5029 97.4746 10.1123V9.05762C97.4746 8.66699 97.4355 8.47168 97.3574 8.47168L97.416 8.17871V7.76855L97.1816 6.49414C97.2207 6.41602 97.2402 6.33301 97.2402 6.24512C97.084 6.00098 97.0059 5.83008 97.0059 5.73242C97.2109 5.13672 97.5039 4.83398 97.8848 4.82422C98.7539 3.92578 99.3594 3.13965 99.7012 2.46582C99.7793 2.45605 100.014 2.23145 100.404 1.79199C101.176 1.55762 101.82 1.43066 102.338 1.41113ZM102.279 7.40234C102.279 7.50977 102.357 7.81738 102.514 8.3252H102.572C103.5 7.16309 104.516 6.18164 105.619 5.38086C106.605 4.61914 107.367 3.80859 107.904 2.94922C108.021 2.69531 108.236 2.37305 108.549 1.98242C108.549 1.9043 108.51 1.87012 108.432 1.87988L107.729 1.90918C106.986 3.03223 106.029 4.08203 104.857 5.05859C103.49 6.15234 102.631 6.93359 102.279 7.40234ZM100.99 5.62988C101.068 5.90332 101.107 6.11816 101.107 6.27441H101.166C102.807 4.64355 103.783 3.37402 104.096 2.46582C104.154 2.45605 104.213 2.39258 104.271 2.27539V2.2168C104.271 2.13867 104.232 2.09961 104.154 2.09961C103.773 2.11914 103.383 2.54883 102.982 3.38867C102.982 3.52539 102.318 4.2334 100.99 5.5127V5.62988ZM101.4 6.55273C101.527 6.62109 101.625 6.65527 101.693 6.65527C101.703 6.59668 103.148 5.09277 106.029 2.14355C106.029 2.06543 105.99 2.03125 105.912 2.04102L105.092 2.07031C104.779 2.08008 104.545 2.28516 104.389 2.68555C103.93 3.59375 103.129 4.6582 101.986 5.87891C101.596 6.2207 101.4 6.44531 101.4 6.55273ZM101.928 6.93359L102.045 6.99219H102.162C102.729 6.44531 103.92 5.41992 105.736 3.91602C106.273 3.32031 106.762 2.71484 107.201 2.09961C107.201 2.02148 107.162 1.98242 107.084 1.98242L106.674 1.99707C106.439 2.08496 104.857 3.69141 101.928 6.81641V6.93359ZM102.396 9.55566C102.436 9.63379 102.455 9.69238 102.455 9.73145L102.396 10.0244C102.592 10.0146 102.904 9.69238 103.334 9.05762C104.76 7.2998 106.381 5.64941 108.197 4.10645C108.812 3.47168 109.398 2.7832 109.955 2.04102V1.92383L109.662 1.87988L109.486 1.89453C108.969 1.91406 108.344 2.58301 107.611 3.90137C107.104 4.53613 105.99 5.53711 104.271 6.9043C103.061 8.03711 102.455 8.90137 102.455 9.49707C102.416 9.49707 102.396 9.5166 102.396 9.55566ZM102.396 10.7275C102.475 10.8545 102.514 10.9717 102.514 11.0791V11.3721L102.689 11.3574C103.656 9.94141 105.18 8.35938 107.26 6.61133C107.26 6.55273 107.689 6.18164 108.549 5.49805C110.814 3.32031 111.947 2.12402 111.947 1.90918L110.834 1.95312C110.639 1.96289 110.541 1.92871 110.541 1.85059C110.404 1.89941 110.189 2.16309 109.896 2.6416C108.344 4.37988 107.23 5.49805 106.557 5.99609C104.867 7.69531 103.48 9.27246 102.396 10.7275ZM100.814 3.24219V3.94531C100.824 4.02344 100.863 4.05762 100.932 4.04785H100.99C101.508 3.5791 101.938 3.05664 102.279 2.48047V2.30469L101.811 2.31934C101.566 2.3291 101.234 2.63672 100.814 3.24219ZM100.932 4.63379V4.98535H100.99C101.889 4.30176 102.553 3.57422 102.982 2.80273C103.1 2.59766 103.158 2.43652 103.158 2.31934V2.26074H103.1C102.758 2.28027 102.445 2.58789 102.162 3.18359C101.859 3.61328 101.449 4.09668 100.932 4.63379ZM108.139 6.27441V6.3916H108.256C108.568 6.38184 108.939 6.38672 109.369 6.40625C109.955 6.04492 111.264 4.70215 113.295 2.37793C113.295 2.25098 113.002 2.12891 112.416 2.01172H112.299C111.713 2.82227 110.326 4.24316 108.139 6.27441ZM109.779 6.4502V6.56738C109.809 6.68457 109.965 6.73828 110.248 6.72852C110.443 6.47461 111.205 5.7959 112.533 4.69238C112.533 4.52637 113.1 3.88184 114.232 2.75879V2.6416C114.086 2.6416 113.93 2.58789 113.764 2.48047H113.646C111.977 4.39453 110.688 5.71777 109.779 6.4502ZM110.424 7.00684L110.717 7.46094L110.658 7.59277L110.775 7.63672H110.893L113.881 5.11719C114.857 4.07227 115.346 3.48633 115.346 3.35938V3.30078C115.346 3.18359 115.092 3.05664 114.584 2.91992C114.311 2.98828 113.588 3.75977 112.416 5.23438C111.254 6.11328 110.59 6.7041 110.424 7.00684ZM110.717 8.51562H110.775C111.811 7.63672 113.139 6.58691 114.76 5.36621C115.297 4.8877 115.688 4.42383 115.932 3.97461V3.85742C115.785 3.63281 115.688 3.52051 115.639 3.52051C114.74 4.76074 113.803 5.71777 112.826 6.3916C111.42 7.53418 110.717 8.18359 110.717 8.33984V8.51562ZM104.271 14.7559V14.8145H104.389C105.6 13.9746 107.475 12.4707 110.014 10.3027C111.859 8.94531 113.402 7.67578 114.643 6.49414C115.268 5.53711 115.795 4.92676 116.225 4.66309V4.37012L116.107 4.38477C115.16 5.42969 114.008 6.41113 112.65 7.3291C112.494 7.53418 111.654 8.23242 110.131 9.42383C110.121 9.47266 109.281 10.2295 107.611 11.6943C106.342 12.8174 105.229 13.8379 104.271 14.7559ZM106.967 13.2471L107.084 13.291H107.143C107.973 12.7441 109.145 11.9189 110.658 10.8154C111.078 10.7959 112.211 9.92676 114.057 8.20801C114.789 7.24121 115.473 6.45508 116.107 5.84961L116.4 5.83496L116.342 5.01465H116.166C115.932 5.20996 115.502 5.75684 114.877 6.65527C114.701 6.91895 113.627 7.86133 111.654 9.48242C110.57 10.2148 109.008 11.4697 106.967 13.2471ZM110.6 11.4014V11.5771H110.658C110.805 11.4502 111.352 11.1523 112.299 10.6836C112.914 10.2441 114.125 9.12109 115.932 7.31445C115.99 7.31445 116.146 7.23145 116.4 7.06543V6.4209L116.459 6.12793L116.342 6.06934H116.283C115.932 6.38184 115.248 7.17285 114.232 8.44238C113.051 9.59473 111.84 10.5811 110.6 11.4014ZM102.572 12.1338V12.3682L102.689 12.8809H102.865C102.865 12.8027 104.311 11.377 107.201 8.60352L107.143 8.31055V7.60742L107.201 7.19727H107.143C106.332 7.67578 105.16 8.81836 103.627 10.625C102.924 11.4258 102.572 11.9287 102.572 12.1338ZM111.127 11.665L111.01 11.6211C110.99 11.6211 110.248 12.1973 108.783 13.3496L108.9 13.3936L110.131 13.3496C112.133 12.3438 113.266 11.6357 113.529 11.2256C113.529 10.9521 113.783 10.7666 114.291 10.6689C114.975 9.93652 115.365 9.56543 115.463 9.55566L115.404 9.45312V9.33594C115.404 9.18945 115.678 9.07715 116.225 8.99902C116.225 8.90137 116.303 8.43262 116.459 7.59277C116.42 7.51465 116.4 7.45605 116.4 7.41699H116.342C115.59 8.05176 114.887 8.72559 114.232 9.43848C112.562 10.9131 111.527 11.6553 111.127 11.665ZM103.686 12.5L103.803 12.5439C105.023 11.7432 106.098 10.9229 107.025 10.083C107.025 10.0049 107.104 9.96094 107.26 9.95117V9.83398L107.084 9.59961V9.18945L107.025 9.2041C105.736 10.415 104.623 11.5137 103.686 12.5ZM102.689 13.6426V14.2871C102.699 14.3652 102.738 14.4043 102.807 14.4043C102.807 14.3359 103.002 14.1504 103.393 13.8477C103.715 13.5059 105.199 12.2949 107.846 10.2148L108.549 9.59961L108.432 9.55566C108.021 9.56543 107.396 10.0195 106.557 10.918C105.971 11.4062 104.682 12.3145 102.689 13.6426ZM102.807 14.8145C102.865 15.2441 102.963 15.4541 103.1 15.4443C105.541 13.1006 107.709 11.1377 109.604 9.55566V9.49707L109.135 9.52637L103.51 14.082C103.041 14.541 102.807 14.7852 102.807 14.8145ZM110.893 13.3203V13.4375L111.01 13.3789C111.068 13.3691 111.264 13.5352 111.596 13.877C112.367 13.5254 113.148 12.9688 113.939 12.207C113.939 11.7383 114.193 11.4893 114.701 11.46C115.238 10.9814 115.688 10.3613 116.049 9.59961V9.42383H115.99C113.939 11.4453 112.455 12.6172 111.537 12.9395C111.107 13.1055 110.893 13.2324 110.893 13.3203ZM107.67 13.5693L107.787 13.6133H107.963L110.424 11.6357V11.5771L110.131 11.5918C109.955 11.6602 109.779 11.8408 109.604 12.1338C109.369 12.1436 109.018 12.334 108.549 12.7051C108.373 12.9883 108.08 13.2764 107.67 13.5693ZM103.393 12.6758V12.7344H103.51C103.588 12.7344 103.627 12.6953 103.627 12.6172V12.5586H103.51C103.432 12.5684 103.393 12.6074 103.393 12.6758ZM114.115 12.4268C113.402 13.1299 112.66 13.6865 111.889 14.0967L111.83 14.2139V14.2725C112.016 14.5459 112.133 14.6777 112.182 14.668H112.24C112.514 14.541 113.217 14.043 114.35 13.1738C114.623 13.0078 114.76 12.9053 114.76 12.8662C114.76 12.6709 114.545 12.5244 114.115 12.4268ZM106.732 13.4229V13.4814H106.908V13.3057H106.85C106.771 13.3154 106.732 13.3545 106.732 13.4229ZM112.299 15.0195C112.367 15.4883 112.465 15.7178 112.592 15.708H112.65C113.949 14.9072 114.906 14.2822 115.521 13.833L115.639 13.7744C115.561 13.3057 115.385 13.0762 115.111 13.0859C114.789 13.2129 114.047 13.7305 112.885 14.6387C112.748 14.6484 112.553 14.7754 112.299 15.0195ZM101.635 17.2607V17.9053C101.635 17.9639 101.693 18.0225 101.811 18.0811C104.936 15.376 106.557 14.0186 106.674 14.0088V13.9502L106.615 13.6719C106.654 13.6621 106.674 13.6377 106.674 13.5986L106.498 13.6133C105.824 14.1992 104.828 14.9023 103.51 15.7227C103.148 15.9375 102.836 16.2451 102.572 16.6455C102.104 17.0557 101.791 17.2607 101.635 17.2607ZM101.811 18.4326V18.96C101.889 19.0479 101.928 19.1211 101.928 19.1797C102.143 19.1797 103.471 18.0762 105.912 15.8691C106.645 15.2148 107.074 14.8828 107.201 14.873L107.143 14.3457L107.201 14.1113L107.084 14.0527C106.195 14.7168 104.672 15.9912 102.514 17.876C102.143 18.2373 101.908 18.4229 101.811 18.4326ZM112.592 16.2354C112.631 16.3135 112.65 16.3721 112.65 16.4111C112.572 16.5283 112.104 16.7041 111.244 16.9385L110.6 17.4951C110.6 17.7881 110.561 17.9834 110.482 18.0811C110.521 18.1592 110.541 18.2178 110.541 18.2568C110.463 18.5107 110.424 18.6865 110.424 18.7842V19.1357H110.541L114.057 16.5869C115.219 15.6299 115.941 15.0928 116.225 14.9756C115.873 14.4873 115.697 14.1846 115.697 14.0674H115.639C115.297 14.3896 114.633 14.8438 113.646 15.4297C112.953 15.8008 112.602 16.0693 112.592 16.2354ZM102.279 19.4141V19.4727L103.744 19.4141C104.838 18.4473 105.873 17.5049 106.85 16.5869L107.318 16.2207L107.26 15.5176V15.2246H107.143C104.789 17.2852 103.188 18.6572 102.338 19.3408C102.299 19.3506 102.279 19.375 102.279 19.4141ZM110.482 19.6045V19.6631L111.186 19.5752L111.771 19.5459C111.879 19.5459 112.309 19.2578 113.061 18.6816C114.008 18.125 115.316 17.1338 116.986 15.708V15.6494C116.977 15.5713 116.801 15.4248 116.459 15.21H116.342C115.648 15.6982 114.633 16.4795 113.295 17.5537C112.514 18.0225 111.576 18.7061 110.482 19.6045ZM117.279 15.752C117.045 16.0352 116.342 16.6504 115.17 17.5977C114.857 17.8418 114.037 18.4033 112.709 19.2822L112.65 19.3994V19.5166L113.529 19.4873C113.695 19.4775 114.223 19.0625 115.111 18.2422C115.346 18.2324 116.283 17.4561 117.924 15.9131C117.768 15.7959 117.553 15.7422 117.279 15.752ZM104.271 19.3848C104.281 19.4629 104.32 19.502 104.389 19.502L105.209 19.458C106.166 18.7939 107.221 17.915 108.373 16.8213C107.992 16.6748 107.738 16.5479 107.611 16.4404H107.494C106.322 17.4658 105.248 18.4473 104.271 19.3848ZM114.174 19.458V19.5166L114.643 19.502C114.799 19.4922 115.053 19.5215 115.404 19.5898C115.6 19.5801 116.4 18.8623 117.807 17.4365L118.393 16.9971L118.334 16.5869C118.334 16.5479 118.373 16.3916 118.451 16.1182L118.393 16.001C118.217 16.0107 117.514 16.626 116.283 17.8467C116.166 17.8564 115.463 18.3936 114.174 19.458ZM105.736 19.4434L105.854 19.502L106.967 19.458C108.1 18.6475 108.666 18.0371 108.666 17.627V17.0996H108.549C107.768 17.8418 106.83 18.623 105.736 19.4434ZM116.107 19.5605V19.6191L116.518 19.5898C116.596 19.5898 116.791 19.624 117.104 19.6924C117.836 18.8428 118.324 18.4131 118.568 18.4033V18.2275C118.471 17.7197 118.373 17.4707 118.275 17.4805H118.217C117.504 18.0762 116.801 18.7695 116.107 19.5605ZM107.611 19.2529V19.3701C107.65 19.4873 107.768 19.541 107.963 19.5312L108.549 19.502C108.627 19.502 108.666 19.4629 108.666 19.3848V18.5059H108.549C108.109 18.9941 107.797 19.2432 107.611 19.2529ZM117.631 19.6631L117.748 19.7217L118.451 19.6924C118.686 19.6826 118.803 19.5996 118.803 19.4434C118.725 19.3262 118.686 19.2139 118.686 19.1064L118.744 18.9746C118.705 18.916 118.686 18.8428 118.686 18.7549C118.314 18.7646 117.963 19.0674 117.631 19.6631ZM122.348 0.869141L122.465 1.04492C122.543 1.04492 122.836 0.986328 123.344 0.869141H130.258L130.668 0.986328C132.416 1.02539 133.607 1.04492 134.242 1.04492C134.662 1.12305 134.936 1.16211 135.062 1.16211H137.523C138.266 1.16211 138.637 1.25977 138.637 1.45508V1.57227C138.52 2.38281 138.461 3.47656 138.461 4.85352C138.383 4.9707 138.344 5.10742 138.344 5.26367C138.344 5.625 138.324 6.26953 138.285 7.19727C137.006 8.36914 135.697 9.91211 134.359 11.8262L132.367 14.6973V14.8145H132.602C132.875 14.8926 133.031 14.9316 133.07 14.9316C133.578 14.9316 134.066 14.3457 134.535 13.1738C134.652 13.0957 134.828 13.0176 135.062 12.9395L135.414 12.998L135.648 12.9395C135.795 13.0176 135.951 13.0566 136.117 13.0566H138.402L138.812 12.6465C139.203 12.6465 139.398 12.9004 139.398 13.4082L139.516 13.8184V17.2754C139.516 18.3594 139.574 19.082 139.691 19.4434V19.502C139.486 20.1172 139.115 20.5664 138.578 20.8496C137.582 21.5527 137.016 22.0801 136.879 22.4316L136.762 22.4902H135.473C135.023 22.4902 134.613 22.5098 134.242 22.5488C134.037 22.5098 133.666 22.4902 133.129 22.4902H133.012C131.283 22.1387 129.896 21.9629 128.852 21.9629H128.617C128.588 21.9629 128.432 21.9238 128.148 21.8457H127.738C127.172 21.9238 126.859 21.9629 126.801 21.9629H126.508C124.916 21.9629 122.768 21.9824 120.062 22.0215L119.77 21.7285V16.5723C119.779 16.377 119.818 16.2793 119.887 16.2793L119.828 16.1621V14.7559C119.965 14.3457 120.16 14.0918 120.414 13.9941C120.766 13.9258 121.996 12.832 124.105 10.7129C124.105 10.625 124.281 10.3906 124.633 10.0098C124.672 9.93164 124.691 9.87305 124.691 9.83398L124.574 9.77539H120.707C120.668 9.77539 120.512 9.81445 120.238 9.89258H120.062C119.945 9.89258 119.789 9.83398 119.594 9.7168C119.594 9.48242 119.613 9.07227 119.652 8.48633C119.613 7.02148 119.594 6.12305 119.594 5.79102C119.76 4.78516 119.936 4.21875 120.121 4.0918C120.668 3.26172 121.156 2.32422 121.586 1.2793C121.791 1.00586 122.045 0.869141 122.348 0.869141ZM127.035 1.68945C126.938 2.23633 126.293 3.11523 125.102 4.32617C124.135 5.22461 123.373 6.04492 122.816 6.78711V6.8457C122.826 6.92383 122.865 6.96289 122.934 6.96289H123.285C123.969 6.03516 124.672 5.19531 125.395 4.44336C126.879 2.87109 127.621 1.95312 127.621 1.68945H127.035ZM123.754 6.96289L123.93 7.08008H124.281C124.506 7.08008 124.896 6.65039 125.453 5.79102C126.547 4.54102 127.582 3.21289 128.559 1.80664V1.68945H128.266C128.041 1.68945 127.826 1.9043 127.621 2.33398C127.221 2.91992 126.205 4.07227 124.574 5.79102C124.066 6.42578 123.793 6.81641 123.754 6.96289ZM124.984 7.19727L125.102 7.13867H125.98C126.039 7.13867 126.117 6.9043 126.215 6.43555C126.176 6.35742 126.156 6.29883 126.156 6.25977C126.215 6.25 126.312 6.01562 126.449 5.55664C126.752 5.16602 127.084 4.91211 127.445 4.79492C127.445 4.72656 127.875 4.16016 128.734 3.0957C129.066 2.5293 129.359 2.11914 129.613 1.86523C129.613 1.80664 129.555 1.74805 129.438 1.68945H129.262C129.008 1.68945 128.695 2.02148 128.324 2.68555C127.357 3.96484 126.264 5.35156 125.043 6.8457L124.984 7.19727ZM122.641 2.39258C122.748 2.39258 122.943 2.2168 123.227 1.86523C123.227 1.78711 123.188 1.74805 123.109 1.74805H123.051C122.777 1.95312 122.641 2.16797 122.641 2.39258ZM122.465 5.08789V5.38086H122.582C123.822 4.16992 124.799 2.99805 125.512 1.86523C125.512 1.78711 125.473 1.74805 125.395 1.74805H125.336C124.506 2.39258 123.842 3.17383 123.344 4.0918C122.768 4.6875 122.475 5.01953 122.465 5.08789ZM122.465 6.25977L122.523 6.37695C122.445 6.50391 122.406 6.60156 122.406 6.66992L122.523 6.72852C122.523 6.54297 123.598 5.37109 125.746 3.21289C126.176 2.66602 126.469 2.23633 126.625 1.92383V1.86523C126.625 1.78711 126.586 1.74805 126.508 1.74805H126.391C125.98 1.74805 125.512 2.2168 124.984 3.1543C124.594 3.67187 123.891 4.47266 122.875 5.55664C122.602 5.81055 122.465 6.04492 122.465 6.25977ZM127.914 4.61914V4.67773C127.924 4.75586 127.963 4.79492 128.031 4.79492H128.266L130.727 1.86523C130.727 1.78711 130.688 1.74805 130.609 1.74805H130.141C129.936 1.88477 129.35 2.66602 128.383 4.0918C128.363 4.0918 128.207 4.26758 127.914 4.61914ZM128.793 4.67773V4.85352C129.027 4.85352 129.145 4.89258 129.145 4.9707C129.193 4.9707 129.486 4.59961 130.023 3.85742C130.316 3.52539 130.668 2.95898 131.078 2.1582C131.127 2.1582 131.225 2.06055 131.371 1.86523V1.80664C131.293 1.80664 131.254 1.78711 131.254 1.74805C131.176 1.74805 130.355 2.72461 128.793 4.67773ZM123.637 1.80664C123.002 2.58789 122.65 2.97852 122.582 2.97852V3.21289H122.758C122.758 3.0957 123.109 2.64648 123.812 1.86523V1.80664H123.637ZM122.465 4.20898V4.26758C122.475 4.3457 122.514 4.38477 122.582 4.38477H122.641C122.748 4.32617 123.256 3.66211 124.164 2.39258C124.418 2.08008 124.594 1.92383 124.691 1.92383V1.80664H124.457C123.129 2.98828 122.465 3.78906 122.465 4.20898ZM129.672 4.85352L130.199 5.14648H130.316C130.941 4.47266 131.566 3.55469 132.191 2.39258C132.426 2.1582 132.543 1.98242 132.543 1.86523H131.84C131.635 1.88477 131.225 2.4707 130.609 3.62305L129.672 4.85352ZM122.406 16.0449V17.4512H122.523C124.76 14.6289 126.381 12.4414 127.387 10.8887C128.881 8.88672 130.521 6.50391 132.309 3.74023C132.904 2.75391 133.295 2.1875 133.48 2.04102V1.86523H133.246C132.797 2.03125 132.133 2.92969 131.254 4.56055C130.209 5.69336 129.604 6.57227 129.438 7.19727C128.578 8.73047 127.562 10.2344 126.391 11.709C125.971 12.207 125.092 13.1055 123.754 14.4043L122.406 16.0449ZM122.465 18.2715V18.623C122.562 18.623 123.129 17.8809 124.164 16.3965C126.039 14.0234 127.855 11.543 129.613 8.95508C131.43 6.39648 132.973 4.0918 134.242 2.04102C134.242 1.96289 134.184 1.92383 134.066 1.92383C133.607 2.20703 133.002 3.06641 132.25 4.50195C130.014 7.71484 128.822 9.45312 128.676 9.7168C128.178 10.3223 127.24 11.6309 125.863 13.6426C124.711 15.1074 123.852 16.2402 123.285 17.041C122.738 17.7051 122.465 18.1152 122.465 18.2715ZM122.582 19.209V19.3848C123.324 19.2676 123.695 19.0723 123.695 18.7988L129.203 11.3574L132.133 7.13867C133.52 5.16602 134.496 3.68164 135.062 2.68555C135.336 2.33398 135.473 2.09961 135.473 1.98242L135.18 1.92383H135.004C134.652 1.92383 133.969 2.86133 132.953 4.73633C132.777 4.87305 132.367 5.47852 131.723 6.55273C131.674 6.5625 130.111 8.76953 127.035 13.1738C124.701 16.1719 123.217 18.1836 122.582 19.209ZM123.871 19.0918V19.209H124.34C124.438 18.8574 125.551 17.2754 127.68 14.4629C128.168 13.9355 129.398 12.2363 131.371 9.36523C133.5 6.38672 135.102 4.00391 136.176 2.2168C136.234 2.2168 136.293 2.1582 136.352 2.04102C136.352 1.96289 136.312 1.92383 136.234 1.92383C135.922 1.92383 135.395 2.60742 134.652 3.97461C132.865 6.66016 131.127 9.17969 129.438 11.5332L126.918 14.9902C126.264 15.7617 125.248 17.1289 123.871 19.0918ZM124.691 19.0918V19.209H124.984C125.219 19.209 125.57 18.7988 126.039 17.9785C128.295 15.0195 129.857 12.9297 130.727 11.709L133.832 7.31445L137.23 2.1582C137.309 2.1582 137.348 2.11914 137.348 2.04102C137.348 1.96289 137.309 1.92383 137.23 1.92383H137.172C136.82 1.92383 136.508 2.19727 136.234 2.74414C134.73 5.14648 132.133 8.91602 128.441 14.0527C126.479 16.5625 125.229 18.2422 124.691 19.0918ZM125.746 18.9746V19.1504H125.805C125.99 19.1309 126.518 18.4863 127.387 17.2168C129.301 14.7949 131.508 11.748 134.008 8.07617C134.125 7.97852 134.789 7.02148 136 5.20508C137.172 3.42773 137.758 2.4707 137.758 2.33398V2.27539C137.758 2.19727 137.719 2.1582 137.641 2.1582C137.094 2.85156 136.43 3.86719 135.648 5.20508L131.723 10.8301C130.199 12.9785 129.223 14.3262 128.793 14.873C127.484 16.5332 126.469 17.9004 125.746 18.9746ZM126.508 18.9746V19.0332H126.742C128.617 16.6016 129.555 15.3711 129.555 15.3418C130.424 14.2383 132.279 11.6211 135.121 7.49023C136.801 5.01953 137.641 3.69141 137.641 3.50586V3.44727H137.523C137.357 3.59375 136.986 4.17969 136.41 5.20508C132.846 10.3711 130.111 14.1992 128.207 16.6895C127.328 17.8027 126.762 18.5645 126.508 18.9746ZM135.473 7.49023V7.60742H135.531C135.844 7.39258 136.332 7.13867 136.996 6.8457C137.387 6.36719 137.582 5.89844 137.582 5.43945V4.79492L137.523 4.38477C136.781 5.5957 136.098 6.63086 135.473 7.49023ZM132.777 19.209H133.012C133.188 19.043 133.734 18.1836 134.652 16.6309L136.352 14.0527C136.391 13.9844 136.41 13.9062 136.41 13.8184H136.293C136.068 13.9453 135.502 14.7461 134.594 16.2207C133.783 17.4219 133.178 18.3984 132.777 19.1504V19.209ZM135.531 13.877C134.379 15.5469 133.285 17.2656 132.25 19.0332V19.1504H132.309C132.543 18.916 133.207 17.8809 134.301 16.0449C134.408 15.9473 134.838 15.3027 135.59 14.1113C135.629 14.1113 135.648 14.0918 135.648 14.0527V13.9941C135.648 13.916 135.609 13.877 135.531 13.877ZM133.48 19.0918V19.1504C133.49 19.2285 133.529 19.2676 133.598 19.2676C133.754 19.1504 134.73 17.627 136.527 14.6973C136.596 14.6973 136.771 14.4629 137.055 13.9941C137.055 13.916 137.016 13.877 136.938 13.877H136.879C136.293 14.6582 135.16 16.3965 133.48 19.0918ZM134.711 19.3262V19.3848H134.945C136.02 17.5684 137.172 15.752 138.402 13.9355V13.877H138.344C138.188 13.877 136.977 15.6934 134.711 19.3262ZM134.125 19.2676V19.3262H134.301C134.457 19.2188 135.141 18.1445 136.352 16.1035C136.547 15.918 136.957 15.293 137.582 14.2285C137.641 14.2285 137.699 14.1699 137.758 14.0527V13.9355H137.523C135.258 17.207 134.125 18.9844 134.125 19.2676ZM135.297 19.4434L135.414 19.502C135.688 19.502 136.117 18.9355 136.703 17.8027C138.031 15.8691 138.695 14.834 138.695 14.6973C138.695 14.4238 138.715 14.2676 138.754 14.2285H138.637C138.334 14.5215 137.885 15.1855 137.289 16.2207C136.4 17.5 135.736 18.5547 135.297 19.3848V19.4434ZM130.316 14.8145L127.211 18.9746V19.0332H128.09C128.744 18.0664 129.643 16.7969 130.785 15.2246C130.717 15.0488 130.6 14.9121 130.434 14.8145H130.316ZM122.406 15.166V15.4004C122.416 15.4785 122.455 15.5176 122.523 15.5176C122.523 15.4688 122.621 15.293 122.816 14.9902H122.699C122.572 15.1074 122.475 15.166 122.406 15.166ZM128.559 18.916V19.0332H128.91C129.047 18.8965 129.789 17.7051 131.137 15.459H131.078C130.951 15.5078 130.248 16.4453 128.969 18.2715C128.881 18.4766 128.744 18.6914 128.559 18.916ZM131.488 15.5176L129.379 18.916V19.0332H129.789C129.789 18.9453 130.453 17.8125 131.781 15.6348C131.654 15.5566 131.557 15.5176 131.488 15.5176ZM131.605 19.0918C131.645 19.0918 131.664 19.1113 131.664 19.1504C131.908 19.0137 132.299 18.4277 132.836 17.3926C132.875 17.3926 133.266 16.8066 134.008 15.6348V15.5176H133.832C133.041 16.582 132.299 17.7734 131.605 19.0918ZM130.141 19.0918L130.258 19.1504C130.395 19.1406 130.98 18.2422 132.016 16.4551L132.484 15.8105V15.752C132.484 15.6738 132.445 15.6348 132.367 15.6348H132.25C132.055 15.8301 131.43 16.8066 130.375 18.5645C130.219 18.7695 130.141 18.9453 130.141 19.0918ZM136.117 19.3262C136.127 19.4043 136.166 19.4434 136.234 19.4434L138.637 15.8105V15.6348H138.578C137.68 16.875 136.996 17.9102 136.527 18.7402C136.527 18.7891 136.391 18.9844 136.117 19.3262ZM130.844 19.0918L130.961 19.1504H131.078C131.205 19.0918 131.557 18.5449 132.133 17.5098L133.246 15.8105C133.246 15.7324 133.207 15.6934 133.129 15.6934H132.953C132.191 16.7285 131.488 17.8418 130.844 19.0332V19.0918ZM136.703 19.2676V19.3848H136.879C136.928 19.3848 137.533 18.4863 138.695 16.6895V16.4551H138.637C138.529 16.4648 137.885 17.4023 136.703 19.2676ZM138.461 17.5098C138.461 17.6562 138.344 17.8516 138.109 18.0957C138.119 18.1738 138.158 18.2129 138.227 18.2129C138.5 17.8613 138.637 17.6465 138.637 17.5684L138.52 17.5098H138.461ZM137.758 19.3262V19.3848C138.422 19.3555 138.754 19.3164 138.754 19.2676L138.812 19.1504C138.734 19.0234 138.695 18.9062 138.695 18.7988V18.2129H138.637C138.568 18.2129 138.275 18.584 137.758 19.3262ZM137.934 18.3301C137.934 18.4277 137.875 18.5254 137.758 18.623V18.7402C137.904 18.584 138.002 18.5059 138.051 18.5059V18.3301H137.934ZM150.897 1.01562C151.249 1.09375 151.483 1.13281 151.601 1.13281C152.831 1.13281 153.847 1.19141 154.647 1.30859H155.351C155.409 1.30859 155.722 1.26953 156.288 1.19141C156.366 1.21094 156.444 1.30859 156.522 1.48438C156.562 2.56836 156.581 3.4668 156.581 4.17969C156.659 4.45313 156.698 4.60937 156.698 4.64844V5.41016L156.64 5.52734C156.688 5.52734 156.767 5.72266 156.874 6.11328C156.786 6.38672 156.649 6.52344 156.464 6.52344C156.21 6.52344 155.937 6.5625 155.644 6.64062C155.917 8.18359 156.425 10.1562 157.167 12.5586C157.831 13.8379 158.163 14.541 158.163 14.668L159.511 14.9023H159.921L160.214 14.8438C160.37 14.9609 160.448 15.0586 160.448 15.1367C160.448 15.3418 160.429 15.5176 160.39 15.6641C160.429 16.0352 160.448 16.3867 160.448 16.7188V16.9531C160.448 17.1191 160.429 17.334 160.39 17.5977L160.565 18.3594V18.7695C160.409 19.1895 159.882 20.0488 158.983 21.3477C158.612 21.7285 158.261 21.9238 157.929 21.9336H156.815C154.755 21.582 153.29 21.4062 152.421 21.4062C152.382 21.4062 152.226 21.3672 151.952 21.2891H151.718C150.878 21.4062 150.214 21.4648 149.726 21.4648L149.55 21.2305V20.4102C149.56 20.2148 149.599 20.1172 149.667 20.1172L149.608 20V19.5898H149.55L148.847 20.5273C148.378 20.8887 147.851 21.1621 147.265 21.3477C147.099 21.6211 146.356 21.7773 145.038 21.8164H144.862C144.823 21.8164 144.667 21.8555 144.394 21.9336H143.749C143.7 21.9336 143.485 21.8945 143.104 21.8164H141.64C140.038 21.8164 139.237 21.582 139.237 21.1133V20.293C139.042 19.2383 138.925 18.2617 138.886 17.3633C138.925 17.0605 138.944 16.748 138.944 16.4258C139.198 16.3184 139.413 16.084 139.589 15.7227C140.175 15.6738 140.819 15.3809 141.522 14.8438C141.767 14.8438 142.118 13.6133 142.577 11.1523C143.28 9.24805 143.632 8.13477 143.632 7.8125H143.573C143.085 7.8125 142.792 7.40234 142.694 6.58203H142.636L142.694 6.28906V4.41406C142.694 4.32617 142.675 4.24805 142.636 4.17969C142.958 2.8125 143.446 1.91406 144.101 1.48438C144.101 1.36719 144.608 1.25 145.624 1.13281C146.278 1.17188 146.786 1.19141 147.147 1.19141C149.13 1.19141 150.38 1.13281 150.897 1.01562ZM145.8 5.87891C145.81 5.95703 145.849 5.99609 145.917 5.99609H146.034C146.259 5.99609 146.864 5.44922 147.851 4.35547C149.647 2.83203 150.546 2.05078 150.546 2.01172L150.487 1.89453C149.403 2.67578 147.978 3.90625 146.21 5.58594C145.937 5.72266 145.8 5.82031 145.8 5.87891ZM146.269 7.10938C147.04 6.57227 148.837 4.87305 151.659 2.01172C151.659 1.93359 151.62 1.89453 151.542 1.89453H151.249C149.569 3.22266 147.987 4.62891 146.503 6.11328C146.503 6.20117 146.425 6.5332 146.269 7.10938ZM145.39 9.45312C145.536 9.45312 146.571 8.37891 148.495 6.23047C150.536 4.42383 152.06 3.01758 153.065 2.01172V1.95312L152.538 1.89453C152.108 1.9043 151.015 2.91992 149.257 4.94141C149.149 4.94141 148.427 5.58594 147.089 6.875C146.317 7.30469 145.751 8.16406 145.39 9.45312ZM145.097 2.48047C145.136 2.55859 145.155 2.61719 145.155 2.65625H145.214C145.565 2.38281 145.741 2.16797 145.741 2.01172H145.507C145.233 2.01172 145.097 2.16797 145.097 2.48047ZM145.038 3.94531C145.116 4.07227 145.155 4.16992 145.155 4.23828H145.097C145.136 4.31641 145.155 4.375 145.155 4.41406H145.214C145.448 4.18945 145.937 3.58398 146.679 2.59766C146.825 2.59766 147.04 2.42188 147.323 2.07031V2.01172H147.206C146.796 2.09961 146.073 2.74414 145.038 3.94531ZM145.155 5.70312V5.87891H145.331L149.608 2.12891V2.01172H149.433C148.944 2.07031 147.519 3.30078 145.155 5.70312ZM144.921 10.4492C144.96 10.5273 144.979 10.5859 144.979 10.625C145.048 10.625 146.571 9.10156 149.55 6.05469C149.657 6.05469 150.536 5.23438 152.187 3.59375L154.062 2.12891V2.01172H154.003C153.573 2.01172 152.636 2.75391 151.19 4.23828C149.452 5.70312 147.694 7.46094 145.917 9.51172L144.921 10.4492ZM145.155 4.94141V5.11719H145.331C145.38 4.96094 146.356 4.04297 148.261 2.36328C148.417 2.30469 148.495 2.24609 148.495 2.1875C148.495 2.10938 148.456 2.07031 148.378 2.07031H147.909C147.138 2.57813 146.396 3.33984 145.683 4.35547C145.624 4.36523 145.448 4.56055 145.155 4.94141ZM144.394 11.9727L144.511 12.0312C145.077 11.2305 146.425 9.92188 148.554 8.10547C149.784 6.85547 151.308 5.52734 153.124 4.12109C153.593 3.75 154.257 3.10547 155.116 2.1875C155.116 2.10938 155.058 2.07031 154.94 2.07031C154.716 2.07031 154.364 2.26562 153.886 2.65625C153.329 2.85156 150.712 5.33203 146.034 10.0977C144.94 11.1328 144.394 11.7578 144.394 11.9727ZM145.976 2.48047C146.142 2.42188 146.259 2.32422 146.327 2.1875V2.12891H146.269C146.073 2.2168 145.976 2.33398 145.976 2.48047ZM154.12 3.65234V3.71094H154.179C154.892 3.01758 155.399 2.54883 155.702 2.30469V2.12891H155.644C155.556 2.1582 155.048 2.66602 154.12 3.65234ZM155.526 2.77344C155.526 2.89062 154.257 4.10156 151.718 6.40625C151.015 7.11914 150.663 7.54883 150.663 7.69531C150.712 7.69531 150.81 7.8125 150.956 8.04688H151.015C152.06 6.78711 153.056 5.81055 154.003 5.11719C155.214 4.08203 155.819 3.41797 155.819 3.125C155.741 2.99805 155.702 2.88086 155.702 2.77344H155.526ZM151.015 8.57422V8.69141C151.19 8.69141 151.483 8.4375 151.894 7.92969C152.265 7.66602 152.987 7.02148 154.062 5.99609C155.204 5.23438 155.79 4.6875 155.819 4.35547V3.94531C153.925 5.51758 152.655 6.65039 152.011 7.34375C151.474 7.96875 151.142 8.37891 151.015 8.57422ZM143.749 13.7305V13.9062H143.866C144.521 12.9785 145.985 11.4941 148.261 9.45312C149.394 8.41797 149.96 7.79297 149.96 7.57812C150.146 7.57812 150.79 6.99219 151.894 5.82031C152.763 5.0293 153.388 4.48242 153.769 4.17969V4.0625H153.651C151.63 5.72266 150.438 6.73828 150.077 7.10938C149.823 7.24609 149.042 7.96875 147.733 9.27734C145.331 11.3477 144.003 12.832 143.749 13.7305ZM154.94 5.76172V5.87891C155.565 5.83984 155.878 5.74219 155.878 5.58594V5.29297C155.878 5.21484 155.839 5.17578 155.761 5.17578H155.644C155.585 5.17578 155.351 5.37109 154.94 5.76172ZM151.19 9.16016C151.298 9.48242 151.396 9.67773 151.483 9.74609C151.62 9.74609 152.421 9.02344 153.886 7.57812C154.286 7.31445 154.56 7.00195 154.706 6.64062L154.53 6.34766V6.28906L154.647 6.11328V5.99609H154.589C153.886 6.54297 152.753 7.57812 151.19 9.10156V9.16016ZM151.601 10.0977L151.659 10.4492H151.718C151.884 10.4492 152.665 9.88281 154.062 8.75C154.481 8.41797 154.794 8.08594 154.999 7.75391C154.96 7.36328 154.882 7.16797 154.765 7.16797C153.72 8.21289 152.665 9.18945 151.601 10.0977ZM155.058 8.22266C154.716 8.62305 153.681 9.48242 151.952 10.8008C152.001 10.9961 152.06 11.0938 152.128 11.0938H152.187C154.188 9.49219 155.204 8.69141 155.233 8.69141C155.233 8.39844 155.175 8.24219 155.058 8.22266ZM143.222 15.0195V15.1367H143.28L144.394 14.082L145.683 13.0273C148.026 10.8398 149.198 9.70703 149.198 9.62891C149.315 9.32617 149.374 9.11133 149.374 8.98438V8.92578H149.315C148.876 9.17969 147.138 10.8594 144.101 13.9648C143.583 14.4922 143.29 14.8438 143.222 15.0195ZM152.245 11.5625V11.6797H152.421C152.899 11.2402 153.739 10.5566 154.94 9.62891C154.94 9.53125 155.077 9.43359 155.351 9.33594V9.21875C155.351 9.14062 155.312 9.10156 155.233 9.10156C154.13 9.89258 153.153 10.6738 152.304 11.4453L152.245 11.5625ZM155.409 9.51172C155.409 9.60938 154.354 10.5078 152.245 12.207C152.157 12.3438 151.591 12.8906 150.546 13.8477L150.663 13.9062H151.249C153.026 12.1777 154.491 10.8496 155.644 9.92188C155.556 9.64844 155.478 9.51172 155.409 9.51172ZM151.776 13.8477L151.894 13.9062H151.952C152.353 13.623 153.642 12.4902 155.819 10.5078C155.819 10.4492 155.761 10.3906 155.644 10.332C154.794 10.9961 153.505 12.168 151.776 13.8477ZM148.729 10.5664C144.979 14.0137 143.104 15.7715 143.104 15.8398C142.069 16.7578 141.444 17.5195 141.229 18.125C141.269 18.2031 141.288 18.2617 141.288 18.3008H141.347C142.323 17.3242 143.124 16.4258 143.749 15.6055C145.038 14.5508 146.21 13.4961 147.265 12.4414L148.847 10.8008V10.6836C148.847 10.6055 148.808 10.5664 148.729 10.5664ZM152.538 13.7891V14.0234L152.597 14.1406C152.704 14.1406 152.899 13.9453 153.183 13.5547L155.937 11.1523C155.897 11.0742 155.878 11.0156 155.878 10.9766H155.761C154.784 11.875 153.71 12.8125 152.538 13.7891ZM152.538 14.7266C152.597 14.8828 152.655 14.9609 152.714 14.9609H152.772C153.837 14.1113 154.911 13.0176 155.995 11.6797L155.878 11.6211C154.716 12.5586 153.603 13.5938 152.538 14.7266ZM141.229 19.0039C141.269 19.082 141.288 19.1406 141.288 19.1797H141.347C141.669 18.8477 142.528 18.1641 143.925 17.1289C145.829 15.3418 147.47 13.7793 148.847 12.4414V12.3242C148.651 12.3242 148.554 12.168 148.554 11.8555L148.612 11.7383C148.573 11.7383 148.554 11.7188 148.554 11.6797C148.495 11.6797 147.597 12.5391 145.858 14.2578C144.843 14.9512 143.69 16.084 142.401 17.6562C141.62 18.3301 141.229 18.7793 141.229 19.0039ZM147.265 14.375V14.4336H147.323C148.026 13.7793 148.417 13.4473 148.495 13.4375C149.149 12.8613 149.54 12.4902 149.667 12.3242C149.823 12.3242 149.901 12.2852 149.901 12.207L149.784 12.1484H149.726C149.56 12.1777 149.228 12.4707 148.729 13.0273C148.397 13.2129 147.909 13.6621 147.265 14.375ZM148.847 13.4961V13.5547C148.856 13.6328 148.896 13.6719 148.964 13.6719C149.052 13.6719 149.13 13.6523 149.198 13.6133C149.315 13.6523 149.374 13.6914 149.374 13.7305C149.433 13.7305 149.745 13.418 150.312 12.793C150.741 12.5098 150.956 12.334 150.956 12.2656V12.1484H150.37L148.847 13.4961ZM152.597 15.7812V15.957H152.772C153.017 15.6641 154.188 14.6094 156.288 12.793V12.7344C156.239 12.3438 156.161 12.1484 156.054 12.1484C155.976 12.1484 155.429 12.7539 154.413 13.9648C154.325 13.9648 154.013 14.2383 153.476 14.7852C152.89 15.1953 152.597 15.5273 152.597 15.7812ZM149.901 13.6719V13.7305L149.96 13.8477C150.087 13.8477 150.614 13.3984 151.542 12.5C151.62 12.5 151.659 12.4219 151.659 12.2656C151.62 12.2656 151.601 12.2461 151.601 12.207C151.21 12.3926 150.644 12.8809 149.901 13.6719ZM151.132 18.125V18.7109C151.142 18.7891 151.181 18.8281 151.249 18.8281L155.351 15.0195C155.702 14.7559 156.151 14.3262 156.698 13.7305H156.757V13.5547C156.649 13.4277 156.571 13.2715 156.522 13.0859C155.741 13.584 154.394 14.7949 152.479 16.7188L151.132 18.125ZM156.757 14.0234C156.757 14.2285 156.464 14.541 155.878 14.9609C153.095 17.5391 151.63 18.8672 151.483 18.9453C151.522 18.9453 151.542 18.9648 151.542 19.0039L151.835 18.9453H152.597C154.687 17.168 156.19 15.6836 157.108 14.4922V14.4336C157.108 14.2188 157.03 14.082 156.874 14.0234H156.757ZM142.812 19.3555C143.231 19.3555 143.622 19.1016 143.983 18.5938C144.394 18.4375 145.546 17.4023 147.44 15.4883C147.714 14.8926 147.851 14.5605 147.851 14.4922H147.733C147.685 14.4922 146.864 15.332 145.272 17.0117C143.632 18.3105 142.812 19.0918 142.812 19.3555ZM156.698 15.6055L157.108 15.3711C157.167 15.3711 157.226 15.4297 157.284 15.5469C156.728 15.9863 156.063 16.748 155.292 17.832C155.136 18.0664 154.901 18.2812 154.589 18.4766L154.354 18.9453H154.706C154.872 18.7109 155.673 17.8906 157.108 16.4844C157.118 16.4355 157.372 16.123 157.87 15.5469C157.606 15.5469 157.431 15.332 157.343 14.9023L157.226 14.8438C156.874 15.166 156.698 15.4199 156.698 15.6055ZM141.64 19.2969V19.3555C141.698 19.3555 141.776 19.3945 141.874 19.4727H142.226C142.646 18.9355 143.036 18.4863 143.397 18.125C143.71 18.0566 144.745 17.1191 146.503 15.3125C146.581 15.1953 146.659 15.1367 146.737 15.1367V14.9609H146.679C144.999 16.6016 143.339 18.0273 141.698 19.2383C141.659 19.2383 141.64 19.2578 141.64 19.2969ZM155.292 18.7109V18.8281H155.878C156.151 18.623 156.64 18.1152 157.343 17.3047C158.163 16.3965 158.573 15.8105 158.573 15.5469C158.28 15.5469 157.772 16.0547 157.05 17.0703C156.259 17.7246 155.673 18.2715 155.292 18.7109ZM157.46 17.6562V17.7734H157.519C158.593 16.7773 159.179 16.0938 159.276 15.7227H159.101C158.915 15.8594 158.368 16.5039 157.46 17.6562ZM153.241 18.8281C153.251 18.9062 153.29 18.9453 153.358 18.9453H153.827C154.872 17.8613 155.673 16.9238 156.229 16.1328V16.0156H156.171C155.468 16.7578 154.491 17.6953 153.241 18.8281ZM159.276 16.3086V16.4258C159.335 16.4258 159.452 16.3086 159.628 16.0742L159.511 16.0156C159.462 16.0156 159.384 16.1133 159.276 16.3086ZM141.229 16.8359V16.9531L141.288 17.2461H141.405C141.405 17.1973 141.659 16.8848 142.167 16.3086V16.1914H141.991C141.903 16.2793 141.669 16.3574 141.288 16.4258L141.229 16.8359ZM143.983 19.1211H144.159C144.433 19.1211 144.901 18.8086 145.565 18.1836C146.854 17.2656 147.499 16.6797 147.499 16.4258L147.206 16.25H147.147C145.819 17.5391 145.097 18.1836 144.979 18.1836C144.979 18.2812 144.687 18.5156 144.101 18.8867C144.101 18.9453 144.062 19.0234 143.983 19.1211ZM151.132 17.0117V17.4805C151.142 17.5586 151.181 17.5977 151.249 17.5977L152.304 16.4844V16.3672H151.776C151.347 16.7285 151.132 16.9434 151.132 17.0117ZM145.155 18.9453V19.0039H146.034C147.597 17.5391 148.378 16.6797 148.378 16.4258C148.153 16.4258 147.626 16.8359 146.796 17.6562L145.155 18.9453ZM159.394 16.7188C158.974 17.4512 158.485 18.0957 157.929 18.6523V18.7695H158.163C158.378 18.7695 158.612 18.5156 158.866 18.0078C159.374 17.5098 159.628 17.1387 159.628 16.8945C159.589 16.8164 159.569 16.7578 159.569 16.7188H159.394ZM146.562 18.9453V19.0039H147.03C147.03 18.9258 147.44 18.4961 148.261 17.7148C148.417 17.5098 148.495 17.2949 148.495 17.0703H148.378C147.489 18.0469 146.884 18.6719 146.562 18.9453ZM157.05 18.6523V18.7695H157.343C158.173 17.998 158.642 17.4316 158.749 17.0703H158.69C157.597 18.0859 157.05 18.6133 157.05 18.6523ZM158.866 18.5938V18.6523H159.159C159.472 18.3789 159.628 18.1445 159.628 17.9492C159.589 17.8711 159.569 17.8125 159.569 17.7734H159.511C159.306 17.9785 159.091 18.252 158.866 18.5938ZM148.144 18.1836C148.144 18.2812 147.968 18.4766 147.616 18.7695V18.8281C147.626 18.9062 147.665 18.9453 147.733 18.9453H148.085L148.378 18.8867V18.1836H148.144ZM156.464 18.6523L156.405 18.7695V18.8281H156.581V18.7695C156.581 18.6914 156.542 18.6523 156.464 18.6523ZM149.608 19.2969V19.4141H149.667V19.2969H149.608ZM175.097 4.01855C176.249 4.25293 176.913 4.37012 177.089 4.37012H177.675C177.87 4.50684 178.026 4.70215 178.144 4.95605V6.30371C178.231 6.48926 178.29 7.09473 178.319 8.12012L178.437 8.17871H180.897C181.132 8.17871 181.327 8.2959 181.483 8.53027V8.94043C181.601 9.32129 181.659 9.65332 181.659 9.93652V11.1084C181.659 12.0459 181.542 12.5146 181.308 12.5146C181.083 12.5146 180.888 12.5928 180.722 12.749C180.331 12.71 180.038 12.6904 179.843 12.6904H178.378C178.124 12.8076 177.968 13.6279 177.909 15.1514H177.851C177.929 15.2783 177.968 15.3955 177.968 15.5029V15.6787C177.968 16.3135 177.108 16.7627 175.39 17.0264H173.339C173.095 17.0264 172.938 16.7139 172.87 16.0889C172.87 15.708 172.831 15.3564 172.753 15.0342V13.9795C172.753 13.9404 172.772 13.9209 172.812 13.9209C172.812 13.7061 172.46 13.5693 171.757 13.5107C171.083 13.3545 170.341 13.2568 169.53 13.2178L169.179 12.749V11.7529C169.413 11.5771 169.53 11.4014 169.53 11.2256V9.2334L169.413 9.05762V8.82324C169.442 8.58887 169.501 8.47168 169.589 8.47168H170.175C170.751 8.35449 171.415 8.27637 172.167 8.2373C172.167 8.19824 172.187 8.17871 172.226 8.17871C172.353 8.25684 172.47 8.2959 172.577 8.2959H173.104C173.183 8.2959 173.222 8.25684 173.222 8.17871V5.01465C173.241 4.89746 173.515 4.76074 174.042 4.60449C174.394 4.21387 174.745 4.01855 175.097 4.01855ZM174.687 5.89355L174.745 6.18652V6.30371L174.687 6.59668C174.862 6.59668 175.194 6.30371 175.683 5.71777C175.946 5.61035 176.161 5.43457 176.327 5.19043C176.278 5.10254 176.063 5.00488 175.683 4.89746C175.546 4.89746 175.214 5.22949 174.687 5.89355ZM174.804 5.07324V5.13184H174.862C174.94 5.13184 174.979 5.09277 174.979 5.01465V4.95605H174.921C174.843 4.96582 174.804 5.00488 174.804 5.07324ZM174.687 7.2998L174.745 7.59277V7.88574L174.687 8.17871C174.862 8.17871 175.155 7.9248 175.565 7.41699C175.751 7.39746 176.317 6.87012 177.265 5.83496C177.265 5.66895 177.284 5.5127 177.323 5.36621C177.294 5.36621 177.138 5.30762 176.854 5.19043C176.249 5.62012 175.526 6.32324 174.687 7.2998ZM171.815 11.5771L171.933 11.6357H173.573L177.499 7.88574C177.46 7.37793 177.401 7.12402 177.323 7.12402L177.382 6.83105C177.382 6.53809 177.323 6.38184 177.206 6.3623C175.722 7.71973 174.979 8.48145 174.979 8.64746C174.979 9.03809 174.726 9.2334 174.218 9.2334C173.183 10.1807 172.382 10.9619 171.815 11.5771ZM174.101 11.5771L174.218 11.6357H174.276C175.78 10.2686 176.835 9.25293 177.44 8.58887V8.47168H177.323L174.101 11.5771ZM174.687 11.7529L174.745 12.0459L174.687 12.1631C174.726 12.2803 174.765 12.3389 174.804 12.3389C174.853 12.3389 175.263 11.9287 176.034 11.1084C176.122 11.1084 176.63 10.6396 177.558 9.70215C177.909 9.37988 178.085 9.16504 178.085 9.05762C177.831 8.97949 177.655 8.94043 177.558 8.94043C175.644 10.708 174.687 11.6455 174.687 11.7529ZM178.905 9.05762C178.769 9.2334 177.421 10.5225 174.862 12.9248C174.784 13.0811 174.726 13.1592 174.687 13.1592L174.745 13.4521V14.0381L174.687 14.3311H174.862L178.788 10.5811C179.638 9.72168 180.126 9.29199 180.253 9.29199V9.1748C180.253 9.09668 179.804 9.05762 178.905 9.05762ZM170.995 9.64355V10.1123C171.249 10.1123 171.64 9.7998 172.167 9.1748C172.167 9.09668 172.128 9.05762 172.05 9.05762H171.464C171.151 9.05762 170.995 9.25293 170.995 9.64355ZM170.995 10.874V11.5771L171.229 11.6357C172.47 10.4736 173.329 9.67285 173.808 9.2334C173.437 9.11621 173.222 9.05762 173.163 9.05762H173.104C172.733 9.05762 172.167 9.50684 171.405 10.4053C171.259 10.4932 171.122 10.6494 170.995 10.874ZM178.144 9.05762V9.11621H178.261V9.05762H178.144ZM178.847 11.5186V11.6357H179.257C179.56 11.6357 180.106 11.1475 180.897 10.1709L180.78 9.64355H180.722C180.683 9.64355 180.058 10.2686 178.847 11.5186ZM180.077 11.5186V11.6357H180.663C180.819 11.5674 180.897 11.4307 180.897 11.2256V10.8154H180.839C180.78 10.8154 180.526 11.0498 180.077 11.5186ZM178.144 11.5771L178.261 11.6357H178.319C178.319 11.5576 178.397 11.46 178.554 11.3428L178.437 11.2842C178.388 11.2842 178.29 11.3818 178.144 11.5771ZM177.147 13.042C177.147 13.1201 176.601 13.667 175.507 14.6826C175.116 15.0049 174.921 15.2588 174.921 15.4443C174.94 15.4443 175.019 15.4248 175.155 15.3857L175.39 15.4443C175.595 15.4443 176.181 14.8779 177.147 13.7451C177.187 13.6865 177.226 13.4717 177.265 13.1006L177.147 13.042ZM176.972 14.3896C176.425 14.9463 176.151 15.2979 176.151 15.4443L176.444 15.3857L176.796 15.4443C176.991 15.3955 177.089 15.3369 177.089 15.2686V14.5068C177.089 14.4287 177.05 14.3896 176.972 14.3896Z" fill="#3F3A64"/>
</svg>
